<svg id="Layer_1" data-name="Layer 1" xmlns="http://www.w3.org/2000/svg" viewBox="0 0 50 45.83"><title>Vector Smart Object</title><path d="M22.92,47.92A22.92,22.92,0,1,1,35.28,5.71a1.56,1.56,0,1,1-1.69,2.63A19.79,19.79,0,1,0,42.71,25c0-.65,0-1.3-.09-1.93A1.55,1.55,0,0,1,44,21.36a1.57,1.57,0,0,1,1.71,1.4c.07.74.1,1.49.1,2.24A22.94,22.94,0,0,1,22.92,47.92Zm0,0" transform="translate(0 -2.08)" fill="#05ccc2"/><path d="M25.52,30.21a1.52,1.52,0,0,1-1.1-.46L15,20.38a1.56,1.56,0,0,1,0-2.21,1.55,1.55,0,0,1,2.21,0l8.27,8.27L47.33,4.63a1.56,1.56,0,1,1,2.21,2.21L26.63,29.75a1.56,1.56,0,0,1-1.11.46Zm0,0" transform="translate(0 -2.08)" fill="#05ccc2"/></svg>