<?xml version="1.0" encoding="utf-8"?>
<!-- Generator: Adobe Illustrator 23.0.1, SVG Export Plug-In . SVG Version: 6.00 Build 0)  -->
<svg version="1.1" id="Layer_1" xmlns="http://www.w3.org/2000/svg" xmlns:xlink="http://www.w3.org/1999/xlink" x="0px" y="0px"
	 viewBox="0 0 3468.5 1344.1" style="enable-background:new 0 0 3468.5 1344.1;" xml:space="preserve">
<style type="text/css">
	.st0{opacity:0.17;fill:none;stroke:#AAAAAA;stroke-width:6.55;stroke-linecap:round;stroke-linejoin:round;}
	.st1{opacity:0.17;fill:none;stroke:#AAAAAA;stroke-width:2.18;stroke-linecap:round;stroke-linejoin:round;}
	.st2{opacity:0.17;fill:none;stroke:#AAAAAA;stroke-width:2.11;stroke-linecap:round;stroke-linejoin:round;}
</style>
<title>footer-illustration-city</title>
<line class="st0" x1="3.3" y1="1340.8" x2="3465.3" y2="1340.8"/>
<path class="st0" d="M88,1172.9c-15.2,0-27.5,12.3-27.5,27.5c0,0,0,0,0,0h55.1C115.5,1185.2,103.2,1172.9,88,1172.9z"/>
<path class="st0" d="M143.1,1172.9c-15.2,0-27.5,12.3-27.5,27.5c0,0,0,0,0,0h55.1C170.6,1185.2,158.3,1172.9,143.1,1172.9
	C143.1,1172.9,143.1,1172.9,143.1,1172.9z"/>
<path class="st0" d="M83.8,1212.6c-6.2,11.3-2,25.5,9.4,31.7c0,0,0,0,0,0l22.3-41.1C104.2,1197.1,90,1201.3,83.8,1212.6
	C83.8,1212.6,83.8,1212.6,83.8,1212.6z"/>
<path class="st0" d="M147.3,1212.6c6.2,11.3,2,25.5-9.4,31.7l-22.3-41.1C126.9,1197.1,141.1,1201.3,147.3,1212.6
	C147.3,1212.6,147.3,1212.6,147.3,1212.6z"/>
<line class="st1" x1="115.6" y1="1340.8" x2="115.6" y2="1201.8"/>
<path class="st0" d="M570.1,1030.3c-15.2,0-27.5,12.3-27.5,27.5c0,0,0,0,0,0h55.1C597.7,1042.6,585.3,1030.3,570.1,1030.3z"/>
<path class="st0" d="M625.2,1030.3c-15.2,0-27.5,12.3-27.5,27.5l0,0h55.1C652.7,1042.6,640.4,1030.3,625.2,1030.3
	C625.2,1030.3,625.2,1030.3,625.2,1030.3z"/>
<path class="st0" d="M566,1070.1c-6.2,11.3-2,25.5,9.4,31.7c0,0,0,0,0,0l22.3-41.1C586.4,1054.5,572.2,1058.7,566,1070.1
	C566,1070.1,566,1070.1,566,1070.1z"/>
<path class="st0" d="M629.4,1070.1c6.2,11.3,2,25.5-9.4,31.7c0,0,0,0,0,0l-22.3-41.1C609,1054.5,623.2,1058.7,629.4,1070.1
	C629.4,1070.1,629.4,1070.1,629.4,1070.1z"/>
<line class="st1" x1="597.7" y1="1340.8" x2="597.7" y2="1059.2"/>
<path class="st0" d="M2865,943.7c-15.2,0-27.5,12.3-27.5,27.5c0,0,0,0,0,0h55.1C2892.5,956,2880.2,943.7,2865,943.7z"/>
<path class="st0" d="M2920,943.7c-15.2,0-27.5,12.3-27.5,27.5v0h55.1C2947.5,956,2935.2,943.7,2920,943.7z"/>
<path class="st0" d="M2860.8,983.4c-6.2,11.4-2,25.6,9.4,31.7c0,0,0,0,0,0l22.3-41.1C2881.1,967.8,2866.9,972.1,2860.8,983.4z"/>
<path class="st0" d="M2924.2,983.4c6.2,11.4,2,25.6-9.4,31.7l-22.3-41.1C2903.8,967.8,2918,972.1,2924.2,983.4z"/>
<line class="st1" x1="2892.5" y1="1340.8" x2="2892.5" y2="972.5"/>
<rect x="699.5" y="866.8" class="st0" width="174" height="474"/>
<rect x="761.7" y="968.5" class="st1" width="49.7" height="89"/>
<rect x="761.7" y="1159.8" class="st1" width="49.7" height="89"/>
<rect x="761.7" y="1327.5" class="st1" width="49.7" height="13.3"/>
<line class="st1" x1="767.2" y1="980.1" x2="776.5" y2="980.1"/>
<line class="st1" x1="771.9" y1="975.5" x2="771.9" y2="984.8"/>
<line class="st1" x1="781.9" y1="980.1" x2="791.2" y2="980.1"/>
<line class="st1" x1="786.5" y1="975.5" x2="786.5" y2="984.8"/>
<line class="st1" x1="796.5" y1="980.1" x2="805.9" y2="980.1"/>
<line class="st1" x1="801.2" y1="975.5" x2="801.2" y2="984.8"/>
<line class="st1" x1="767.2" y1="996.5" x2="776.5" y2="996.5"/>
<line class="st1" x1="771.9" y1="991.8" x2="771.9" y2="1001.1"/>
<line class="st1" x1="781.9" y1="996.5" x2="791.2" y2="996.5"/>
<line class="st1" x1="786.5" y1="991.8" x2="786.5" y2="1001.1"/>
<line class="st1" x1="796.5" y1="996.5" x2="805.9" y2="996.5"/>
<line class="st1" x1="801.2" y1="991.8" x2="801.2" y2="1001.1"/>
<line class="st1" x1="767.2" y1="1012.8" x2="776.5" y2="1012.8"/>
<line class="st1" x1="771.9" y1="1008.1" x2="771.9" y2="1017.5"/>
<line class="st1" x1="781.9" y1="1012.8" x2="791.2" y2="1012.8"/>
<line class="st1" x1="786.5" y1="1008.1" x2="786.5" y2="1017.5"/>
<line class="st1" x1="796.5" y1="1012.8" x2="805.9" y2="1012.8"/>
<line class="st1" x1="801.2" y1="1008.1" x2="801.2" y2="1017.5"/>
<line class="st1" x1="767.2" y1="1029.1" x2="776.5" y2="1029.1"/>
<line class="st1" x1="771.9" y1="1024.5" x2="771.9" y2="1033.8"/>
<line class="st1" x1="781.9" y1="1029.1" x2="791.2" y2="1029.1"/>
<line class="st1" x1="786.5" y1="1024.5" x2="786.5" y2="1033.8"/>
<line class="st1" x1="796.5" y1="1029.1" x2="805.9" y2="1029.1"/>
<line class="st1" x1="801.2" y1="1024.5" x2="801.2" y2="1033.8"/>
<line class="st1" x1="767.2" y1="1045.5" x2="776.5" y2="1045.5"/>
<line class="st1" x1="771.9" y1="1040.8" x2="771.9" y2="1050.1"/>
<line class="st1" x1="781.9" y1="1045.5" x2="791.2" y2="1045.5"/>
<line class="st1" x1="786.5" y1="1040.8" x2="786.5" y2="1050.1"/>
<line class="st1" x1="796.5" y1="1045.5" x2="805.9" y2="1045.5"/>
<line class="st1" x1="801.2" y1="1040.8" x2="801.2" y2="1050.1"/>
<line class="st1" x1="767.2" y1="1171.7" x2="776.5" y2="1171.7"/>
<line class="st1" x1="771.9" y1="1167" x2="771.9" y2="1176.3"/>
<line class="st1" x1="781.9" y1="1171.7" x2="791.2" y2="1171.7"/>
<line class="st1" x1="786.5" y1="1167" x2="786.5" y2="1176.3"/>
<line class="st1" x1="796.5" y1="1171.7" x2="805.9" y2="1171.7"/>
<line class="st1" x1="801.2" y1="1167" x2="801.2" y2="1176.3"/>
<line class="st1" x1="767.2" y1="1188" x2="776.5" y2="1188"/>
<line class="st1" x1="771.9" y1="1183.3" x2="771.9" y2="1192.7"/>
<line class="st1" x1="781.9" y1="1188" x2="791.2" y2="1188"/>
<line class="st1" x1="786.5" y1="1183.3" x2="786.5" y2="1192.7"/>
<line class="st1" x1="796.5" y1="1188" x2="805.9" y2="1188"/>
<line class="st1" x1="801.2" y1="1183.3" x2="801.2" y2="1192.7"/>
<line class="st1" x1="767.2" y1="1204.3" x2="776.5" y2="1204.3"/>
<line class="st1" x1="771.9" y1="1199.7" x2="771.9" y2="1209"/>
<line class="st1" x1="781.9" y1="1204.3" x2="791.2" y2="1204.3"/>
<line class="st1" x1="786.5" y1="1199.7" x2="786.5" y2="1209"/>
<line class="st1" x1="796.5" y1="1204.3" x2="805.9" y2="1204.3"/>
<line class="st1" x1="801.2" y1="1199.7" x2="801.2" y2="1209"/>
<line class="st1" x1="767.2" y1="1220.7" x2="776.5" y2="1220.7"/>
<line class="st1" x1="771.9" y1="1216" x2="771.9" y2="1225.3"/>
<line class="st1" x1="781.9" y1="1220.7" x2="791.2" y2="1220.7"/>
<line class="st1" x1="786.5" y1="1216" x2="786.5" y2="1225.3"/>
<line class="st1" x1="796.5" y1="1220.7" x2="805.9" y2="1220.7"/>
<line class="st1" x1="801.2" y1="1216" x2="801.2" y2="1225.3"/>
<line class="st1" x1="767.2" y1="1237" x2="776.5" y2="1237"/>
<line class="st1" x1="771.9" y1="1232.3" x2="771.9" y2="1241.7"/>
<line class="st1" x1="781.9" y1="1237" x2="791.2" y2="1237"/>
<line class="st1" x1="786.5" y1="1232.3" x2="786.5" y2="1241.7"/>
<line class="st1" x1="796.5" y1="1237" x2="805.9" y2="1237"/>
<line class="st1" x1="801.2" y1="1232.3" x2="801.2" y2="1241.7"/>
<line class="st1" x1="708.5" y1="928.1" x2="708.5" y2="939.1"/>
<line class="st1" x1="717.2" y1="928.1" x2="717.2" y2="939.1"/>
<line class="st1" x1="725.9" y1="928.1" x2="725.9" y2="939.1"/>
<line class="st1" x1="734.5" y1="928.1" x2="734.5" y2="939.1"/>
<line class="st1" x1="743.2" y1="928.1" x2="743.2" y2="939.1"/>
<line class="st1" x1="751.9" y1="928.1" x2="751.9" y2="939.1"/>
<line class="st1" x1="760.5" y1="928.1" x2="760.5" y2="939.1"/>
<line class="st1" x1="769.2" y1="928.1" x2="769.2" y2="939.1"/>
<line class="st1" x1="777.9" y1="928.1" x2="777.9" y2="939.1"/>
<line class="st1" x1="786.5" y1="928.1" x2="786.5" y2="939.1"/>
<line class="st1" x1="795.2" y1="928.1" x2="795.2" y2="939.1"/>
<line class="st1" x1="803.9" y1="928.1" x2="803.9" y2="939.1"/>
<line class="st1" x1="812.5" y1="928.1" x2="812.5" y2="939.1"/>
<line class="st1" x1="821.2" y1="928.1" x2="821.2" y2="939.1"/>
<line class="st1" x1="829.9" y1="928.1" x2="829.9" y2="939.1"/>
<line class="st1" x1="838.5" y1="928.1" x2="838.5" y2="939.1"/>
<line class="st1" x1="847.2" y1="928.1" x2="847.2" y2="939.1"/>
<line class="st1" x1="855.9" y1="928.1" x2="855.9" y2="939.1"/>
<line class="st1" x1="864.5" y1="928.1" x2="864.5" y2="939.1"/>
<ellipse transform="matrix(0.7071 -0.7071 0.7071 0.7071 -707.7025 582.9995)" class="st0" cx="349.9" cy="1145.8" rx="150.3" ry="150.3"/>
<path class="st2" d="M405.4,1285.4"/>
<line class="st2" x1="405.4" y1="1285.4" x2="294.4" y2="1006.1"/>
<path class="st2" d="M294.4,1006.1"/>
<path class="st2" d="M294.4,1006.1c0,0,66.4,25.1,104.3,120.3"/>
<path class="st2" d="M294.4,1006.1c0,0,130.5-26.3,177.2,91.3"/>
<path class="st2" d="M443.7,1108.4c-41.5-104.4-149.4-102.3-149.4-102.3"/>
<path class="st2" d="M405.4,1285.4c0,0,31.1-63.8-6.8-159"/>
<path class="st2" d="M405.4,1285.4c0,0,112.9-70.6,66.1-188.1"/>
<path class="st2" d="M443.7,1108.4c41.5,104.4-38.3,177-38.3,177"/>
<path class="st2" d="M294.4,1006.1c0,0-31.1,63.8,6.8,159.1"/>
<path class="st2" d="M294.4,1006.1c0,0-112.9,70.6-66.2,188.1"/>
<path class="st2" d="M256.1,1183.1c-41.5-104.4,38.3-177,38.3-177"/>
<path class="st2" d="M405.4,1285.4c0,0-66.4-25.1-104.3-120.3"/>
<path class="st2" d="M405.4,1285.4c0,0-130.5,26.3-177.3-91.3"/>
<path class="st2" d="M256.1,1183.1c41.5,104.4,149.4,102.3,149.4,102.3"/>
<line class="st2" x1="210.2" y1="1201.3" x2="489.6" y2="1090.2"/>
<line class="st2" x1="201.1" y1="1124.1" x2="443.1" y2="1027.8"/>
<line class="st2" x1="222.9" y1="1065.4" x2="387.1" y2="1000.1"/>
<line class="st2" x1="498.6" y1="1167.5" x2="256.7" y2="1263.7"/>
<line class="st2" x1="476.9" y1="1226.1" x2="312.7" y2="1291.4"/>
<polyline class="st0" points="338.7,1296.1 338.7,1340.8 455.7,1340.8 426.9,1274.9 "/>
<path class="st1" d="M739.5,1326.8c-2-9.8-7.2-20.4-18.5-26c-3.9-2-45.2-19.1-93.4-39.1c126.7,29.8,246.7,58.4,258.1,62.5
	c1.2,0.6,2.1,1.5,2.8,2.7L739.5,1326.8z"/>
<path class="st1" d="M250.2,1326.8c2-9.8,7.2-20.4,18.4-26c3.9-2,45.2-19.1,93.4-39.1c-126.7,29.8-246.7,58.4-258.1,62.5
	c-1.2,0.6-2.1,1.5-2.8,2.7L250.2,1326.8z"/>
<path class="st0" d="M891.3,1311.3c-11-5-282.5-68.5-387.5-93l0,0l23.1-9.5l46.2-14.8l-16.8-7.5c0,0-10.8,6.2-22.2,6.7
	s-30-0.9-39.2,10.7c-9.2-11.6-27.9-10.2-39.2-10.7s-22.2-6.7-22.2-6.7l-16.8,7.5l46.2,14.8l23.1,9.5c-105,24.5-376.5,88-387.5,93
	c-16.5,7.5-12.5,29.5-12.5,29.5h177.5c0,0-2.4-20.6,11.6-27.6c7-3.5,153.6-61,219.9-88.3c66.3,27.3,213,84.8,219.9,88.3
	c14,7,11.5,27.5,11.5,27.5h177.5C903.9,1340.8,907.8,1318.8,891.3,1311.3z"/>
<rect x="2529.1" y="616.8" class="st1" width="22.7" height="587"/>
<polyline class="st1" points="2597.4,770.7 2566.8,616.8 2510.8,616.8 2510.8,639.8 2476.8,639.8 "/>
<line class="st1" x1="2499.3" y1="1203.8" x2="2674.8" y2="1203.8"/>
<line class="st1" x1="2566.8" y1="616.8" x2="2566.8" y2="594.8"/>
<line class="st1" x1="2566.8" y1="570.1" x2="2597.4" y2="570.1"/>
<line class="st1" x1="2510.8" y1="616.8" x2="2510.8" y2="561.8"/>
<line class="st1" x1="2502.1" y1="639.1" x2="2502.1" y2="556.7"/>
<line class="st1" x1="2493.4" y1="639.1" x2="2493.4" y2="551.6"/>
<line class="st1" x1="2484.8" y1="639.1" x2="2484.8" y2="547.5"/>
<path class="st1" d="M2499.3,1225.8c0,0,81,20,175.5,0"/>
<line class="st1" x1="2476.8" y1="1225.8" x2="2476.8" y2="1340.8"/>
<rect x="2492.3" y="1244.8" class="st1" width="9.3" height="9.3"/>
<rect x="2492.3" y="1263.5" class="st1" width="9.3" height="9.3"/>
<rect x="2492.3" y="1282.3" class="st1" width="9.3" height="9.3"/>
<rect x="2492.3" y="1301" class="st1" width="9.3" height="9.3"/>
<rect x="2492.3" y="1319.8" class="st1" width="9.3" height="9.3"/>
<rect x="2519.8" y="1244.8" class="st1" width="9.3" height="9.3"/>
<rect x="2519.8" y="1263.5" class="st1" width="9.3" height="9.3"/>
<rect x="2519.8" y="1282.3" class="st1" width="9.3" height="9.3"/>
<rect x="2519.8" y="1301" class="st1" width="9.3" height="9.3"/>
<rect x="2519.8" y="1319.8" class="st1" width="9.3" height="9.3"/>
<rect x="2547.4" y="1244.8" class="st1" width="9.3" height="9.3"/>
<rect x="2547.4" y="1263.5" class="st1" width="9.3" height="9.3"/>
<rect x="2547.4" y="1282.3" class="st1" width="9.3" height="9.3"/>
<rect x="2547.4" y="1301" class="st1" width="9.3" height="9.3"/>
<rect x="2547.4" y="1319.8" class="st1" width="9.3" height="9.3"/>
<rect x="2575" y="1244.8" class="st1" width="9.3" height="9.3"/>
<rect x="2575" y="1263.5" class="st1" width="9.3" height="9.3"/>
<rect x="2575" y="1282.3" class="st1" width="9.3" height="9.3"/>
<rect x="2575" y="1301" class="st1" width="9.3" height="9.3"/>
<rect x="2575" y="1319.8" class="st1" width="9.3" height="9.3"/>
<rect x="2602.5" y="1244.8" class="st1" width="9.3" height="9.3"/>
<rect x="2602.5" y="1263.5" class="st1" width="9.3" height="9.3"/>
<rect x="2602.5" y="1282.3" class="st1" width="9.3" height="9.3"/>
<rect x="2602.5" y="1301" class="st1" width="9.3" height="9.3"/>
<rect x="2602.5" y="1319.8" class="st1" width="9.3" height="9.3"/>
<rect x="2630.1" y="1244.8" class="st1" width="9.3" height="9.3"/>
<rect x="2630.1" y="1263.5" class="st1" width="9.3" height="9.3"/>
<rect x="2630.1" y="1282.3" class="st1" width="9.3" height="9.3"/>
<rect x="2630.1" y="1301" class="st1" width="9.3" height="9.3"/>
<rect x="2630.1" y="1319.8" class="st1" width="9.3" height="9.3"/>
<rect x="2657.7" y="1244.8" class="st1" width="9.3" height="9.3"/>
<rect x="2657.7" y="1263.5" class="st1" width="9.3" height="9.3"/>
<rect x="2657.7" y="1282.3" class="st1" width="9.3" height="9.3"/>
<rect x="2657.7" y="1301" class="st1" width="9.3" height="9.3"/>
<rect x="2657.7" y="1319.8" class="st1" width="9.3" height="9.3"/>
<rect x="2685.3" y="1244.8" class="st1" width="9.3" height="9.3"/>
<rect x="2685.3" y="1263.5" class="st1" width="9.3" height="9.3"/>
<rect x="2685.3" y="1282.3" class="st1" width="9.3" height="9.3"/>
<rect x="2685.3" y="1301" class="st1" width="9.3" height="9.3"/>
<rect x="2685.3" y="1319.8" class="st1" width="9.3" height="9.3"/>
<rect x="2731.5" y="1244.8" class="st1" width="9.3" height="9.3"/>
<rect x="2731.5" y="1263.5" class="st1" width="9.3" height="9.3"/>
<rect x="2731.5" y="1282.3" class="st1" width="9.3" height="9.3"/>
<rect x="2731.5" y="1301" class="st1" width="9.3" height="9.3"/>
<rect x="2731.5" y="1319.8" class="st1" width="9.3" height="9.3"/>
<rect x="2759.1" y="1244.8" class="st1" width="9.3" height="9.3"/>
<rect x="2759.1" y="1263.5" class="st1" width="9.3" height="9.3"/>
<rect x="2759.1" y="1282.3" class="st1" width="9.3" height="9.3"/>
<rect x="2759.1" y="1301" class="st1" width="9.3" height="9.3"/>
<rect x="2759.1" y="1319.8" class="st1" width="9.3" height="9.3"/>
<rect x="2786.6" y="1244.8" class="st1" width="9.3" height="9.3"/>
<rect x="2786.6" y="1263.5" class="st1" width="9.3" height="9.3"/>
<rect x="2786.6" y="1282.3" class="st1" width="9.3" height="9.3"/>
<rect x="2786.6" y="1301" class="st1" width="9.3" height="9.3"/>
<rect x="2786.6" y="1319.8" class="st1" width="9.3" height="9.3"/>
<rect x="2814.2" y="1244.8" class="st1" width="9.3" height="9.3"/>
<rect x="2814.2" y="1263.5" class="st1" width="9.3" height="9.3"/>
<rect x="2814.2" y="1282.3" class="st1" width="9.3" height="9.3"/>
<rect x="2814.2" y="1301" class="st1" width="9.3" height="9.3"/>
<rect x="2814.2" y="1319.8" class="st1" width="9.3" height="9.3"/>
<polyline class="st1" points="2517.3,1229.3 2517.3,1203.8 2531.7,1231.3 "/>
<polyline class="st1" points="2544,1232.6 2544,1203.8 2559.8,1233.9 "/>
<polyline class="st1" points="2570.7,1234.4 2570.7,1203.8 2587,1234.7 "/>
<polyline class="st1" points="2597.4,1234.6 2597.4,1203.8 2613.3,1233.9 "/>
<polyline class="st1" points="2624.2,1233.2 2624.2,1203.8 2638.8,1231.7 "/>
<polyline class="st1" points="2650.9,1230.1 2650.9,1203.8 2663.6,1228 "/>
<line class="st1" x1="2487.3" y1="1194.4" x2="2497.8" y2="1194.4"/>
<line class="st1" x1="2507.8" y1="1194.4" x2="2518.3" y2="1194.4"/>
<line class="st1" x1="2487.3" y1="1177.8" x2="2497.8" y2="1177.8"/>
<line class="st1" x1="2507.8" y1="1177.8" x2="2518.3" y2="1177.8"/>
<line class="st1" x1="2487.3" y1="1161.2" x2="2497.8" y2="1161.2"/>
<line class="st1" x1="2507.8" y1="1161.2" x2="2518.3" y2="1161.2"/>
<line class="st1" x1="2487.3" y1="1144.7" x2="2497.8" y2="1144.7"/>
<line class="st1" x1="2507.8" y1="1144.7" x2="2518.3" y2="1144.7"/>
<line class="st1" x1="2487.3" y1="1128.1" x2="2497.8" y2="1128.1"/>
<line class="st1" x1="2507.8" y1="1128.1" x2="2518.3" y2="1128.1"/>
<line class="st1" x1="2487.3" y1="1111.5" x2="2497.8" y2="1111.5"/>
<line class="st1" x1="2507.8" y1="1111.5" x2="2518.3" y2="1111.5"/>
<line class="st1" x1="2487.3" y1="1094.9" x2="2497.8" y2="1094.9"/>
<line class="st1" x1="2507.8" y1="1094.9" x2="2518.3" y2="1094.9"/>
<line class="st1" x1="2487.3" y1="1078.4" x2="2497.8" y2="1078.4"/>
<line class="st1" x1="2507.8" y1="1078.4" x2="2518.3" y2="1078.4"/>
<line class="st1" x1="2487.3" y1="1061.8" x2="2497.8" y2="1061.8"/>
<line class="st1" x1="2507.8" y1="1061.8" x2="2518.3" y2="1061.8"/>
<line class="st1" x1="2487.3" y1="1045.2" x2="2497.8" y2="1045.2"/>
<line class="st1" x1="2507.8" y1="1045.2" x2="2518.3" y2="1045.2"/>
<line class="st1" x1="2487.3" y1="1028.6" x2="2497.8" y2="1028.6"/>
<line class="st1" x1="2507.8" y1="1028.6" x2="2518.3" y2="1028.6"/>
<line class="st1" x1="2487.3" y1="1012.1" x2="2497.8" y2="1012.1"/>
<line class="st1" x1="2507.8" y1="1012.1" x2="2518.3" y2="1012.1"/>
<line class="st1" x1="2487.3" y1="995.5" x2="2497.8" y2="995.5"/>
<line class="st1" x1="2507.8" y1="995.5" x2="2518.3" y2="995.5"/>
<line class="st1" x1="2487.3" y1="978.9" x2="2497.8" y2="978.9"/>
<line class="st1" x1="2507.8" y1="978.9" x2="2518.3" y2="978.9"/>
<line class="st1" x1="2487.3" y1="962.4" x2="2497.8" y2="962.4"/>
<line class="st1" x1="2507.8" y1="962.4" x2="2518.3" y2="962.4"/>
<line class="st1" x1="2487.3" y1="945.8" x2="2497.8" y2="945.8"/>
<line class="st1" x1="2507.8" y1="945.8" x2="2518.3" y2="945.8"/>
<line class="st1" x1="2487.3" y1="929.2" x2="2497.8" y2="929.2"/>
<line class="st1" x1="2507.8" y1="929.2" x2="2518.3" y2="929.2"/>
<line class="st1" x1="2487.3" y1="912.6" x2="2497.8" y2="912.6"/>
<line class="st1" x1="2507.8" y1="912.6" x2="2518.3" y2="912.6"/>
<line class="st1" x1="2487.3" y1="896.1" x2="2497.8" y2="896.1"/>
<line class="st1" x1="2507.8" y1="896.1" x2="2518.3" y2="896.1"/>
<line class="st1" x1="2487.3" y1="879.5" x2="2497.8" y2="879.5"/>
<line class="st1" x1="2507.8" y1="879.5" x2="2518.3" y2="879.5"/>
<line class="st1" x1="2487.3" y1="862.9" x2="2497.8" y2="862.9"/>
<line class="st1" x1="2507.8" y1="862.9" x2="2518.3" y2="862.9"/>
<line class="st1" x1="2487.3" y1="846.3" x2="2497.8" y2="846.3"/>
<line class="st1" x1="2507.8" y1="846.3" x2="2518.3" y2="846.3"/>
<line class="st1" x1="2487.3" y1="829.8" x2="2497.8" y2="829.8"/>
<line class="st1" x1="2507.8" y1="829.8" x2="2518.3" y2="829.8"/>
<line class="st1" x1="2487.3" y1="813.2" x2="2497.8" y2="813.2"/>
<line class="st1" x1="2507.8" y1="813.2" x2="2518.3" y2="813.2"/>
<line class="st1" x1="2487.3" y1="796.6" x2="2497.8" y2="796.6"/>
<line class="st1" x1="2507.8" y1="796.6" x2="2518.3" y2="796.6"/>
<line class="st1" x1="2487.3" y1="780.1" x2="2497.8" y2="780.1"/>
<line class="st1" x1="2507.8" y1="780.1" x2="2518.3" y2="780.1"/>
<line class="st1" x1="2487.3" y1="763.5" x2="2497.8" y2="763.5"/>
<line class="st1" x1="2507.8" y1="763.5" x2="2518.3" y2="763.5"/>
<line class="st1" x1="2487.3" y1="746.9" x2="2497.8" y2="746.9"/>
<line class="st1" x1="2507.8" y1="746.9" x2="2518.3" y2="746.9"/>
<line class="st1" x1="2487.3" y1="730.3" x2="2497.8" y2="730.3"/>
<line class="st1" x1="2507.8" y1="730.3" x2="2518.3" y2="730.3"/>
<line class="st1" x1="2487.3" y1="713.8" x2="2497.8" y2="713.8"/>
<line class="st1" x1="2507.8" y1="713.8" x2="2518.3" y2="713.8"/>
<line class="st1" x1="2487.3" y1="697.2" x2="2497.8" y2="697.2"/>
<line class="st1" x1="2507.8" y1="697.2" x2="2518.3" y2="697.2"/>
<line class="st1" x1="2487.3" y1="680.6" x2="2497.8" y2="680.6"/>
<line class="st1" x1="2507.8" y1="680.6" x2="2518.3" y2="680.6"/>
<line class="st1" x1="2487.3" y1="664" x2="2497.8" y2="664"/>
<line class="st1" x1="2507.8" y1="664" x2="2518.3" y2="664"/>
<line class="st1" x1="2487.3" y1="647.5" x2="2497.8" y2="647.5"/>
<line class="st1" x1="2507.8" y1="647.5" x2="2518.3" y2="647.5"/>
<line class="st1" x1="2551.9" y1="1194.4" x2="2681.9" y2="1194.4"/>
<line class="st1" x1="2551.9" y1="1177.8" x2="2678.6" y2="1177.8"/>
<line class="st1" x1="2551.9" y1="1161.2" x2="2675.3" y2="1161.2"/>
<line class="st1" x1="2551.9" y1="1144.7" x2="2672" y2="1144.7"/>
<line class="st1" x1="2551.9" y1="1128.1" x2="2668.7" y2="1128.1"/>
<line class="st1" x1="2551.9" y1="1111.5" x2="2665.4" y2="1111.5"/>
<line class="st1" x1="2551.9" y1="1094.9" x2="2662.1" y2="1094.9"/>
<line class="st1" x1="2551.9" y1="1078.4" x2="2658.8" y2="1078.4"/>
<line class="st1" x1="2551.9" y1="1061.8" x2="2655.4" y2="1061.8"/>
<line class="st1" x1="2551.9" y1="1045.2" x2="2652.1" y2="1045.2"/>
<line class="st1" x1="2551.9" y1="1028.6" x2="2648.8" y2="1028.6"/>
<line class="st1" x1="2551.9" y1="1012.1" x2="2645.5" y2="1012.1"/>
<line class="st1" x1="2551.9" y1="995.5" x2="2642.2" y2="995.5"/>
<line class="st1" x1="2551.9" y1="978.9" x2="2638.9" y2="978.9"/>
<line class="st1" x1="2551.9" y1="962.4" x2="2635.6" y2="962.4"/>
<line class="st1" x1="2551.9" y1="945.8" x2="2632.3" y2="945.8"/>
<line class="st1" x1="2551.9" y1="929.2" x2="2629" y2="929.2"/>
<line class="st1" x1="2551.9" y1="912.6" x2="2625.7" y2="912.6"/>
<line class="st1" x1="2551.9" y1="896.1" x2="2622.4" y2="896.1"/>
<line class="st1" x1="2551.9" y1="879.5" x2="2619.1" y2="879.5"/>
<line class="st1" x1="2551.9" y1="862.9" x2="2615.8" y2="862.9"/>
<line class="st1" x1="2551.9" y1="846.3" x2="2612.5" y2="846.3"/>
<line class="st1" x1="2551.9" y1="829.8" x2="2609.2" y2="829.8"/>
<line class="st1" x1="2551.9" y1="813.2" x2="2605.9" y2="813.2"/>
<line class="st1" x1="2551.9" y1="796.6" x2="2602.6" y2="796.6"/>
<line class="st1" x1="2551.9" y1="780.1" x2="2599.3" y2="780.1"/>
<line class="st1" x1="2551.9" y1="763.5" x2="2596" y2="763.5"/>
<line class="st1" x1="2551.9" y1="746.9" x2="2592.7" y2="746.9"/>
<line class="st1" x1="2551.9" y1="730.3" x2="2589.4" y2="730.3"/>
<line class="st1" x1="2551.9" y1="713.8" x2="2586.1" y2="713.8"/>
<line class="st1" x1="2551.9" y1="697.2" x2="2582.8" y2="697.2"/>
<line class="st1" x1="2551.9" y1="680.6" x2="2579.5" y2="680.6"/>
<line class="st1" x1="2551.9" y1="664" x2="2576.2" y2="664"/>
<line class="st1" x1="2551.9" y1="647.5" x2="2572.9" y2="647.5"/>
<line class="st1" x1="2551.9" y1="630.9" x2="2569.6" y2="630.9"/>
<path class="st0" d="M2674.8,1225.8v-22h9l-86.3-433.1l0,0V570.1l22.7-16.7h-76l22.7,16.7v24.7l-90-53v662h22.5v22h-22.5l-17,25
	l17,90h368l23-115H2674.8z"/>
<path class="st1" d="M2168.4,815.5c-10.2,0-20.4,1.7-30.1,5.1"/>
<line class="st1" x1="2098.5" y1="902.5" x2="2077.1" y2="902.5"/>
<line class="st1" x1="2138.3" y1="902.5" x2="2108.2" y2="902.5"/>
<line class="st1" x1="2168.4" y1="902.5" x2="2148.7" y2="902.5"/>
<line class="st1" x1="2099.4" y1="915.5" x2="2077.5" y2="915.5"/>
<line class="st1" x1="2138.8" y1="915.5" x2="2109.2" y2="915.5"/>
<line class="st1" x1="2168.4" y1="915.5" x2="2149.6" y2="915.5"/>
<line class="st1" x1="2168.4" y1="963.5" x2="2096.8" y2="963.5"/>
<path class="st1" d="M2158.1,963.5c-4.7-12-24-116.7,10.3-117.7"/>
<path class="st1" d="M2149.4,963.5c-4.7-10-14.4-42-10-83c2.6-24.4-1-33.3-9.3-33s-24.1,16.7-21.7,59.7c2,35.3,19.5,56.3,19.5,56.3"
	/>
<path class="st1" d="M2117.1,963.5c0,0-15-17.7-18-51.7c-2.4-28,2.7-40.5,6.3-51.7c2.8-8.5-5.3-17.3-18.4,5.1"/>
<polyline class="st1" points="2146.4,774.8 2152.2,769 2168.4,769 "/>
<line class="st1" x1="2149.4" y1="731.8" x2="2168.4" y2="731.8"/>
<line class="st1" x1="2168.4" y1="757.8" x2="2146.4" y2="757.8"/>
<path class="st1" d="M2168.4,980.1h-32.3v12.1"/>
<path class="st1" d="M2168.4,815.5c10.2,0,20.4,1.7,30.1,5.1"/>
<line class="st1" x1="2238.3" y1="902.5" x2="2259.7" y2="902.5"/>
<line class="st1" x1="2198.5" y1="902.5" x2="2228.6" y2="902.5"/>
<line class="st1" x1="2168.4" y1="902.5" x2="2188.1" y2="902.5"/>
<line class="st1" x1="2237.4" y1="915.5" x2="2259.3" y2="915.5"/>
<line class="st1" x1="2198" y1="915.5" x2="2227.6" y2="915.5"/>
<line class="st1" x1="2168.4" y1="915.5" x2="2187.2" y2="915.5"/>
<line class="st1" x1="2168.4" y1="963.5" x2="2240" y2="963.5"/>
<path class="st1" d="M2178.7,963.5c4.7-12,24-116.7-10.3-117.7"/>
<path class="st1" d="M2187.4,963.5c4.7-10,14.4-42,10-83c-2.6-24.4,1-33.3,9.3-33s24.1,16.7,21.7,59.7c-2,35.3-19.5,56.3-19.5,56.3"
	/>
<path class="st1" d="M2219.7,963.5c0,0,15-17.7,18-51.7c2.5-28-2.7-40.5-6.3-51.7c-2.8-8.5,5.3-17.3,18.4,5.1"/>
<polyline class="st1" points="2190.4,774.8 2184.6,769 2168.4,769 "/>
<line class="st1" x1="2187.4" y1="731.8" x2="2168.4" y2="731.8"/>
<line class="st1" x1="2168.4" y1="757.8" x2="2190.4" y2="757.8"/>
<path class="st0" d="M2229.4,1268.8c-28-26.7-28.7-32.7-28.7-67.3V992.2l0,0c47.2-17.9,71-70.6,53.1-117.8
	c-9.6-25.3-29.8-45-55.3-53.9l0,0v-45.7h-8.1v-17h7.6v-26h-10.6v-22.3h-37.9v22.3h-10.6v26h7.6v17h-8.1v45.8l0,0
	c-47.6,16.6-72.8,68.8-56.1,116.4c8.9,25.5,28.6,45.7,53.9,55.3l0,0v209.2c0,34.7-0.7,40.7-28.7,67.3s-84,72-84,72h290
	C2313.4,1340.8,2257.4,1295.5,2229.4,1268.8z"/>
<path class="st1" d="M2168.4,980.1h32.3v12.1"/>
<path class="st0" d="M925.3,1032c-0.5-7.4,5.4-8.5,9.1-7.1c7.4,2.7,7.7,14.7,7.7,14.7v97.6"/>
<polyline class="st0" points="942.1,944.6 936.3,944.6 915.9,960.4 929,1014 942.1,1014 "/>
<polyline class="st0" points="942.1,944.6 947.9,944.6 968.3,960.4 955.2,1014 942.1,1014 "/>
<path class="st0" d="M958.8,1032c0.5-7.4-5.4-8.5-9.1-7.1c-7.3,2.7-7.6,14.7-7.6,14.7v97.6"/>
<path class="st0" d="M948.4,929.6c0,3.5-2.8,6.3-6.3,6.3s-6.3-2.8-6.3-6.3s2.8-6.3,6.3-6.3C945.6,923.3,948.4,926.1,948.4,929.6z"/>
<line class="st0" x1="942.1" y1="923.3" x2="942.1" y2="912.7"/>
<circle class="st0" cx="942.1" cy="1147.6" r="10.4"/>
<polyline class="st0" points="936.8,1156.5 925.3,1340.8 942.1,1340.8 "/>
<polyline class="st0" points="947.4,1156.5 958.9,1340.8 942.1,1340.8 "/>
<line class="st1" x1="915.9" y1="960.4" x2="968.3" y2="960.4"/>
<polyline class="st1" points="935.8,1014 931.7,960.4 942.1,944.6 "/>
<polyline class="st1" points="948.4,1014 952.5,960.4 942.1,944.6 "/>
<line class="st1" x1="953.3" y1="1251.3" x2="930.9" y2="1251.3"/>
<line class="st1" x1="930.6" y1="1255.9" x2="953.6" y2="1255.9"/>
<line class="st1" x1="942.1" y1="1242.2" x2="942.1" y2="1202.5"/>
<line class="st1" x1="925.9" y1="1330.9" x2="958.2" y2="1330.9"/>
<line class="st1" x1="937.9" y1="1268.1" x2="935.4" y2="1321"/>
<line class="st1" x1="946.3" y1="1268.1" x2="948.8" y2="1321"/>
<path class="st1" d="M1309.4,968.3c-5.2-7.8-10.8-16.9-16.3-26.8"/>
<path class="st1" d="M1309.4,933c-16.9-25.5-39.3-64.9-44-100.8c-0.6-4.8-1.1-9.5-1.5-14"/>
<path class="st1" d="M1309.4,897.8c-16.2-24.4-37.5-61.8-43.3-96.5"/>
<path class="st1" d="M1309.4,862.5c-13.5-20.4-30.6-49.9-39.3-79.3"/>
<path class="st1" d="M1309.4,827.2c-10.9-16.4-24-38.6-33.3-61.9"/>
<path class="st1" d="M1309.4,791.9c-9.4-14-17.8-28.6-25.2-43.8"/>
<path class="st1" d="M1309.4,1141.6c-16.9-25.5-39.3-64.9-44-100.8c-0.7-4.9-1.2-9.7-1.5-14.3"/>
<path class="st1" d="M1309.4,1106.3c-16.2-24.5-37.6-62-43.4-96.8"/>
<path class="st1" d="M1309.4,1071c-13.6-20.5-30.7-50.1-39.4-79.6"/>
<path class="st1" d="M1309.4,1035.7c-10.9-16.5-24.1-38.7-33.4-62.2"/>
<path class="st1" d="M1309.4,1000.4c-9.4-14.1-17.9-28.8-25.4-44"/>
<path class="st1" d="M1277.7,1215c-2.5-6.1-4.8-12.2-6.8-18.4"/>
<path class="st1" d="M1295.4,1215.1c-6.8-11.7-12.8-23.8-18.1-36.3"/>
<path class="st1" d="M1309.4,1202.5c-8.7-13.1-16.6-26.7-23.7-40.7"/>
<path class="st1" d="M1309.4,721.9c-16.9-25.5-39.3-64.9-44-100.8c-0.5-4-1-7.9-1.3-11.7"/>
<path class="st1" d="M1309.4,686.6c-15.8-23.9-36.5-60-42.9-94.1"/>
<path class="st1" d="M1309.4,651.3c-12.5-18.9-28.1-45.5-37.2-72.6"/>
<path class="st1" d="M1309.4,616c-8-12-15.4-24.5-22-37.3"/>
<path class="st1" d="M1365.5,1050.4c-5.7-10.3-11.6-19.7-16.9-27.8"/>
<path class="st1" d="M1309.4,761.7c-5.3-8-11.2-17.5-16.9-27.8"/>
<path class="st1" d="M1365.5,843.7c-5.7-10.3-11.6-19.7-16.9-27.8"/>
<path class="st1" d="M1365.5,637c-5.7-10.3-11.6-19.7-16.9-27.8"/>
<path class="st1" d="M1309.4,1176.3c-5.1-7.7-10.7-16.7-16.2-26.5"/>
<line class="st1" x1="1294.3" y1="578.5" x2="1361.1" y2="578.5"/>
<rect x="1309.4" y="578.5" class="st1" width="39.1" height="636.5"/>
<path class="st1" d="M1337.8,1215.1"/>
<line class="st1" x1="1240.8" y1="1294.5" x2="1329" y2="1294.5"/>
<line class="st1" x1="1329" y1="1302.8" x2="1240.8" y2="1302.8"/>
<line class="st1" x1="1218.8" y1="1327.1" x2="1329" y2="1327.1"/>
<line class="st1" x1="1391.4" y1="1215" x2="1266.6" y2="1215"/>
<line class="st1" x1="1417.2" y1="1294.5" x2="1329" y2="1294.5"/>
<line class="st1" x1="1329" y1="1302.8" x2="1417.2" y2="1302.8"/>
<line class="st1" x1="1439.2" y1="1327.1" x2="1329" y2="1327.1"/>
<line class="st1" x1="1267.6" y1="1226.4" x2="1279.6" y2="1226.4"/>
<line class="st1" x1="1295.3" y1="1226.4" x2="1307.3" y2="1226.4"/>
<line class="st1" x1="1323" y1="1226.4" x2="1335" y2="1226.4"/>
<line class="st1" x1="1350.7" y1="1226.4" x2="1362.7" y2="1226.4"/>
<line class="st1" x1="1378.4" y1="1226.4" x2="1390.4" y2="1226.4"/>
<line class="st1" x1="1267.6" y1="1237.8" x2="1279.6" y2="1237.8"/>
<line class="st1" x1="1295.3" y1="1237.8" x2="1307.3" y2="1237.8"/>
<line class="st1" x1="1323" y1="1237.8" x2="1335" y2="1237.8"/>
<line class="st1" x1="1350.7" y1="1237.8" x2="1362.7" y2="1237.8"/>
<line class="st1" x1="1378.4" y1="1237.8" x2="1390.4" y2="1237.8"/>
<line class="st1" x1="1248.9" y1="1249.1" x2="1251.9" y2="1249.1"/>
<line class="st1" x1="1267.6" y1="1249.1" x2="1279.6" y2="1249.1"/>
<line class="st1" x1="1295.3" y1="1249.1" x2="1307.3" y2="1249.1"/>
<line class="st1" x1="1323" y1="1249.1" x2="1335" y2="1249.1"/>
<line class="st1" x1="1350.7" y1="1249.1" x2="1362.7" y2="1249.1"/>
<line class="st1" x1="1378.4" y1="1249.1" x2="1390.4" y2="1249.1"/>
<line class="st1" x1="1406.1" y1="1249.1" x2="1409.1" y2="1249.1"/>
<line class="st1" x1="1245.8" y1="1260.4" x2="1251.9" y2="1260.4"/>
<line class="st1" x1="1267.6" y1="1260.4" x2="1279.6" y2="1260.4"/>
<line class="st1" x1="1295.3" y1="1260.4" x2="1307.3" y2="1260.4"/>
<line class="st1" x1="1323" y1="1260.4" x2="1335" y2="1260.4"/>
<line class="st1" x1="1350.7" y1="1260.4" x2="1362.7" y2="1260.4"/>
<line class="st1" x1="1378.4" y1="1260.4" x2="1390.4" y2="1260.4"/>
<line class="st1" x1="1406.1" y1="1260.4" x2="1412.5" y2="1260.4"/>
<line class="st1" x1="1243.1" y1="1271.8" x2="1251.9" y2="1271.8"/>
<line class="st1" x1="1267.6" y1="1271.8" x2="1279.6" y2="1271.8"/>
<line class="st1" x1="1295.3" y1="1271.8" x2="1307.3" y2="1271.8"/>
<line class="st1" x1="1323" y1="1271.8" x2="1335" y2="1271.8"/>
<line class="st1" x1="1350.7" y1="1271.8" x2="1362.7" y2="1271.8"/>
<line class="st1" x1="1378.4" y1="1271.8" x2="1390.4" y2="1271.8"/>
<line class="st1" x1="1406.1" y1="1271.8" x2="1414.9" y2="1271.8"/>
<line class="st1" x1="1241.5" y1="1283.1" x2="1251.9" y2="1283.1"/>
<line class="st1" x1="1267.6" y1="1283.1" x2="1279.6" y2="1283.1"/>
<line class="st1" x1="1295.3" y1="1283.1" x2="1307.3" y2="1283.1"/>
<line class="st1" x1="1323" y1="1283.1" x2="1335" y2="1283.1"/>
<line class="st1" x1="1350.7" y1="1283.1" x2="1362.7" y2="1283.1"/>
<line class="st1" x1="1378.4" y1="1283.1" x2="1390.4" y2="1283.1"/>
<line class="st1" x1="1406.1" y1="1283.1" x2="1416.5" y2="1283.1"/>
<line class="st1" x1="1245.5" y1="1313.5" x2="1245.5" y2="1327.1"/>
<line class="st1" x1="1264.1" y1="1313.5" x2="1264.1" y2="1327.1"/>
<line class="st1" x1="1282.6" y1="1313.5" x2="1282.6" y2="1327.1"/>
<line class="st1" x1="1301.2" y1="1313.5" x2="1301.2" y2="1327.1"/>
<line class="st1" x1="1319.7" y1="1313.5" x2="1319.7" y2="1327.1"/>
<line class="st1" x1="1338.3" y1="1313.5" x2="1338.3" y2="1327.1"/>
<line class="st1" x1="1356.8" y1="1313.5" x2="1356.8" y2="1327.1"/>
<line class="st1" x1="1375.4" y1="1313.5" x2="1375.4" y2="1327.1"/>
<line class="st1" x1="1393.9" y1="1313.5" x2="1393.9" y2="1327.1"/>
<line class="st1" x1="1412.5" y1="1313.5" x2="1412.5" y2="1327.1"/>
<line class="st1" x1="1305.5" y1="568.4" x2="1349.9" y2="568.4"/>
<line class="st1" x1="1361.1" y1="578.3" x2="1294.3" y2="578.3"/>
<line class="st1" x1="1305.5" y1="558.3" x2="1349.9" y2="558.3"/>
<line class="st1" x1="1349.9" y1="568.2" x2="1305.5" y2="568.2"/>
<line class="st1" x1="1315.4" y1="558.3" x2="1327.7" y2="541.7"/>
<line class="st1" x1="1340" y1="558.3" x2="1327.7" y2="541.7"/>
<line class="st1" x1="1327.7" y1="524" x2="1327.7" y2="458.7"/>
<path class="st1" d="M1348.6,851.2c16.9,25.5,39.3,64.9,44,100.9c0.6,4.8,1.1,9.5,1.5,14"/>
<path class="st1" d="M1348.6,886.5c16.2,24.5,37.4,61.8,43.3,96.5"/>
<path class="st1" d="M1348.6,921.8c13.5,20.4,30.6,49.9,39.3,79.3"/>
<path class="st1" d="M1348.6,957.1c10.9,16.4,24,38.6,33.3,61.9"/>
<path class="st1" d="M1348.6,992.3c9.4,14,17.8,28.6,25.2,43.8"/>
<path class="st1" d="M1348.6,642c16.9,25.5,39.3,64.9,44,100.9c0.7,5.6,1.3,11,1.6,16.2"/>
<path class="st1" d="M1348.6,677.3c16.4,24.7,38,62.7,43.6,97.8"/>
<path class="st1" d="M1348.6,712.6c13.7,20.7,31.1,50.7,39.7,80.5"/>
<path class="st1" d="M1348.6,747.9c11.1,16.7,24.5,39.4,33.8,63.1"/>
<path class="st1" d="M1348.6,783.2c9.6,14.4,18.3,29.5,25.9,45.1"/>
<path class="st1" d="M1367.9,578.7c4.8,9,9.2,18.2,13.1,27.6"/>
<path class="st1" d="M1348.6,581.8c9.1,13.6,17.2,27.7,24.5,42.3"/>
<path class="st1" d="M1348.6,1053.3c16.9,25.5,39.3,64.9,44,100.8c2.4,17.1,2.8,34.4,1.3,51.5"/>
<path class="st1" d="M1348.6,1088.6c16.9,25.5,39.3,64.9,44,100.8c0.6,4.8,1.1,9.5,1.5,14"/>
<path class="st1" d="M1348.6,1123.8c15.4,23.2,35.3,58,42.3,91.2"/>
<path class="st1" d="M1348.6,1159.1c9.9,15,21.8,34.8,30.8,55.9"/>
<path class="st1" d="M1348.6,1194.4c4.1,6.1,8.5,13.1,12.8,20.6"/>
<rect x="1320.2" y="578.5" class="st1" width="17.7" height="636.5"/>
<path class="st0" d="M1427.9,1313.5v-10.7h-10.7v-8.3c-1.7-51-25.8-79.4-25.8-79.4l0,0c7.1-21.8,6.4-52,1.1-91.6
	c-3.3-24.6-14.8-50.8-27.1-73.1l0.4-0.2c5.4-11,37.3-52.7,26.7-133.3c-3.3-24.6-14.8-50.8-27.1-73.1l0.4-0.2
	c5.4-11,37.3-52.7,26.7-133.3c-3.3-24.6-14.8-50.8-27.1-73.1l0.4-0.3c3.4-6.8,17-25.5,24.2-58.1l-0.8-0.2h-28.2v-10.1h-11.2v-10.1
	l11.2-10c0,0-9.4-14-33.4-14s-33.4,14-33.4,14l11.2,10v10.1h-11.2v10.1h-24.7c-5.5,20.8-8.7,48-4.2,82.3
	c3.3,24.6,14.8,50.8,27.1,73.1l-0.4,0.2c-5.4,11-37.3,52.7-26.7,133.3c3.3,25,15.1,51.6,27.7,74.1l-1,0.6
	c-5.4,11-37.3,52.7-26.7,133.3c3.3,25.1,15.2,51.8,27.8,74.4l-1.2,0.7c-3.6,7.3-18.8,28-25.5,64.5l0,0c0,0-24.1,28.4-25.8,79.4v8.3
	h-10.7v10.7l-11.3,13.7v13.7h220.5v-13.7L1427.9,1313.5z"/>
<line class="st1" x1="1329" y1="1313.5" x2="1427.9" y2="1313.5"/>
<line class="st1" x1="1329" y1="1313.5" x2="1230.1" y2="1313.5"/>
<line class="st1" x1="2974.8" y1="1315.8" x2="3012" y2="1315.8"/>
<line class="st1" x1="2875.4" y1="1315.8" x2="2912.7" y2="1315.8"/>
<line class="st1" x1="2974.8" y1="1323.8" x2="3012" y2="1323.8"/>
<line class="st1" x1="2974.8" y1="1331.8" x2="3012" y2="1331.8"/>
<line class="st1" x1="2974.8" y1="1267.5" x2="3012" y2="1267.5"/>
<line class="st1" x1="2974.8" y1="1265.8" x2="2974.8" y2="1145.4"/>
<line class="st1" x1="2875.4" y1="1324.8" x2="2912.7" y2="1324.8"/>
<line class="st1" x1="2875.4" y1="1332.8" x2="2912.7" y2="1332.8"/>
<line class="st1" x1="2733.5" y1="1315.8" x2="2861.2" y2="1315.8"/>
<line class="st1" x1="2733.5" y1="1324.8" x2="2861.2" y2="1324.8"/>
<line class="st1" x1="2733.5" y1="1332.8" x2="2861.2" y2="1332.8"/>
<line class="st1" x1="2875.4" y1="1267.5" x2="2912.7" y2="1267.5"/>
<line class="st1" x1="2875.4" y1="1183.1" x2="2974.8" y2="1183.1"/>
<line class="st1" x1="2875.4" y1="1175.8" x2="2974.8" y2="1175.8"/>
<line class="st1" x1="2733.5" y1="1183.1" x2="2861.2" y2="1183.1"/>
<line class="st1" x1="2733.5" y1="1175.8" x2="2861.2" y2="1175.8"/>
<line class="st1" x1="2733.5" y1="1221.7" x2="2861.2" y2="1221.7"/>
<line class="st1" x1="2733.5" y1="1214.4" x2="2861.2" y2="1214.4"/>
<line class="st1" x1="2733.5" y1="1260.3" x2="2861.2" y2="1260.3"/>
<line class="st1" x1="2733.5" y1="1253" x2="2861.2" y2="1253"/>
<line class="st1" x1="2886.7" y1="1166.5" x2="2892.5" y2="1166.5"/>
<line class="st1" x1="2902" y1="1156.2" x2="2907.8" y2="1156.2"/>
<line class="st1" x1="2914.5" y1="1166.5" x2="2920.3" y2="1166.5"/>
<line class="st1" x1="2929.8" y1="1156.2" x2="2935.6" y2="1156.2"/>
<line class="st1" x1="2942.3" y1="1166.5" x2="2948.1" y2="1166.5"/>
<line class="st1" x1="2957.6" y1="1156.2" x2="2963.4" y2="1156.2"/>
<line class="st1" x1="2738.9" y1="1203.9" x2="2744.7" y2="1203.9"/>
<line class="st1" x1="2754.2" y1="1193.6" x2="2760" y2="1193.6"/>
<line class="st1" x1="2766.7" y1="1203.9" x2="2772.5" y2="1203.9"/>
<line class="st1" x1="2782" y1="1193.6" x2="2787.8" y2="1193.6"/>
<line class="st1" x1="2794.5" y1="1203.9" x2="2800.3" y2="1203.9"/>
<line class="st1" x1="2809.8" y1="1193.6" x2="2815.6" y2="1193.6"/>
<line class="st1" x1="2794.5" y1="1203.9" x2="2800.3" y2="1203.9"/>
<line class="st1" x1="2809.8" y1="1193.6" x2="2815.6" y2="1193.6"/>
<line class="st1" x1="2822.3" y1="1203.9" x2="2828.1" y2="1203.9"/>
<line class="st1" x1="2837.6" y1="1193.6" x2="2843.4" y2="1193.6"/>
<line class="st1" x1="2850.1" y1="1203.9" x2="2855.9" y2="1203.9"/>
<line class="st1" x1="2738.9" y1="1242.5" x2="2744.7" y2="1242.5"/>
<line class="st1" x1="2754.2" y1="1232.2" x2="2760" y2="1232.2"/>
<line class="st1" x1="2766.7" y1="1242.5" x2="2772.5" y2="1242.5"/>
<line class="st1" x1="2782" y1="1232.2" x2="2787.8" y2="1232.2"/>
<line class="st1" x1="2794.5" y1="1242.5" x2="2800.3" y2="1242.5"/>
<line class="st1" x1="2809.8" y1="1232.2" x2="2815.6" y2="1232.2"/>
<line class="st1" x1="2794.5" y1="1242.5" x2="2800.3" y2="1242.5"/>
<line class="st1" x1="2809.8" y1="1232.2" x2="2815.6" y2="1232.2"/>
<line class="st1" x1="2822.3" y1="1242.5" x2="2828.1" y2="1242.5"/>
<line class="st1" x1="2837.6" y1="1232.2" x2="2843.4" y2="1232.2"/>
<line class="st1" x1="2850.1" y1="1242.5" x2="2855.9" y2="1242.5"/>
<line class="st1" x1="2738.9" y1="1284.3" x2="2744.7" y2="1284.3"/>
<line class="st1" x1="2754.2" y1="1274" x2="2760" y2="1274"/>
<line class="st1" x1="2766.7" y1="1284.3" x2="2772.5" y2="1284.3"/>
<line class="st1" x1="2782" y1="1274" x2="2787.8" y2="1274"/>
<line class="st1" x1="2794.5" y1="1284.3" x2="2800.3" y2="1284.3"/>
<line class="st1" x1="2809.8" y1="1274" x2="2815.6" y2="1274"/>
<line class="st1" x1="2794.5" y1="1284.3" x2="2800.3" y2="1284.3"/>
<line class="st1" x1="2809.8" y1="1274" x2="2815.6" y2="1274"/>
<line class="st1" x1="2822.3" y1="1284.3" x2="2828.1" y2="1284.3"/>
<line class="st1" x1="2837.6" y1="1274" x2="2843.4" y2="1274"/>
<line class="st1" x1="2850.1" y1="1284.3" x2="2855.9" y2="1284.3"/>
<line class="st1" x1="2738.9" y1="1305.2" x2="2744.7" y2="1305.2"/>
<line class="st1" x1="2754.2" y1="1294.9" x2="2760" y2="1294.9"/>
<line class="st1" x1="2766.7" y1="1305.2" x2="2772.5" y2="1305.2"/>
<line class="st1" x1="2782" y1="1294.9" x2="2787.8" y2="1294.9"/>
<line class="st1" x1="2794.5" y1="1305.2" x2="2800.3" y2="1305.2"/>
<line class="st1" x1="2809.8" y1="1294.9" x2="2815.6" y2="1294.9"/>
<line class="st1" x1="2794.5" y1="1305.2" x2="2800.3" y2="1305.2"/>
<line class="st1" x1="2809.8" y1="1294.9" x2="2815.6" y2="1294.9"/>
<line class="st1" x1="2822.3" y1="1305.2" x2="2828.1" y2="1305.2"/>
<line class="st1" x1="2837.6" y1="1294.9" x2="2843.4" y2="1294.9"/>
<line class="st1" x1="2850.1" y1="1305.2" x2="2855.9" y2="1305.2"/>
<path class="st1" d="M2760.8,1144.2c0.2-4.5,4-8.1,8.5-7.9c4.3,0.2,7.8,3.6,7.9,7.9v15.3h-16.4V1144.2z"/>
<path class="st1" d="M2817.5,1144.2c0-4.5,3.6-8.2,8.2-8.2s8.2,3.6,8.2,8.2c0,0,0,0,0,0.1v15.3h-16.4V1144.2z"/>
<line class="st1" x1="2875.4" y1="1340.8" x2="2875.4" y2="1145.4"/>
<line class="st1" x1="3139.3" y1="1315.8" x2="3102" y2="1315.8"/>
<line class="st1" x1="3238.7" y1="1315.8" x2="3201.4" y2="1315.8"/>
<line class="st1" x1="3139.3" y1="1323.8" x2="3102" y2="1323.8"/>
<line class="st1" x1="3139.3" y1="1331.8" x2="3102" y2="1331.8"/>
<line class="st1" x1="3139.3" y1="1267.5" x2="3102" y2="1267.5"/>
<line class="st1" x1="3139.3" y1="1265.8" x2="3139.3" y2="1145.4"/>
<line class="st1" x1="3238.7" y1="1324.8" x2="3201.4" y2="1324.8"/>
<line class="st1" x1="3238.7" y1="1332.8" x2="3201.4" y2="1332.8"/>
<line class="st1" x1="3380.6" y1="1315.8" x2="3252.9" y2="1315.8"/>
<line class="st1" x1="3380.6" y1="1324.8" x2="3252.9" y2="1324.8"/>
<line class="st1" x1="3380.6" y1="1332.8" x2="3252.9" y2="1332.8"/>
<line class="st1" x1="3238.7" y1="1267.5" x2="3201.4" y2="1267.5"/>
<line class="st1" x1="3238.7" y1="1183.1" x2="3139.3" y2="1183.1"/>
<line class="st1" x1="3238.7" y1="1175.8" x2="3139.3" y2="1175.8"/>
<line class="st1" x1="3380.6" y1="1183.1" x2="3252.9" y2="1183.1"/>
<line class="st1" x1="3380.6" y1="1175.8" x2="3252.9" y2="1175.8"/>
<line class="st1" x1="3380.6" y1="1221.7" x2="3252.9" y2="1221.7"/>
<line class="st1" x1="3380.6" y1="1214.4" x2="3252.9" y2="1214.4"/>
<line class="st1" x1="3380.6" y1="1260.3" x2="3252.9" y2="1260.3"/>
<line class="st1" x1="3380.6" y1="1253" x2="3252.9" y2="1253"/>
<line class="st1" x1="3227.4" y1="1166.5" x2="3221.6" y2="1166.5"/>
<line class="st1" x1="3212" y1="1156.2" x2="3206.3" y2="1156.2"/>
<line class="st1" x1="3199.6" y1="1166.5" x2="3193.8" y2="1166.5"/>
<line class="st1" x1="3184.3" y1="1156.2" x2="3178.5" y2="1156.2"/>
<line class="st1" x1="3171.8" y1="1166.5" x2="3166" y2="1166.5"/>
<line class="st1" x1="3156.4" y1="1156.2" x2="3150.7" y2="1156.2"/>
<line class="st1" x1="3375.2" y1="1203.9" x2="3369.4" y2="1203.9"/>
<line class="st1" x1="3359.9" y1="1193.6" x2="3354.1" y2="1193.6"/>
<line class="st1" x1="3347.4" y1="1203.9" x2="3341.6" y2="1203.9"/>
<line class="st1" x1="3332.1" y1="1193.6" x2="3326.3" y2="1193.6"/>
<line class="st1" x1="3319.6" y1="1203.9" x2="3313.8" y2="1203.9"/>
<line class="st1" x1="3304.3" y1="1193.6" x2="3298.5" y2="1193.6"/>
<line class="st1" x1="3319.6" y1="1203.9" x2="3313.8" y2="1203.9"/>
<line class="st1" x1="3304.3" y1="1193.6" x2="3298.5" y2="1193.6"/>
<line class="st1" x1="3291.8" y1="1203.9" x2="3286" y2="1203.9"/>
<line class="st1" x1="3276.5" y1="1193.6" x2="3270.7" y2="1193.6"/>
<line class="st1" x1="3264" y1="1203.9" x2="3258.2" y2="1203.9"/>
<line class="st1" x1="3375.2" y1="1242.5" x2="3369.4" y2="1242.5"/>
<line class="st1" x1="3359.9" y1="1232.2" x2="3354.1" y2="1232.2"/>
<line class="st1" x1="3347.4" y1="1242.5" x2="3341.6" y2="1242.5"/>
<line class="st1" x1="3332.1" y1="1232.2" x2="3326.3" y2="1232.2"/>
<line class="st1" x1="3319.6" y1="1242.5" x2="3313.8" y2="1242.5"/>
<line class="st1" x1="3304.3" y1="1232.2" x2="3298.5" y2="1232.2"/>
<line class="st1" x1="3319.6" y1="1242.5" x2="3313.8" y2="1242.5"/>
<line class="st1" x1="3304.3" y1="1232.2" x2="3298.5" y2="1232.2"/>
<line class="st1" x1="3291.8" y1="1242.5" x2="3286" y2="1242.5"/>
<line class="st1" x1="3276.5" y1="1232.2" x2="3270.7" y2="1232.2"/>
<line class="st1" x1="3264" y1="1242.5" x2="3258.2" y2="1242.5"/>
<line class="st1" x1="3375.2" y1="1284.3" x2="3369.4" y2="1284.3"/>
<line class="st1" x1="3359.9" y1="1274" x2="3354.1" y2="1274"/>
<line class="st1" x1="3347.4" y1="1284.3" x2="3341.6" y2="1284.3"/>
<line class="st1" x1="3332.1" y1="1274" x2="3326.3" y2="1274"/>
<line class="st1" x1="3319.6" y1="1284.3" x2="3313.8" y2="1284.3"/>
<line class="st1" x1="3304.3" y1="1274" x2="3298.5" y2="1274"/>
<line class="st1" x1="3319.6" y1="1284.3" x2="3313.8" y2="1284.3"/>
<line class="st1" x1="3304.3" y1="1274" x2="3298.5" y2="1274"/>
<line class="st1" x1="3291.8" y1="1284.3" x2="3286" y2="1284.3"/>
<line class="st1" x1="3276.5" y1="1274" x2="3270.7" y2="1274"/>
<line class="st1" x1="3264" y1="1284.3" x2="3258.2" y2="1284.3"/>
<line class="st1" x1="3375.2" y1="1305.2" x2="3369.4" y2="1305.2"/>
<line class="st1" x1="3359.9" y1="1294.9" x2="3354.1" y2="1294.9"/>
<line class="st1" x1="3347.4" y1="1305.2" x2="3341.6" y2="1305.2"/>
<line class="st1" x1="3332.1" y1="1294.9" x2="3326.3" y2="1294.9"/>
<line class="st1" x1="3319.6" y1="1305.2" x2="3313.8" y2="1305.2"/>
<line class="st1" x1="3304.3" y1="1294.9" x2="3298.5" y2="1294.9"/>
<line class="st1" x1="3319.6" y1="1305.2" x2="3313.8" y2="1305.2"/>
<line class="st1" x1="3304.3" y1="1294.9" x2="3298.5" y2="1294.9"/>
<line class="st1" x1="3291.8" y1="1305.2" x2="3286" y2="1305.2"/>
<line class="st1" x1="3276.5" y1="1294.9" x2="3270.7" y2="1294.9"/>
<line class="st1" x1="3264" y1="1305.2" x2="3258.2" y2="1305.2"/>
<path class="st1" d="M3353.3,1144.2c-0.2-4.5-4-8.1-8.5-7.9c-4.3,0.2-7.8,3.6-7.9,7.9v15.3h16.4V1144.2z"/>
<path class="st1" d="M3296.6,1144.2c0-4.5-3.6-8.2-8.2-8.2s-8.2,3.6-8.2,8.2c0,0,0,0,0,0.1v15.3h16.4V1144.2z"/>
<path class="st0" d="M3387.6,1109.5c0,0-7.1,1.6-7.1,11.7c0-10.1-7.1-11.7-7.1-11.7s-7.1,1.6-7.1,11.7c0-10.1-7.1-11.7-7.1-11.7
	s-7.1,1.6-7.1,11.7c0-10.1-7.1-11.7-7.1-11.7s-7.1,1.6-7.1,11.7c0-10.1-7.1-11.7-7.1-11.7s-7.1,1.6-7.1,11.7
	c0-10.1-7.1-11.7-7.1-11.7s-7.1,1.6-7.1,11.7c0-10.1-7.1-11.7-7.1-11.7s-7.1,1.6-7.1,11.7c0-10.1-7.1-11.7-7.1-11.7
	s-7.1,1.6-7.1,11.7c0-10.1-7.1-11.7-7.1-11.7s-7.1,1.6-7.1,11.7c0-10.1-7.1-11.7-7.1-11.7l0,0c0,0-7.1,1.6-7.1,11.7
	c0-10.1-7.1-11.7-7.1-11.7s-7.1,1.6-7.1,11.7v24.3c0-10.1-7.1-11.7-7.1-11.7s-7.1,1.6-7.1,11.7c0-10.1-7.1-11.7-7.1-11.7
	s-7.1,1.6-7.1,11.7c0-10.1-7.1-11.7-7.1-11.7s-7.1,1.6-7.1,11.7c0-10.1-7.1-11.7-7.1-11.7s-7.1,1.6-7.1,11.7
	c0-10.1-7.1-11.7-7.1-11.7s-7.1,1.6-7.1,11.7c0-10.1-7.1-11.7-7.1-11.7l0,0c0,0-7.1,1.6-7.1,11.7c0-10.1-7.1-11.7-7.1-11.7
	s-7.1,1.6-7.1,11.7v-24.6c0-9.7-6.9-11.3-6.9-11.3s-6.9,1.5-6.9,11.3c0-9.7-6.9-11.3-6.9-11.3s-6.9,1.5-6.9,11.3
	c0-9.7-6.9-11.3-6.9-11.3s-6.9,1.5-6.9,11.3c0-9.7-6.9-11.3-6.9-11.3s-6.9,1.5-6.9,11.3c0-9.7-6.9-11.3-6.9-11.3s-6.9,1.5-6.9,11.3
	c0-9.7-6.9-11.3-6.9-11.3s-6.9,1.5-6.9,11.3c0-9.7-6.9-11.3-6.9-11.3s-6.9,1.5-6.9,11.3c0-9.7-6.9-11.3-6.9-11.3s-6.9,1.5-6.9,11.3
	c0-9.7-6.9-11.3-6.9-11.3s-6.9,1.5-6.9,11.3c0-9.7-6.9-11.3-6.9-11.3s-6.9,1.5-6.9,11.3c0-9.7-6.9-11.3-6.9-11.3s-6.9,1.5-6.9,11.3
	c0-9.7-6.9-11.3-6.9-11.3s-6.9,1.5-6.9,11.3v24.6c0-10.1-7.1-11.7-7.1-11.7s-7.1,1.6-7.1,11.7c0-10.1-7.1-11.7-7.1-11.7h-0.1
	c0,0-7.1,1.6-7.1,11.7c0-10.1-7.1-11.7-7.1-11.7s-7.1,1.6-7.1,11.7c0-10.1-7.1-11.7-7.1-11.7s-7.1,1.6-7.1,11.7
	c0-10.1-7.1-11.7-7.1-11.7s-7.1,1.6-7.1,11.7c0-10.1-7.1-11.7-7.1-11.7s-7.1,1.6-7.1,11.7c0-10.1-7.1-11.7-7.1-11.7
	s-7.1,1.6-7.1,11.7v-24.3c0-10.1-7.1-11.7-7.1-11.7s-7.1,1.6-7.1,11.7c0-10.1-7.1-11.7-7.1-11.7l0,0c0,0-7.1,1.6-7.1,11.7
	c0-10.1-7.1-11.7-7.1-11.7s-7.1,1.6-7.1,11.7c0-10.1-7.1-11.7-7.1-11.7s-7.1,1.6-7.1,11.7c0-10.1-7.1-11.7-7.1-11.7
	s-7.1,1.6-7.1,11.7c0-10.1-7.1-11.7-7.1-11.7s-7.1,1.6-7.1,11.7c0-10.1-7.1-11.7-7.1-11.7s-7.1,1.6-7.1,11.7
	c0-10.1-7.1-11.7-7.1-11.7s-7.1,1.6-7.1,11.7c0-10.1-7.1-11.7-7.1-11.7s-7.1,1.6-7.1,11.7c0-10.1-7.1-11.7-7.1-11.7
	s-7.1,1.6-7.1,11.7c0-10.1-7.1-11.7-7.1-11.7s-7.1,1.6-7.1,11.7v219.6h194v-81.3c0-43.6,30.7-50.5,30.7-50.5s30.7,6.8,30.7,50.5
	v81.3h37.1v-119.1c0-63.9,45-73.9,45-73.9s45,10,45,73.9v119.1h37.3v-81.3c0-43.6,30.7-50.5,30.7-50.5s30.7,6.8,30.7,50.5v81.3h194
	v-219.6C3394.7,1111.1,3387.6,1109.5,3387.6,1109.5z"/>
<line class="st1" x1="3238.7" y1="1340.8" x2="3238.7" y2="1145.4"/>
<polyline class="st1" points="2374.3,287 2353,359.5 2353,1296.8 2362.9,1309.9 2367.6,1309.9 "/>
<polyline class="st1" points="2367.6,1309.9 2372.4,1309.9 2382.3,1296.8 2382.3,417.3 "/>
<line class="st1" x1="2288" y1="1315.8" x2="2367.6" y2="1315.8"/>
<path class="st1" d="M2353,1296.8c-12,0-34-1-48.3,8c-1.7,1-3.2,2-4.5,2.9"/>
<path class="st1" d="M2304.6,1304.8c8.3-3.9,29-2.3,45.3,11"/>
<line class="st1" x1="2367.6" y1="1322.1" x2="2254" y2="1322.1"/>
<line class="st1" x1="2367.6" y1="1328.5" x2="2237" y2="1328.5"/>
<line class="st1" x1="2447.3" y1="1315.8" x2="2367.6" y2="1315.8"/>
<path class="st1" d="M2382.3,1296.8c12,0,34-1,48.3,8c1.7,1,3.2,2,4.5,2.9"/>
<path class="st1" d="M2430.6,1304.8c-8.3-3.9-29-2.3-45.3,11"/>
<line class="st1" x1="2367.6" y1="1322.1" x2="2481.3" y2="1322.1"/>
<line class="st1" x1="2367.6" y1="1328.5" x2="2498.3" y2="1328.5"/>
<line class="st1" x1="2328.3" y1="510.5" x2="2353" y2="510.5"/>
<line class="st1" x1="2353" y1="497.8" x2="2340.3" y2="497.8"/>
<path class="st1" d="M2339.8,513.7c6.8,4.1,12.2,12.2,13.2,24.4"/>
<line class="st1" x1="2353.2" y1="1249.5" x2="2303" y2="1249.5"/>
<line class="st1" x1="2353.2" y1="1239.8" x2="2303.5" y2="1239.8"/>
<line class="st1" x1="2353" y1="1116.3" x2="2310.1" y2="1116.3"/>
<line class="st1" x1="2353" y1="1106.6" x2="2310.1" y2="1106.6"/>
<line class="st1" x1="2353" y1="966.8" x2="2317" y2="966.8"/>
<line class="st1" x1="2353" y1="957.1" x2="2317.5" y2="957.1"/>
<line class="st1" x1="2353" y1="818.3" x2="2324.4" y2="818.3"/>
<line class="st1" x1="2353" y1="808.6" x2="2324.9" y2="808.6"/>
<line class="st1" x1="2353" y1="678.2" x2="2331.9" y2="678.2"/>
<line class="st1" x1="2353" y1="668.5" x2="2331.9" y2="668.5"/>
<rect x="2339.4" y="1209.6" class="st1" width="13.6" height="19.2"/>
<rect x="2339.4" y="1182.8" class="st1" width="13.6" height="19.2"/>
<rect x="2339.4" y="1156.1" class="st1" width="13.6" height="19.2"/>
<rect x="2339.4" y="1129.3" class="st1" width="13.6" height="19.2"/>
<rect x="2382.3" y="1182.8" class="st1" width="13.6" height="19.2"/>
<rect x="2382.3" y="1156.1" class="st1" width="13.6" height="19.2"/>
<rect x="2382.3" y="1129.3" class="st1" width="13.6" height="19.2"/>
<rect x="2339.4" y="1078.9" class="st1" width="13.6" height="19.2"/>
<rect x="2382.3" y="1078.9" class="st1" width="13.6" height="19.2"/>
<rect x="2339.4" y="1052.1" class="st1" width="13.6" height="19.2"/>
<rect x="2339.4" y="1025.3" class="st1" width="13.6" height="19.2"/>
<rect x="2339.4" y="998.5" class="st1" width="13.6" height="19.2"/>
<rect x="2382.3" y="1034.9" class="st1" width="13.6" height="19.2"/>
<rect x="2382.3" y="1008.1" class="st1" width="13.6" height="19.2"/>
<rect x="2382.3" y="981.3" class="st1" width="13.6" height="19.2"/>
<rect x="2339.4" y="938" class="st1" width="13.6" height="19.2"/>
<rect x="2339.4" y="911.2" class="st1" width="13.6" height="19.2"/>
<rect x="2339.4" y="884.4" class="st1" width="13.6" height="19.2"/>
<rect x="2382.3" y="918.8" class="st1" width="13.6" height="19.2"/>
<rect x="2382.3" y="892" class="st1" width="13.6" height="19.2"/>
<rect x="2382.3" y="865.2" class="st1" width="13.6" height="19.2"/>
<rect x="2382.3" y="837.9" class="st1" width="13.6" height="19.2"/>
<rect x="2344.2" y="862" class="st1" width="8.8" height="12.4"/>
<rect x="2344.2" y="844.6" class="st1" width="8.8" height="12.4"/>
<rect x="2344.2" y="827.3" class="st1" width="8.8" height="12.4"/>
<rect x="2344.2" y="779.8" class="st1" width="8.8" height="12.4"/>
<rect x="2344.2" y="762.5" class="st1" width="8.8" height="12.4"/>
<rect x="2344.2" y="745.1" class="st1" width="8.8" height="12.4"/>
<rect x="2344.2" y="727.8" class="st1" width="8.8" height="12.4"/>
<rect x="2344.2" y="710.5" class="st1" width="8.8" height="12.4"/>
<rect x="2382.3" y="779.8" class="st1" width="8.8" height="12.4"/>
<rect x="2382.3" y="762.5" class="st1" width="8.8" height="12.4"/>
<rect x="2382.3" y="745.1" class="st1" width="8.8" height="12.4"/>
<rect x="2382.3" y="727.8" class="st1" width="8.8" height="12.4"/>
<rect x="2382.3" y="710.5" class="st1" width="8.8" height="12.4"/>
<rect x="2382.3" y="693.1" class="st1" width="8.8" height="12.4"/>
<rect x="2382.3" y="631.5" class="st1" width="8.8" height="12.4"/>
<rect x="2382.3" y="614.2" class="st1" width="8.8" height="12.4"/>
<rect x="2382.3" y="596.9" class="st1" width="8.8" height="12.4"/>
<rect x="2382.3" y="579.5" class="st1" width="8.8" height="12.4"/>
<rect x="2344.2" y="644.3" class="st1" width="8.8" height="12.4"/>
<rect x="2344.2" y="627" class="st1" width="8.8" height="12.4"/>
<rect x="2344.2" y="609.6" class="st1" width="8.8" height="12.4"/>
<line class="st1" x1="2382.3" y1="1239.8" x2="2431.8" y2="1239.8"/>
<line class="st1" x1="2382.3" y1="1249.5" x2="2432.3" y2="1249.5"/>
<line class="st1" x1="2382.3" y1="1106.6" x2="2425.2" y2="1106.6"/>
<line class="st1" x1="2382.3" y1="1116.3" x2="2425.7" y2="1116.3"/>
<line class="st1" x1="2382.3" y1="957.1" x2="2417.8" y2="957.1"/>
<line class="st1" x1="2382.3" y1="966.8" x2="2417.8" y2="966.8"/>
<line class="st1" x1="2382.3" y1="808.6" x2="2410.4" y2="808.6"/>
<line class="st1" x1="2382.3" y1="818.3" x2="2410.9" y2="818.3"/>
<line class="st1" x1="2382.3" y1="668.5" x2="2403.5" y2="668.5"/>
<line class="st1" x1="2382.3" y1="678.2" x2="2403.5" y2="678.2"/>
<path class="st0" d="M2498.3,1328.5v-6.3h-17v-6.3h-34c0,0-1.8-1.6-12.1-8.1l-43.5-876.9l-9.3-13.5V259.8l-8,27.2l-9.4-283.7
	l-24.6,494.5h-22.7v12.7h10.7c4.1,0,8,1.1,11.5,3.2l-0.3,0.5l-39.4,793.5l0,0c-10.3,6.6-12.1,8.1-12.1,8.1h-34v6.3h-17v6.3h-17v12.3
	h295.3v-12.3L2498.3,1328.5z"/>
<path class="st1" d="M1040.5,1273.3c2.8,22.7,6.4,45.3,10.8,67.5"/>
<path class="st1" d="M1104.3,728.8h-34c0,0-53.8,244.3-35.4,488.2"/>
<path class="st1" d="M1031.1,1095.4c-3.6-52-10.8-284.2,21-447.5"/>
<rect x="1068.9" y="1259.1" class="st1" width="74.7" height="9.3"/>
<rect x="1074.8" y="1279.2" class="st1" width="74.7" height="9.3"/>
<rect x="1080.7" y="1299.3" class="st1" width="74.7" height="9.3"/>
<rect x="1086.6" y="1319.4" class="st1" width="74.7" height="9.3"/>
<line class="st1" x1="1162.5" y1="1250.3" x2="1037.8" y2="1250.3"/>
<line class="st1" x1="1036.7" y1="1238.8" x2="1159.3" y2="1238.8"/>
<line class="st1" x1="1035.7" y1="1227.9" x2="1166.3" y2="1227.9"/>
<line class="st1" x1="1034.8" y1="1217" x2="1153.4" y2="1217"/>
<line class="st1" x1="1034.1" y1="1206.1" x2="1160.7" y2="1206.1"/>
<line class="st1" x1="1033.4" y1="1195.2" x2="1148" y2="1195.2"/>
<line class="st1" x1="1032.8" y1="1184.3" x2="1155.5" y2="1184.3"/>
<line class="st1" x1="1032.3" y1="1173.3" x2="1143" y2="1173.3"/>
<line class="st1" x1="1031.9" y1="1162.4" x2="1150.7" y2="1162.4"/>
<line class="st1" x1="1031.5" y1="1151.5" x2="1138.4" y2="1151.5"/>
<line class="st1" x1="1031.3" y1="1140.6" x2="1146.2" y2="1140.6"/>
<line class="st1" x1="1031.1" y1="1129.7" x2="1134.1" y2="1129.7"/>
<line class="st1" x1="1031" y1="1118.8" x2="1142.2" y2="1118.8"/>
<line class="st1" x1="1031" y1="1107.9" x2="1130.3" y2="1107.9"/>
<line class="st1" x1="1031" y1="1097" x2="1138.5" y2="1097"/>
<line class="st1" x1="1031" y1="1086.1" x2="1126.8" y2="1086.1"/>
<line class="st1" x1="1031.4" y1="1075.1" x2="1135.2" y2="1075.1"/>
<line class="st1" x1="1031.7" y1="1064.2" x2="1123.7" y2="1064.2"/>
<line class="st1" x1="1032" y1="1053.3" x2="1132.3" y2="1053.3"/>
<line class="st1" x1="1032.4" y1="1042.4" x2="1121" y2="1042.4"/>
<line class="st1" x1="1032.9" y1="1031.5" x2="1129.8" y2="1031.5"/>
<line class="st1" x1="1033.4" y1="1020.6" x2="1118.6" y2="1020.6"/>
<line class="st1" x1="1034" y1="1009.7" x2="1127.6" y2="1009.7"/>
<line class="st1" x1="1034.7" y1="998.8" x2="1116.6" y2="998.8"/>
<line class="st1" x1="1035.4" y1="987.8" x2="1125.8" y2="987.8"/>
<line class="st1" x1="1036.2" y1="976.9" x2="1115.1" y2="976.9"/>
<line class="st1" x1="1037.1" y1="966" x2="1124.4" y2="966"/>
<line class="st1" x1="1038" y1="955.1" x2="1113.9" y2="955.1"/>
<line class="st1" x1="1038.9" y1="944.2" x2="1123.4" y2="944.2"/>
<line class="st1" x1="1040" y1="933.3" x2="1113.1" y2="933.3"/>
<line class="st1" x1="1041.1" y1="922.4" x2="1122.8" y2="922.4"/>
<line class="st1" x1="1042.2" y1="911.5" x2="1112.6" y2="911.5"/>
<line class="st1" x1="1043.4" y1="900.6" x2="1122.6" y2="900.6"/>
<line class="st1" x1="1044.7" y1="889.7" x2="1112.6" y2="889.7"/>
<line class="st1" x1="1046" y1="878.8" x2="1122.8" y2="878.8"/>
<line class="st1" x1="1047.3" y1="867.8" x2="1113" y2="867.8"/>
<line class="st1" x1="1048.8" y1="856.9" x2="1123.3" y2="856.9"/>
<line class="st1" x1="1050.3" y1="846" x2="1113.8" y2="846"/>
<line class="st1" x1="1051.8" y1="835.1" x2="1124.3" y2="835.1"/>
<line class="st1" x1="1053.4" y1="824.2" x2="1115" y2="824.2"/>
<line class="st1" x1="1055.1" y1="813.3" x2="1125.8" y2="813.3"/>
<line class="st1" x1="1056.8" y1="802.4" x2="1116.6" y2="802.4"/>
<line class="st1" x1="1058.6" y1="791.5" x2="1127.6" y2="791.5"/>
<line class="st1" x1="1060.4" y1="780.5" x2="1118.6" y2="780.5"/>
<line class="st1" x1="1062.3" y1="769.6" x2="1129.8" y2="769.6"/>
<line class="st1" x1="1064.3" y1="758.7" x2="1121.1" y2="758.7"/>
<line class="st1" x1="1066.4" y1="747.8" x2="1132.6" y2="747.8"/>
<line class="st1" x1="1068.6" y1="736.9" x2="1124.1" y2="736.9"/>
<rect x="847.8" y="1286.3" class="st1" width="34.9" height="8"/>
<rect x="847.8" y="1303" class="st1" width="34.9" height="8"/>
<rect x="847.8" y="1319.8" class="st1" width="34.9" height="8"/>
<rect x="897.2" y="1286.3" class="st1" width="34.9" height="8"/>
<rect x="897.2" y="1303" class="st1" width="34.9" height="8"/>
<rect x="897.2" y="1319.8" class="st1" width="34.9" height="8"/>
<rect x="946.6" y="1286.3" class="st1" width="34.9" height="8"/>
<rect x="946.6" y="1303" class="st1" width="34.9" height="8"/>
<rect x="946.6" y="1319.8" class="st1" width="34.9" height="8"/>
<rect x="996.1" y="1286.3" class="st1" width="34.9" height="8"/>
<rect x="996.1" y="1303" class="st1" width="34.9" height="8"/>
<rect x="996.1" y="1319.8" class="st1" width="34.9" height="8"/>
<path class="st0" d="M1125.3,728.8h-21c-3-43,7.9-88,7.9-88s-18.9-11-52.9-26c-2.6,10.7-5,21.7-7.2,33.2l-31.8-6.2
	c-30,219-2,451,14.6,575.2l0,0c1.4,18.8,3.3,37.6,5.6,56.3H833.9v67.5h359.3C1193.3,1340.8,1074.3,1062.8,1125.3,728.8z"/>
<line class="st1" x1="1071.3" y1="651.8" x2="1084.4" y2="651.8"/>
<line class="st1" x1="1069.4" y1="669.3" x2="1082.5" y2="669.3"/>
<line class="st1" x1="1067.5" y1="686.8" x2="1080.6" y2="686.8"/>
<line class="st1" x1="1065.6" y1="704.3" x2="1078.7" y2="704.3"/>
<path class="st1" d="M1811.9,1185.9c-0.2-11.2,8.7-20.5,19.9-20.8s20.5,8.7,20.8,19.9c0,0.3,0,0.6,0,0.9H1811.9z"/>
<polyline class="st1" points="1852.6,1185.9 1852.6,1289.6 1832.3,1289.6 "/>
<polyline class="st1" points="1847.3,1289.6 1847.3,1297.6 1832.3,1297.6 "/>
<polyline class="st1" points="1839.8,1297.6 1839.8,1305.6 1832.3,1305.5 "/>
<polyline class="st1" points="1852.6,1191.2 1873.9,1191.2 1873.9,1305.6 "/>
<line class="st1" x1="1852.6" y1="1289.5" x2="1852.6" y2="1305.5"/>
<line class="st1" x1="1852.6" y1="1297.5" x2="1873.9" y2="1297.5"/>
<path class="st1" d="M1852.6,1214.7c0.2-5.9,5.1-10.5,11-10.3c5.6,0.2,10.2,4.7,10.3,10.3"/>
<path class="st1" d="M1969.1,1241.8c0.3-13.4,11.3-24,24.7-23.7c13,0.3,23.5,10.7,23.7,23.7"/>
<line class="st1" x1="1852.6" y1="1281.5" x2="1873.9" y2="1281.5"/>
<line class="st1" x1="1863.3" y1="1281.5" x2="1863.3" y2="1214.7"/>
<line class="st1" x1="1993.3" y1="1298.7" x2="1993.3" y2="1237.7"/>
<line class="st1" x1="2023.8" y1="1313.9" x2="2060.9" y2="1313.9"/>
<line class="st1" x1="1917.6" y1="1313.9" x2="1954.7" y2="1313.9"/>
<line class="st1" x1="1873.9" y1="1191.2" x2="2060.9" y2="1191.2"/>
<polyline class="st1" points="2060.9,1206.2 1873.9,1206.2 1873.9,1191.2 2060.9,1191.2 "/>
<rect x="1925.6" y="1206.2" class="st1" width="21" height="92.5"/>
<polyline class="st1" points="2060.9,1298.7 2039.9,1298.7 2039.9,1206.2 2060.9,1206.2 "/>
<rect x="1969.1" y="1206.2" class="st1" width="48.4" height="92.5"/>
<line class="st1" x1="1969.1" y1="1305.5" x2="1969.1" y2="1298.7"/>
<line class="st1" x1="2017.5" y1="1305.5" x2="2017.5" y2="1298.7"/>
<path class="st1" d="M1957.8,1298.4c-0.1,3.1,2.3,5.7,5.4,5.9c3.1,0.1,5.7-2.3,5.9-5.4c0-0.2,0-0.3,0-0.5"/>
<path class="st1" d="M1946.6,1298.4c-0.1,3.1,2.3,5.7,5.4,5.9c3.1,0.1,5.7-2.3,5.9-5.4c0-0.2,0-0.3,0-0.5"/>
<path class="st1" d="M1912.7,1297.5c0,3.6,2.9,6.5,6.5,6.5c3.6,0,6.5-2.9,6.5-6.5"/>
<path class="st1" d="M1899.8,1297.5c0,3.6,2.9,6.5,6.5,6.5c3.6,0,6.5-2.9,6.5-6.5"/>
<path class="st1" d="M1886.8,1297.5c-0.1,3.6,2.6,6.6,6.2,6.7c3.6,0.1,6.6-2.6,6.7-6.2c0-0.2,0-0.3,0-0.5"/>
<path class="st1" d="M1873.9,1297.5c0,3.6,2.9,6.5,6.5,6.5c3.6,0,6.5-2.9,6.5-6.5"/>
<path class="st1" d="M2028.7,1298.4c-0.1,3.1,2.3,5.7,5.4,5.9c3.1,0.1,5.7-2.3,5.9-5.4c0-0.2,0-0.3,0-0.5"/>
<path class="st1" d="M2017.5,1298.4c-0.1,3.1,2.3,5.7,5.4,5.9c3.1,0.1,5.7-2.3,5.9-5.4c0-0.2,0-0.3,0-0.5"/>
<line class="st1" x1="1886.8" y1="1289.5" x2="1886.8" y2="1217.6"/>
<line class="st1" x1="1899.8" y1="1289.5" x2="1899.8" y2="1217.6"/>
<line class="st1" x1="1912.7" y1="1289.5" x2="1912.7" y2="1217.6"/>
<line class="st1" x1="1957.8" y1="1289.5" x2="1957.8" y2="1217.6"/>
<line class="st1" x1="2028.7" y1="1289.5" x2="2028.7" y2="1217.6"/>
<path class="st1" d="M1852.7,1183.6c0.1-3.4,3-6,6.4-5.9c3.2,0.1,5.7,2.7,5.9,5.9"/>
<path class="st1" d="M1864.9,1183.6c0.1-3.4,3-6,6.4-5.9c3.2,0.1,5.7,2.7,5.9,5.9"/>
<path class="st1" d="M1877.2,1183.6c0-3.4,2.7-6.1,6.1-6.1s6.1,2.7,6.1,6.1"/>
<path class="st1" d="M1889.4,1183.6c0.1-3.4,3-6,6.4-5.9c3.2,0.1,5.7,2.7,5.9,5.9"/>
<path class="st1" d="M1901.7,1183.6c0.1-3.4,3-6,6.4-5.9c3.2,0.1,5.7,2.7,5.9,5.9"/>
<path class="st1" d="M1913.9,1183.6c0.1-3.4,3-6,6.4-5.9c3.2,0.1,5.7,2.7,5.9,5.9"/>
<path class="st1" d="M1926.2,1183.6c0-3.4,2.7-6.1,6.1-6.1s6.1,2.7,6.1,6.1"/>
<path class="st1" d="M1938.4,1183.6c0-3.4,2.7-6.1,6.1-6.1"/>
<path class="st1" d="M1980.8,1177.5h0.6c3.4,0,6.1,2.7,6.1,6.1"/>
<path class="st1" d="M1987.4,1183.6c0.1-3.4,3-6,6.4-5.9c3.2,0.1,5.7,2.7,5.9,5.9"/>
<path class="st1" d="M1999.7,1183.6c0-3.4,2.7-6.1,6.1-6.1c0,0,0,0,0,0"/>
<line class="st1" x1="1980.8" y1="1150.2" x2="2005.8" y2="1150.2"/>
<line class="st1" x1="1974.1" y1="1142.2" x2="1993.3" y2="1142.2"/>
<line class="st1" x1="1983.7" y1="1130" x2="1993.3" y2="1130"/>
<line class="st1" x1="1984.9" y1="1023.9" x2="1993.3" y2="1023.9"/>
<line class="st1" x1="1988.5" y1="1030.5" x2="1993.3" y2="1030.5"/>
<line class="st1" x1="1984.9" y1="995.5" x2="1993.3" y2="995.5"/>
<line class="st1" x1="1984.9" y1="970.5" x2="1993.3" y2="970.5"/>
<line class="st1" x1="1985.6" y1="954.2" x2="1993.3" y2="954.2"/>
<line class="st1" x1="1993.3" y1="924.7" x2="1993.3" y2="915.2"/>
<line class="st1" x1="2012.4" y1="1142.2" x2="1993.3" y2="1142.2"/>
<line class="st1" x1="2002.9" y1="1130" x2="1993.3" y2="1130"/>
<line class="st1" x1="2001.6" y1="1023.9" x2="1993.3" y2="1023.9"/>
<line class="st1" x1="1998.1" y1="1030.5" x2="1993.3" y2="1030.5"/>
<line class="st1" x1="2001.6" y1="995.5" x2="1993.3" y2="995.5"/>
<line class="st1" x1="2001.6" y1="970.5" x2="1993.3" y2="970.5"/>
<line class="st1" x1="2000.9" y1="954.2" x2="1993.3" y2="954.2"/>
<rect x="1829" y="1150.8" class="st1" width="6.5" height="6.5"/>
<rect x="1841.3" y="1150.8" class="st1" width="6.5" height="6.5"/>
<rect x="1853.5" y="1150.8" class="st1" width="6.5" height="6.5"/>
<rect x="1865.8" y="1150.8" class="st1" width="6.5" height="6.5"/>
<rect x="1878" y="1150.8" class="st1" width="6.5" height="6.5"/>
<rect x="1890.3" y="1150.8" class="st1" width="6.5" height="6.5"/>
<rect x="1902.5" y="1150.8" class="st1" width="6.5" height="6.5"/>
<path class="st1" d="M1838.8,1092.9c0.2,0.7,0.3,1.4,0.3,2.2c0.1,3.8-2.8,7-6.6,7.2c-3.8,0.1-7-2.8-7.2-6.6c0-0.2,0-0.3,0-0.5
	c0-0.7,0.1-1.5,0.3-2.2c-3.4,3.6-3.2,9.3,0.4,12.7c3.6,3.4,9.3,3.2,12.7-0.4C1842.1,1101.8,1842.1,1096.3,1838.8,1092.9
	L1838.8,1092.9z"/>
<line class="st1" x1="1832.3" y1="1108" x2="1832.3" y2="1118.5"/>
<line class="st1" x1="1983.7" y1="1037.2" x2="1993.3" y2="1037.2"/>
<line class="st1" x1="2002.9" y1="1037.2" x2="1993.3" y2="1037.2"/>
<line class="st1" x1="1974.9" y1="1017.2" x2="1993.3" y2="1017.2"/>
<line class="st1" x1="2011.6" y1="1017.2" x2="1993.3" y2="1017.2"/>
<polyline class="st1" points="1811.9,1185.9 1811.9,1289.6 1832.3,1289.6 "/>
<polyline class="st1" points="1817.3,1289.6 1817.3,1297.6 1832.3,1297.6 "/>
<polyline class="st1" points="1824.8,1297.6 1824.8,1305.6 1832.3,1305.5 "/>
<polyline class="st1" points="1811.9,1191.2 1790.6,1191.2 1790.6,1305.6 "/>
<line class="st1" x1="1811.9" y1="1289.5" x2="1811.9" y2="1305.5"/>
<line class="st1" x1="1811.9" y1="1297.5" x2="1790.6" y2="1297.5"/>
<path class="st1" d="M1811.9,1214.7c-0.2-5.9-5.1-10.5-11-10.3c-5.6,0.2-10.2,4.7-10.3,10.3"/>
<path class="st1" d="M1695.5,1241.8c-0.3-13.4-11.3-24-24.7-23.7c-13,0.3-23.5,10.7-23.7,23.7"/>
<line class="st1" x1="1811.9" y1="1281.5" x2="1790.6" y2="1281.5"/>
<line class="st1" x1="1801.3" y1="1281.5" x2="1801.3" y2="1214.7"/>
<line class="st1" x1="1671.3" y1="1298.7" x2="1671.3" y2="1237.7"/>
<line class="st1" x1="1640.7" y1="1313.9" x2="1603.6" y2="1313.9"/>
<line class="st1" x1="1747" y1="1313.9" x2="1709.9" y2="1313.9"/>
<line class="st1" x1="1790.6" y1="1191.2" x2="1603.6" y2="1191.2"/>
<polyline class="st1" points="1603.6,1206.2 1790.6,1206.2 1790.6,1191.2 1603.6,1191.2 "/>
<rect x="1717.9" y="1206.2" class="st1" width="21" height="92.5"/>
<polyline class="st1" points="1603.6,1298.7 1624.6,1298.7 1624.6,1206.2 1603.6,1206.2 "/>
<rect x="1647.1" y="1206.2" class="st1" width="48.4" height="92.5"/>
<line class="st1" x1="1695.5" y1="1305.5" x2="1695.5" y2="1298.7"/>
<line class="st1" x1="1647.1" y1="1305.5" x2="1647.1" y2="1298.7"/>
<path class="st1" d="M1706.7,1298.4c0.1,3.1-2.3,5.7-5.4,5.9c-3.1,0.1-5.7-2.3-5.9-5.4c0-0.2,0-0.3,0-0.5"/>
<path class="st1" d="M1717.9,1298.4c0.1,3.1-2.3,5.7-5.4,5.9c-3.1,0.1-5.7-2.3-5.9-5.4c0-0.2,0-0.3,0-0.5"/>
<path class="st1" d="M1751.9,1297.5c0,3.6-2.9,6.5-6.5,6.5c-3.6,0-6.5-2.9-6.5-6.5"/>
<path class="st1" d="M1764.8,1297.5c0.1,3.6-2.6,6.6-6.2,6.7c-3.6,0.1-6.6-2.6-6.7-6.2c0-0.2,0-0.3,0-0.5"/>
<path class="st1" d="M1777.7,1297.5c0,3.6-2.9,6.5-6.5,6.5c-3.6,0-6.5-2.9-6.5-6.5"/>
<path class="st1" d="M1790.6,1297.5c0,3.6-2.9,6.5-6.5,6.5c-3.6,0-6.5-2.9-6.5-6.5"/>
<path class="st1" d="M1635.8,1298.4c0.1,3.1-2.3,5.7-5.4,5.9c-3.1,0.1-5.7-2.3-5.9-5.4c0-0.2,0-0.3,0-0.5"/>
<path class="st1" d="M1647.1,1298.4c0.1,3.1-2.3,5.7-5.4,5.9c-3.1,0.1-5.7-2.3-5.9-5.4c0-0.2,0-0.3,0-0.5"/>
<line class="st1" x1="1777.7" y1="1289.5" x2="1777.7" y2="1217.6"/>
<line class="st1" x1="1764.8" y1="1289.5" x2="1764.8" y2="1217.6"/>
<line class="st1" x1="1751.8" y1="1289.5" x2="1751.8" y2="1217.6"/>
<line class="st1" x1="1706.7" y1="1289.5" x2="1706.7" y2="1217.6"/>
<line class="st1" x1="1635.8" y1="1289.5" x2="1635.8" y2="1217.6"/>
<path class="st1" d="M1811.9,1183.6c0-3.4-2.7-6.1-6.1-6.1s-6.1,2.7-6.1,6.1"/>
<path class="st1" d="M1799.7,1183.6c-0.1-3.4-3-6-6.4-5.9c-3.2,0.1-5.7,2.7-5.9,5.9"/>
<path class="st1" d="M1787.4,1183.6c-0.1-3.4-3-6-6.4-5.9c-3.2,0.1-5.7,2.7-5.9,5.9"/>
<path class="st1" d="M1775.2,1183.6c0-3.4-2.7-6.1-6.1-6.1s-6.1,2.7-6.1,6.1"/>
<path class="st1" d="M1762.9,1183.6c-0.1-3.4-3-6-6.4-5.9c-3.2,0.1-5.7,2.7-5.9,5.9"/>
<path class="st1" d="M1750.6,1183.6c-0.1-3.4-3-6-6.4-5.9c-3.2,0.1-5.7,2.7-5.9,5.9"/>
<path class="st1" d="M1738.4,1183.6c-0.1-3.4-3-6-6.4-5.9c-3.2,0.1-5.7,2.7-5.9,5.9"/>
<path class="st1" d="M1726.1,1183.6c0-3.4-2.7-6.1-6.1-6.1"/>
<rect x="1816.8" y="1150.8" class="st1" width="6.5" height="6.5"/>
<rect x="1804.5" y="1150.8" class="st1" width="6.5" height="6.5"/>
<rect x="1792.3" y="1150.8" class="st1" width="6.5" height="6.5"/>
<rect x="1780" y="1150.8" class="st1" width="6.5" height="6.5"/>
<rect x="1767.8" y="1150.8" class="st1" width="6.5" height="6.5"/>
<rect x="1755.5" y="1150.8" class="st1" width="6.5" height="6.5"/>
<line class="st1" x1="1832.3" y1="1108" x2="1832.3" y2="1118.5"/>
<path class="st0" d="M2054.8,1177.5c0,3.4-2.7,6.1-6.1,6.1c-3.4,0-6.1-2.7-6.1-6.1l0,0c-0.1,3.4-3,6-6.4,5.9
	c-3.2-0.1-5.7-2.7-5.9-5.9c-0.1,3.4-3,6-6.4,5.9c-3.2-0.1-5.7-2.7-5.9-5.9c-0.1,3.4-3,6-6.4,5.9c-3.2-0.1-5.7-2.7-5.9-5.9v-27.3
	l6.6-8V1130h-9.6v-92.8h2.9v-6.7h2.9v-6.7h2.9v-28.3h-10v-25l4.2-7.8v-8.5h-4.8v-13.5c0.2-4.2-3.2-7.8-7.4-7.9s-7.8,3.2-7.9,7.4
	c0,0.2,0,0.4,0,0.6v13.5h-4.8v8.5l4.2,7.8v25h-10v28.3h2.9v6.7h2.9v6.7h2.9v92.8h-9.6v12.2l6.6,8v27.3c0.2,3.2-2.3,6-5.5,6.2
	s-6-2.3-6.2-5.5c0-0.2,0-0.5,0-0.7c0,3.4-2.7,6.1-6.1,6.1s-6.1-2.7-6.1-6.1c-0.1,3.4-3,6-6.4,5.9c-3.2-0.1-5.7-2.7-5.9-5.9
	c-36.8-52.9-92.8-58.9-112.3-58.9s-75.5,6-112.3,58.9c-0.1,3.4-3,6-6.4,5.9c-3.2-0.1-5.7-2.7-5.9-5.9c0,3.4-2.7,6.1-6.1,6.1
	s-6.1-2.7-6.1-6.1c0.2,3.2-2.3,6-5.5,6.2s-6-2.3-6.2-5.5c0-0.2,0-0.5,0-0.7h-0.6c-0.1,3.4-3,6-6.4,5.9c-3.2-0.1-5.7-2.7-5.9-5.9
	c-0.1,3.4-3,6-6.4,5.9c-3.2-0.1-5.7-2.7-5.9-5.9c0,3.4-2.7,6.1-6.1,6.1s-6.1-2.7-6.1-6.1c-0.1,3.4-3,6-6.4,5.9
	c-3.2-0.1-5.7-2.7-5.9-5.9c-0.1,3.4-3,6-6.4,5.9c-3.2-0.1-5.7-2.7-5.9-5.9c-0.1,3.4-3,6-6.4,5.9c-3.2-0.1-5.7-2.7-5.9-5.9
	c-3.4,0-6.1,2.7-6.1,6.1c0,0,0,0,0,0v157.2h37.1v-26.9h69.2v26.9h37.1v-26.9h170.6v26.9h37.1v-26.9h69.2v26.9h37.1v-157.2
	C2060.9,1180.2,2058.2,1177.5,2054.8,1177.5L2054.8,1177.5z"/>
<line class="st1" x1="1482.8" y1="1328.8" x2="1494.2" y2="1328.8"/>
<line class="st1" x1="1502.8" y1="1328.8" x2="1494.3" y2="1328.8"/>
<polygon class="st0" points="1613.6,983.2 1613.6,923.5 1497.7,923.5 1497.5,907.3 1494.3,907.3 1494.2,907.3 1488,907.3 
	1482.8,1328.8 1458.3,1332 1458.3,1340.8 1494.2,1340.8 1494.3,1340.8 1527.2,1340.8 1527.2,1332 1502.8,1328.8 1498.4,983.2 
	1498.6,983.2 "/>
<line class="st1" x1="1497.7" y1="923.5" x2="1498.4" y2="983.2"/>
<path class="st0" d="M3367.2,1198.6c-15.2,0-27.5,12.3-27.5,27.5c0,0,0,0,0,0h55.1C3394.7,1210.9,3382.4,1198.6,3367.2,1198.6
	C3367.2,1198.6,3367.2,1198.6,3367.2,1198.6z"/>
<path class="st0" d="M3422.3,1198.6c-15.2,0-27.5,12.3-27.5,27.5c0,0,0,0,0,0h55.1C3449.8,1210.9,3437.5,1198.6,3422.3,1198.6
	C3422.3,1198.6,3422.3,1198.6,3422.3,1198.6z"/>
<path class="st0" d="M3363,1238.4c-6.2,11.3-2,25.5,9.4,31.7c0,0,0,0,0,0l22.3-41.1C3383.4,1222.8,3369.2,1227,3363,1238.4
	C3363,1238.4,3363,1238.4,3363,1238.4z"/>
<path class="st0" d="M3426.4,1238.4c6.2,11.4,2,25.5-9.4,31.7l-22.3-41.1C3406.1,1222.8,3420.3,1227,3426.4,1238.4
	C3426.4,1238.4,3426.4,1238.4,3426.4,1238.4z"/>
<line class="st1" x1="3394.7" y1="1340.8" x2="3394.7" y2="1227.5"/>
<path class="st0" d="M1576.1,1031.1c-15.2,0-27.5,12.3-27.5,27.5c0,0,0,0,0,0h55.1C1603.6,1043.4,1591.3,1031.1,1576.1,1031.1
	C1576.1,1031.1,1576.1,1031.1,1576.1,1031.1z"/>
<path class="st0" d="M1631.1,1031.1c-15.2,0-27.5,12.3-27.5,27.5c0,0,0,0,0,0h55.1C1658.7,1043.4,1646.4,1031.1,1631.1,1031.1
	C1631.1,1031.1,1631.1,1031.1,1631.1,1031.1z"/>
<path class="st0" d="M1571.9,1070.9c-6.2,11.3-2,25.5,9.4,31.7c0,0,0,0,0,0l22.3-41.1C1592.3,1055.3,1578.1,1059.5,1571.9,1070.9
	C1571.9,1070.9,1571.9,1070.9,1571.9,1070.9z"/>
<path class="st0" d="M1635.3,1070.9c6.2,11.3,2,25.5-9.4,31.7l-22.3-41.1C1615,1055.3,1629.2,1059.5,1635.3,1070.9
	C1635.3,1070.9,1635.3,1070.9,1635.3,1070.9z"/>
<line class="st1" x1="1603.6" y1="1340.8" x2="1603.6" y2="1060"/>
<path class="st0" d="M2173.2,1141.2c-15.2,0-27.5,12.3-27.5,27.5c0,0,0,0,0,0h55.1C2200.7,1153.5,2188.4,1141.2,2173.2,1141.2z"/>
<path class="st0" d="M2228.3,1141.2c-15.2,0-27.5,12.3-27.5,27.5c0,0,0,0,0,0h55.1C2255.8,1153.5,2243.5,1141.2,2228.3,1141.2
	C2228.3,1141.2,2228.3,1141.2,2228.3,1141.2z"/>
<path class="st0" d="M2169,1181c-6.2,11.3-2,25.5,9.4,31.7c0,0,0,0,0,0l22.3-41.1C2189.4,1165.4,2175.2,1169.6,2169,1181
	C2169,1181,2169,1181,2169,1181z"/>
<path class="st0" d="M2232.4,1181c6.2,11.3,2,25.5-9.4,31.7l-22.3-41.1C2212.1,1165.4,2226.3,1169.6,2232.4,1181
	C2232.4,1181,2232.4,1181,2232.4,1181z"/>
<line class="st1" x1="2200.7" y1="1340.8" x2="2200.7" y2="1170.1"/>
<path class="st0" d="M1172.8,951.5c-15.2,0-27.5,12.3-27.5,27.5h55.1C1200.3,963.8,1188,951.5,1172.8,951.5z"/>
<path class="st0" d="M1227.8,951.5c-15.2,0-27.5,12.3-27.5,27.5h55.1C1255.3,963.8,1243,951.5,1227.8,951.5z"/>
<path class="st0" d="M1168.6,991.3c-6.2,11.3-2,25.5,9.4,31.7c0,0,0,0,0,0l22.3-41.1C1189,975.7,1174.8,979.9,1168.6,991.3
	C1168.6,991.3,1168.6,991.3,1168.6,991.3z"/>
<path class="st0" d="M1232,991.3c6.2,11.4,2,25.6-9.4,31.7l-22.3-41.1C1211.6,975.7,1225.8,979.9,1232,991.3
	C1232,991.3,1232,991.3,1232,991.3z"/>
<line class="st1" x1="1200.3" y1="1340.8" x2="1200.3" y2="980.4"/>
</svg>
