<?xml version="1.0" encoding="utf-8"?>
<!-- Generator: Adobe Illustrator 23.0.1, SVG Export Plug-In . SVG Version: 6.00 Build 0)  -->
<svg version="1.1" id="Layer_1" xmlns="http://www.w3.org/2000/svg" xmlns:xlink="http://www.w3.org/1999/xlink" x="0px" y="0px"
	 viewBox="0 0 81.1 62" style="enable-background:new 0 0 81.1 62;" xml:space="preserve">
<style type="text/css">
	.st0{fill:#99999A;}
	.st1{fill:#1A9F82;}
</style>
<title>Arabic Logo</title>
<g id="XMLID_542_">
	<g id="XMLID_548_">
		<g>
			<path class="st0" d="M14.9,51.5h0.7c0.1,0,0.2,0.1,0.3,0.2l1,3.2h-0.8L15.9,54h-1.2l-0.3,0.9h-0.8l1-3.2
				C14.7,51.6,14.8,51.5,14.9,51.5z M15.3,52.1h-0.1c0,0.2-0.1,0.3-0.1,0.3l-0.3,1.1h0.9l-0.3-1.1C15.4,52.3,15.4,52.2,15.3,52.1z"
				/>
			<path class="st0" d="M19.6,54.9H19l-0.1-0.4C18.7,54.8,18.4,55,18,55c-0.3,0-0.5-0.1-0.7-0.3c-0.1-0.2-0.2-0.5-0.2-1
				c0-0.5,0.1-0.8,0.2-1c0.2-0.2,0.4-0.3,0.7-0.3c0.3,0,0.6,0.1,0.8,0.2c0-0.2,0-0.4,0-0.5v-0.7h0.7V54.9z M18.3,52.9
				c-0.2,0-0.3,0-0.3,0.1c-0.1,0.1-0.1,0.3-0.1,0.6c0,0.3,0,0.5,0.1,0.6c0.1,0.1,0.2,0.1,0.3,0.1c0.1,0,0.2,0,0.3,0
				c0.1,0,0.2-0.1,0.3-0.2V53C18.6,53,18.4,52.9,18.3,52.9z"/>
			<path class="st0" d="M22.6,52.5l-0.8,2.3c0,0.1-0.1,0.2-0.2,0.2h-0.6c-0.1,0-0.2-0.1-0.2-0.2l-0.8-2.3h0.8l0.4,1.5
				c0,0.1,0.1,0.3,0.1,0.4h0.1l0.1-0.4l0.4-1.5H22.6z"/>
			<path class="st0" d="M24.2,52.4c0.3,0,0.6,0.1,0.7,0.2c0.2,0.1,0.2,0.4,0.2,0.7v1.6h-0.6l-0.1-0.4C24.3,54.8,24,55,23.6,55
				c-0.2,0-0.4-0.1-0.6-0.2c-0.1-0.1-0.2-0.3-0.2-0.5V54c0-0.2,0.1-0.3,0.2-0.5c0.1-0.1,0.3-0.2,0.6-0.2h0.9v-0.1
				c0-0.1,0-0.2-0.1-0.3c-0.1,0-0.2-0.1-0.3-0.1c-0.3,0-0.6,0-1,0L23,52.5C23.4,52.4,23.9,52.4,24.2,52.4z M24.5,53.9h-0.7
				c-0.2,0-0.2,0.1-0.2,0.2v0.1c0,0.2,0.1,0.3,0.3,0.3c0.2,0,0.4-0.1,0.6-0.2V53.9z"/>
			<path class="st0" d="M27.5,52.4c0.2,0,0.4,0.1,0.5,0.2c0.1,0.1,0.2,0.3,0.2,0.5v1.8h-0.7v-1.6c0-0.1,0-0.2-0.1-0.2
				c0,0-0.1-0.1-0.2-0.1c-0.1,0-0.4,0.1-0.7,0.2v1.7h-0.7v-2.5h0.6l0.1,0.4C26.8,52.5,27.2,52.4,27.5,52.4z"/>
			<path class="st0" d="M29.9,52.4c0.4,0,0.7,0.1,0.9,0.2L30.8,53c-0.4,0-0.6,0-0.7,0c-0.2,0-0.4,0-0.5,0.1
				c-0.1,0.1-0.1,0.3-0.1,0.5s0,0.5,0.1,0.5c0.1,0.1,0.2,0.1,0.5,0.1c0.3,0,0.5,0,0.8,0l0.1,0.5c-0.3,0.1-0.6,0.2-1,0.2
				c-0.4,0-0.8-0.1-1-0.3s-0.3-0.5-0.3-1c0-0.5,0.1-0.8,0.3-1C29.2,52.5,29.5,52.4,29.9,52.4z"/>
			<path class="st0" d="M32.5,52.4c0.4,0,0.7,0.1,0.9,0.2s0.3,0.4,0.3,0.6c0,0.2-0.1,0.4-0.2,0.5c-0.1,0.1-0.3,0.2-0.6,0.2H32
				c0,0.2,0.1,0.3,0.2,0.4c0.1,0.1,0.2,0.1,0.4,0.1c0.3,0,0.6,0,0.9-0.1l0.1,0.5C33.3,54.9,33,55,32.5,55c-0.5,0-0.8-0.1-1-0.3
				c-0.2-0.2-0.3-0.5-0.3-1c0-0.5,0.1-0.8,0.3-1C31.7,52.5,32,52.4,32.5,52.4z M32.5,52.9c-0.2,0-0.3,0-0.4,0.1
				C32,53.1,32,53.3,32,53.5h0.7c0.1,0,0.2,0,0.2-0.1c0,0,0-0.1,0-0.2c0-0.1,0-0.2-0.1-0.2S32.7,52.9,32.5,52.9z"/>
			<path class="st0" d="M36.5,54.9h-0.6l-0.1-0.4c-0.2,0.3-0.5,0.4-0.9,0.4c-0.3,0-0.5-0.1-0.7-0.3c-0.1-0.2-0.2-0.5-0.2-1
				c0-0.5,0.1-0.8,0.2-1c0.2-0.2,0.4-0.3,0.7-0.3c0.3,0,0.6,0.1,0.8,0.2c0-0.2,0-0.4,0-0.5v-0.7h0.7V54.9z M35.2,52.9
				c-0.2,0-0.3,0-0.3,0.1c-0.1,0.1-0.1,0.3-0.1,0.6c0,0.3,0,0.5,0.1,0.6c0.1,0.1,0.2,0.1,0.3,0.1c0.1,0,0.2,0,0.3,0
				c0.1,0,0.2-0.1,0.3-0.2V53C35.5,53,35.3,52.9,35.2,52.9z"/>
			<path class="st0" d="M39.3,51.4c0.4,0,0.8,0,1.1,0.1l0,0.5c-0.3,0-0.7,0-1.1,0c-0.2,0-0.3,0-0.4,0.1s-0.1,0.1-0.1,0.3
				c0,0.1,0,0.2,0.1,0.2c0,0,0.1,0.1,0.3,0.1l0.7,0.2c0.3,0.1,0.5,0.2,0.6,0.4c0.1,0.2,0.2,0.4,0.2,0.6c0,0.4-0.1,0.6-0.3,0.8
				c-0.2,0.1-0.5,0.2-1,0.2c-0.4,0-0.8,0-1.2-0.1l0-0.6c0.7,0,1.1,0,1.1,0c0.2,0,0.3,0,0.4-0.1c0.1,0,0.1-0.1,0.1-0.3
				c0-0.1,0-0.2-0.1-0.2s-0.1-0.1-0.3-0.1l-0.7-0.2c-0.3-0.1-0.4-0.2-0.5-0.4c-0.1-0.2-0.2-0.4-0.2-0.6c0-0.4,0.1-0.6,0.3-0.8
				C38.6,51.5,38.9,51.4,39.3,51.4z"/>
			<path class="st0" d="M43.5,52.5L42.7,55c0,0.1-0.1,0.3-0.2,0.4c-0.1,0.1-0.2,0.2-0.3,0.3s-0.2,0.2-0.4,0.2c-0.2,0-0.3,0.1-0.5,0
				l-0.1-0.4c0.2-0.1,0.4-0.1,0.5-0.2c0.1-0.1,0.2-0.2,0.3-0.3l0,0h-0.1c-0.1,0-0.2-0.1-0.2-0.2l-0.8-2.3h0.8l0.5,1.6
				c0,0.1,0,0.2,0.1,0.4h0.1c0.1-0.2,0.1-0.3,0.1-0.4l0.5-1.6H43.5z"/>
			<path class="st0" d="M44.8,52.4c0.4,0,0.8,0,1.1,0.1l0,0.5c-0.4,0-0.7,0-0.9,0c-0.2,0-0.3,0-0.4,0c-0.1,0-0.1,0.1-0.1,0.1
				c0,0,0,0,0,0c0,0,0,0,0,0c0,0,0,0,0,0s0,0,0,0c0,0,0,0,0,0c0,0,0,0,0,0c0,0,0,0,0.1,0c0,0,0,0,0.1,0c0,0,0.1,0,0.1,0l0.6,0.2
				c0.2,0.1,0.4,0.1,0.5,0.2C46,53.9,46,54,46,54.2c0,0.3-0.1,0.5-0.3,0.6S45.3,55,44.9,55c-0.4,0-0.8,0-1.1-0.1l0-0.5
				c0.1,0,0.4,0,0.9,0c0.3,0,0.4,0,0.5,0c0.1,0,0.1-0.1,0.1-0.2c0-0.1,0-0.1-0.1-0.2c0,0-0.1,0-0.2-0.1l-0.6-0.2
				c-0.2-0.1-0.4-0.2-0.5-0.3c-0.1-0.1-0.1-0.3-0.1-0.5c0-0.3,0.1-0.4,0.2-0.5C44.2,52.4,44.4,52.4,44.8,52.4z"/>
			<path class="st0" d="M47.5,52.5h0.7V53h-0.7v1.2c0,0.1,0,0.2,0.1,0.2c0,0,0.1,0.1,0.2,0.1h0.3l0.1,0.5C48,55,47.7,55,47.4,55
				c-0.2,0-0.4-0.1-0.5-0.2c-0.1-0.1-0.2-0.3-0.2-0.5V53h-0.4v-0.5l0.4,0v-0.7h0.7V52.5z"/>
			<path class="st0" d="M49.7,52.4c0.4,0,0.7,0.1,0.9,0.2s0.3,0.4,0.3,0.6c0,0.2-0.1,0.4-0.2,0.5c-0.1,0.1-0.3,0.2-0.6,0.2h-0.9
				c0,0.2,0.1,0.3,0.2,0.4s0.2,0.1,0.4,0.1c0.3,0,0.6,0,0.9-0.1l0.1,0.5c-0.3,0.1-0.6,0.2-1.1,0.2s-0.8-0.1-1-0.3
				c-0.2-0.2-0.3-0.5-0.3-1c0-0.5,0.1-0.8,0.3-1C48.9,52.5,49.3,52.4,49.7,52.4z M49.7,52.9c-0.2,0-0.3,0-0.4,0.1
				c-0.1,0.1-0.1,0.2-0.1,0.5h0.7c0.1,0,0.2,0,0.2-0.1s0-0.1,0-0.2c0-0.1,0-0.2-0.1-0.2S49.9,52.9,49.7,52.9z"/>
			<path class="st0" d="M54.5,52.4c0.2,0,0.4,0.1,0.5,0.2s0.2,0.3,0.2,0.5v1.8h-0.7v-1.6c0-0.1,0-0.2-0.1-0.2c0,0-0.1-0.1-0.2-0.1
				c-0.1,0-0.3,0.1-0.5,0.2v1.7h-0.7v-1.6c0-0.1,0-0.2-0.1-0.2c0,0-0.1-0.1-0.2-0.1c-0.1,0-0.2,0-0.2,0c-0.1,0-0.2,0.1-0.3,0.2v1.7
				h-0.7v-2.5H52l0,0.4c0.3-0.3,0.6-0.4,0.9-0.4c0.3,0,0.5,0.1,0.6,0.4C53.9,52.5,54.2,52.4,54.5,52.4z"/>
			<path class="st0" d="M56.7,52.4c0.4,0,0.8,0,1.1,0.1l0,0.5c-0.4,0-0.7,0-0.9,0c-0.2,0-0.3,0-0.4,0c-0.1,0-0.1,0.1-0.1,0.1
				c0,0,0,0,0,0c0,0,0,0,0,0c0,0,0,0,0,0s0,0,0,0c0,0,0,0,0,0c0,0,0,0,0,0c0,0,0,0,0.1,0c0,0,0,0,0.1,0c0,0,0.1,0,0.1,0l0.6,0.2
				c0.2,0.1,0.4,0.1,0.5,0.2c0.1,0.1,0.1,0.3,0.1,0.5c0,0.3-0.1,0.5-0.3,0.6S57.2,55,56.8,55c-0.4,0-0.8,0-1.1-0.1l0-0.5
				c0.1,0,0.4,0,0.9,0c0.3,0,0.4,0,0.5,0c0.1,0,0.1-0.1,0.1-0.2c0-0.1,0-0.1-0.1-0.2c0,0-0.1,0-0.2-0.1l-0.6-0.2
				c-0.2-0.1-0.4-0.2-0.5-0.3c-0.1-0.1-0.1-0.3-0.1-0.5c0-0.3,0.1-0.4,0.2-0.5C56,52.4,56.3,52.4,56.7,52.4z"/>
		</g>
	</g>
	<path id="XMLID_547_" class="st0" d="M80.1,34c-0.6-1.1-1.5-2.1-2.5-3.1c-1.1-0.9-2.2-1.8-3.6-2.6c-1.3-0.8-2.7-1.6-4.1-2.3
		c-1.4-0.7-2.7-1.5-4.1-2.2c-1.3-0.7-2.5-1.4-3.6-2.2c-1.1-0.8-1.9-1.6-2.5-2.4c-0.6-0.9-0.9-1.8-0.9-2.8c0-0.7,0.2-1.5,0.5-2.2
		c0.3-0.7,0.8-1.3,1.4-1.9c0.6-0.6,1.4-1,2.3-1.4c0.9-0.3,2-0.5,3.3-0.5c1.4,0,2.6,0.2,3.8,0.6c1.1,0.4,2.1,0.9,2.9,1.6
		c0.9,0.7,1.6,1.6,2.2,2.6c0.6,1,1.1,2.1,1.5,3.3l3.4-1.6c-1-2.9-2.5-5.2-4.7-6.8c-2.2-1.6-5.1-2.3-8.8-2.3c-2.1,0-3.9,0.3-5.5,0.8
		c-1.6,0.5-2.9,1.3-4,2.2c-1.1,1-1.9,2.1-2.5,3.4c-0.6,1.3-0.8,2.7-0.8,4.2c0,1.5,0.3,2.8,0.9,4c0.6,1.2,1.4,2.2,2.4,3.1
		c1,0.9,2.2,1.8,3.5,2.5c1.3,0.8,2.6,1.5,4,2.2c1.4,0.7,2.7,1.4,4,2.1c1.3,0.7,2.4,1.4,3.5,2.2c1,0.8,1.8,1.7,2.4,2.6
		c0.6,0.9,0.9,2,0.9,3.2c0,1-0.2,1.9-0.7,2.6c-0.5,0.8-1.1,1.4-1.8,1.9c-0.7,0.5-1.6,0.9-2.5,1.2c-1,0.3-1.9,0.4-2.9,0.4
		c-2.6,0-4.8-0.7-6.8-2.1c-0.2-0.2-0.5-0.4-0.7-0.6l2,4.6c1.5,0.4,3.1,0.6,5,0.6c2.3,0,4.4-0.3,6.1-0.9c1.8-0.6,3.2-1.4,4.4-2.4
		c1.2-1,2.1-2.2,2.7-3.6c0.6-1.4,0.9-2.8,0.9-4.4C81.1,36.4,80.7,35.1,80.1,34z"/>
	<path id="XMLID_545_" class="st0" d="M34.5,7.9v2.5h-14V49H14V10.3H0V7.9H34.5z"/>
	<path id="XMLID_543_" class="st1" d="M20.4,48.9L40.8,6.6L44.1,0l21.2,62L38.5,21.2"/>
</g>
</svg>
