<?xml version="1.0" encoding="utf-8"?>
<!-- Generator: Adobe Illustrator 23.0.1, SVG Export Plug-In . SVG Version: 6.00 Build 0)  -->
<svg version="1.1" id="Isolation_Mode" xmlns="http://www.w3.org/2000/svg" xmlns:xlink="http://www.w3.org/1999/xlink" x="0px"
	 y="0px" viewBox="0 0 45.45 19.62" enable-background="new 0 0 45.45 19.62" xml:space="preserve">
<g>
	<polygon fill="#010101" points="19.22,4.35 23.07,4.35 23.07,5.11 21.66,5.11 21.66,9.05 20.67,9.05 20.67,5.11 19.22,5.11 	"/>
	<path fill="#010101" d="M25.06,5.11h1.27c0.45,0,0.72,0.18,0.72,0.59c0,0.41-0.27,0.63-0.72,0.63h-1.27V5.11z M25.06,7.19h1.09
		c0,0,0.63,1.4,0.72,1.85h1.27L27.18,7.1c0.68-0.18,0.86-0.99,0.86-1.63c0-0.95-1.08-1.18-1.99-1.13h-2.04v4.7h1.04V7.19z"/>
	<polygon fill="#010101" points="29.49,4.35 32.88,4.35 32.88,5.11 30.53,5.11 30.53,6.2 32.7,6.2 32.7,7.01 30.53,7.01 30.53,8.24 
		32.97,8.24 32.97,9.05 29.49,9.05 	"/>
	<polygon fill="#010101" points="37.04,9.05 35.32,5.88 35.32,5.93 35.32,9.05 34.33,9.05 34.33,4.35 35.59,4.35 37.36,7.38 
		37.36,4.35 38.31,4.35 38.31,9.05 	"/>
	<path fill="#010101" d="M40.8,5.11h0.54c1.18,0,1.36,0.81,1.36,1.54c0,0.77-0.18,1.58-1.36,1.58H40.8V5.11z M39.76,9.05h1.63
		c1.49,0,2.4-0.72,2.4-2.4c0-1.58-0.9-2.35-2.4-2.31h-1.63V9.05z"/>
	<polygon fill="#010101" points="22.43,12.89 21.89,12.89 21.89,10.81 21.39,12.89 20.9,12.89 20.4,10.81 20.35,12.89 19.86,12.89 
		19.86,10.27 20.67,10.27 21.12,12.08 21.62,10.27 22.43,10.27 	"/>
	<rect x="25.87" y="10.27" fill="#010101" width="0.54" height="2.62"/>
	<path fill="#010101" d="M37.22,11.26c-0.05,0.04-0.09,0.09-0.14,0.14c-0.09,0-0.09,0-0.18,0.05h-0.27h-0.04h-0.41v-0.68h0.45H37
		c0.05,0,0.09,0.05,0.14,0.05l0.09,0.09c0.04,0.09,0.04,0.14,0.04,0.18C37.27,11.13,37.27,11.17,37.22,11.26 M37.27,11.85
		c0,0,0.14-0.04,0.18-0.04c0.14-0.05,0.23-0.18,0.27-0.27c0.09-0.09,0.09-0.32,0.09-0.45c0-0.18,0-0.32-0.09-0.45
		c-0.09-0.09-0.18-0.18-0.36-0.27h-0.18c-0.09-0.04-0.23-0.04-0.41-0.04h-1.09v2.62h0.5V11.9h0.54l0.54,1.04h0.63L37.27,11.85z"/>
	<path fill="#010101" d="M42.42,12.35c-0.14,0.09-0.27,0.13-0.5,0.13c-0.14,0-0.27-0.04-0.36-0.09c-0.09-0.05-0.18-0.14-0.23-0.23
		c-0.05-0.09-0.05-0.18-0.09-0.23c0-0.09-0.04-0.23-0.04-0.36c0-0.23,0.09-0.45,0.14-0.59c0.14-0.18,0.32-0.32,0.59-0.32
		c0.32,0,0.5,0.14,0.63,0.32c0.04,0.18,0.13,0.36,0.13,0.59C42.7,11.9,42.61,12.17,42.42,12.35 M42.88,10.63
		c-0.18-0.27-0.54-0.41-0.95-0.41c-0.41,0-0.72,0.13-0.9,0.36c-0.23,0.23-0.36,0.59-0.36,1.04c0,0.36,0.09,0.63,0.27,0.9
		c0.23,0.23,0.54,0.41,1.04,0.41c0.41,0,0.72-0.14,0.95-0.41c0.23-0.27,0.32-0.54,0.32-0.95C43.24,11.17,43.1,10.86,42.88,10.63"/>
	<path fill="#010101" d="M31.84,11.17c-0.05-0.18-0.14-0.45-0.59-0.45c-0.27,0-0.63,0.18-0.63,0.9c0,0.45,0.18,0.9,0.63,0.9
		c0.32,0,0.5-0.18,0.59-0.5h0.54c-0.09,0.59-0.45,0.95-1.13,0.95c-0.68,0-1.18-0.45-1.18-1.36c0-0.9,0.5-1.36,1.18-1.36
		c0.77,0,1.13,0.54,1.13,0.9H31.84z"/>
	<polygon fill="#010101" points="44.19,9.09 43.87,9.09 43.87,10.09 43.69,10.09 43.69,9.09 43.33,9.09 43.33,8.96 44.19,8.96 	"/>
	<polygon fill="#010101" points="45.45,10.09 45.32,10.09 45.32,9.14 45,10.09 44.82,10.09 44.5,9.14 44.5,10.09 44.37,10.09 
		44.37,8.96 44.6,8.96 44.87,9.77 44.91,9.86 44.91,9.95 45,9.77 45.27,8.96 45.45,8.96 	"/>
	<g opacity="0.7" enable-background="new    ">
		<g>
			<defs>
				<rect id="SVGID_1_" x="0.9" y="14.78" width="15.51" height="4.83"/>
			</defs>
			<clipPath id="SVGID_2_">
				<use xlink:href="#SVGID_1_"  overflow="visible"/>
			</clipPath>
			<g clip-path="url(#SVGID_2_)">
				<defs>
					<path id="SVGID_3_" d="M8.64,14.78c4.29,0,7.78,1.08,7.78,2.41c0,1.34-3.48,2.42-7.78,2.42c-4.25,0-7.74-1.09-7.74-2.42
						C0.9,15.87,4.39,14.78,8.64,14.78 M5.85,16.13h9.8H5.85z"/>
				</defs>
				<clipPath id="SVGID_4_">
					<use xlink:href="#SVGID_3_"  overflow="visible"/>
				</clipPath>
				<defs>
					<filter id="Adobe_OpacityMaskFilter" filterUnits="userSpaceOnUse" x="0.87" y="14.68" width="15.58" height="5.04">
						<feColorMatrix  type="matrix" values="1 0 0 0 0  0 1 0 0 0  0 0 1 0 0  0 0 0 1 0"/>
					</filter>
				</defs>
				<mask maskUnits="userSpaceOnUse" x="0.87" y="14.68" width="15.58" height="5.04" id="SVGID_5_">
					<g filter="url(#Adobe_OpacityMaskFilter)">
						
							<radialGradient id="SVGID_6_" cx="-376.45" cy="53.378" r="1" gradientTransform="matrix(7.6925 -0.0517 0.0165 2.4175 2903.6667 -131.1622)" gradientUnits="userSpaceOnUse">
							<stop  offset="0" style="stop-color:#C5C5C5"/>
							<stop  offset="1" style="stop-color:#000000"/>
						</radialGradient>
						<polygon clip-path="url(#SVGID_4_)" fill="url(#SVGID_6_)" points="0.9,19.72 16.45,19.62 16.42,14.68 0.87,14.78 						"/>
					</g>
				</mask>
				
					<radialGradient id="SVGID_7_" cx="-376.45" cy="53.378" r="1" gradientTransform="matrix(7.6925 -0.0517 0.0165 2.4175 2903.6667 -131.1622)" gradientUnits="userSpaceOnUse">
					<stop  offset="0" style="stop-color:#010101"/>
					<stop  offset="1" style="stop-color:#010101"/>
				</radialGradient>
				<polygon clip-path="url(#SVGID_4_)" mask="url(#SVGID_5_)" fill="url(#SVGID_7_)" points="0.9,19.72 16.45,19.62 16.42,14.68 
					0.87,14.78 				"/>
			</g>
		</g>
	</g>
	<g>
		<defs>
			<path id="SVGID_8_" d="M0,8.64c0,4.79,3.89,8.68,8.64,8.68c4.79,0,8.68-3.89,8.68-8.68c0-1.36-0.32-2.65-0.89-3.8h0.03h-0.03
				C15.02,1.98,12.06,0,8.64,0C3.89,0,0,3.89,0,8.64"/>
		</defs>
		<clipPath id="SVGID_9_">
			<use xlink:href="#SVGID_8_"  overflow="visible"/>
		</clipPath>
		
			<linearGradient id="SVGID_10_" gradientUnits="userSpaceOnUse" x1="-376.45" y1="53.378" x2="-375.45" y2="53.378" gradientTransform="matrix(0 17.3224 -17.3224 0 933.2967 6521.0215)">
			<stop  offset="0" style="stop-color:#E51E25"/>
			<stop  offset="1" style="stop-color:#F37A7C"/>
		</linearGradient>
		<rect clip-path="url(#SVGID_9_)" fill="url(#SVGID_10_)" width="17.32" height="17.32"/>
	</g>
	<g>
		<defs>
			<path id="SVGID_11_" d="M2.02,5.8c0,3.02,2.98,5.46,6.62,5.46c3.68,0,6.66-2.45,6.66-5.46c0-0.85-0.25-1.67-0.68-2.39h0.02h-0.02
				c-1.09-1.8-3.35-3.05-5.98-3.05C5,0.37,2.02,2.81,2.02,5.8"/>
		</defs>
		<clipPath id="SVGID_12_">
			<use xlink:href="#SVGID_11_"  overflow="visible"/>
		</clipPath>
		<defs>
			<filter id="Adobe_OpacityMaskFilter_1_" filterUnits="userSpaceOnUse" x="1.3" y="-0.51" width="14.72" height="12.65">
				<feColorMatrix  type="matrix" values="1 0 0 0 0  0 1 0 0 0  0 0 1 0 0  0 0 0 1 0"/>
			</filter>
		</defs>
		<mask maskUnits="userSpaceOnUse" x="1.3" y="-0.51" width="14.72" height="12.65" id="SVGID_13_">
			<g filter="url(#Adobe_OpacityMaskFilter_1_)">
				
					<linearGradient id="SVGID_14_" gradientUnits="userSpaceOnUse" x1="-376.45" y1="53.3779" x2="-375.45" y2="53.3779" gradientTransform="matrix(-0.7498 11.2835 -11.2835 -0.7498 329.1708 4286.0957)">
					<stop  offset="0" style="stop-color:#FFFFFF"/>
					<stop  offset="1" style="stop-color:#000000"/>
				</linearGradient>
				<polygon clip-path="url(#SVGID_12_)" fill="url(#SVGID_14_)" points="2.08,-0.51 1.3,11.22 15.24,12.14 16.02,0.41 				"/>
			</g>
		</mask>
		
			<linearGradient id="SVGID_15_" gradientUnits="userSpaceOnUse" x1="-376.45" y1="53.3779" x2="-375.45" y2="53.3779" gradientTransform="matrix(-0.7498 11.2835 -11.2835 -0.7498 329.1708 4286.0957)">
			<stop  offset="0" style="stop-color:#FFFFFF"/>
			<stop  offset="1" style="stop-color:#FFFFFF"/>
		</linearGradient>
		<polygon clip-path="url(#SVGID_12_)" mask="url(#SVGID_13_)" fill="url(#SVGID_15_)" points="2.08,-0.51 1.3,11.22 15.24,12.14 
			16.02,0.41 		"/>
	</g>
	<g>
		<defs>
			<path id="SVGID_16_" d="M14.62,13.93h0.02H14.62z M2.02,11.54c0,2.99,2.98,5.43,6.62,5.43c2.62,0,4.89-1.24,5.98-3.04H6.25h8.37
				c0.44-0.72,0.68-1.53,0.68-2.39c0-3.02-2.98-5.46-6.66-5.46C5,6.08,2.02,8.53,2.02,11.54"/>
		</defs>
		<clipPath id="SVGID_17_">
			<use xlink:href="#SVGID_16_"  overflow="visible"/>
		</clipPath>
		<defs>
			<filter id="Adobe_OpacityMaskFilter_2_" filterUnits="userSpaceOnUse" x="1.99" y="6.04" width="13.35" height="10.98">
				<feColorMatrix  type="matrix" values="1 0 0 0 0  0 1 0 0 0  0 0 1 0 0  0 0 0 1 0"/>
			</filter>
		</defs>
		<mask maskUnits="userSpaceOnUse" x="1.99" y="6.04" width="13.35" height="10.98" id="SVGID_18_">
			<g filter="url(#Adobe_OpacityMaskFilter_2_)">
				
					<linearGradient id="SVGID_19_" gradientUnits="userSpaceOnUse" x1="-376.45" y1="53.378" x2="-375.45" y2="53.378" gradientTransform="matrix(-0.1049 -33.504 -33.504 0.1049 1757.6403 -12576.6143)">
					<stop  offset="0" style="stop-color:#FFFFFF"/>
					<stop  offset="1" style="stop-color:#000000"/>
				</linearGradient>
				<polygon clip-path="url(#SVGID_17_)" fill="url(#SVGID_19_)" points="2.02,17.02 1.99,6.08 15.3,6.04 15.34,16.98 				"/>
			</g>
		</mask>
		
			<linearGradient id="SVGID_20_" gradientUnits="userSpaceOnUse" x1="-376.45" y1="53.378" x2="-375.45" y2="53.378" gradientTransform="matrix(-0.1049 -33.504 -33.504 0.1049 1757.6399 -12576.6123)">
			<stop  offset="0" style="stop-color:#FFFFFF"/>
			<stop  offset="1" style="stop-color:#FFFFFF"/>
		</linearGradient>
		<polygon clip-path="url(#SVGID_17_)" mask="url(#SVGID_18_)" fill="url(#SVGID_20_)" points="2.02,17.02 1.99,6.08 15.3,6.04 
			15.34,16.98 		"/>
	</g>
	<path fill="#FFFFFF" d="M15.2,2.94c0.27,0.27,0.54,0.54,0.72,0.91c0.72,1.4,0.23,3.57-1.45,5.79c-2.62,3.62-7.37,6.06-10.58,5.52
		c-0.72-0.14-1.36-0.36-1.76-0.77c-0.23-0.23-0.45-0.5-0.59-0.77c-0.68-1.22-0.45-3.03,0.72-4.97L1.31,8.68l0.27-0.63
		c0.68-0.18,2.98-1.13,3.66-2.08h0.77L5.16,8.05H6.6L6.29,8.64h-1.4l-1.04,2.35c-0.36,1.27,0.18,2.8,2.4,2.4
		c2.35-0.45,5.07-2.17,6.79-4.48c2.13-2.9,1.76-5.65-0.81-6.11C10.9,2.62,9.27,2.99,7.6,3.8c1.95-1.27,4.07-1.94,5.88-1.63
		C14.2,2.31,14.79,2.53,15.2,2.94"/>
</g>
</svg>
