<svg id="Isolation_Mode" data-name="Isolation Mode" xmlns="http://www.w3.org/2000/svg" viewBox="0 0 37.99 10.8"><title>Vector Smart Object2</title><path d="M10.76,9.25a2.71,2.71,0,0,1-1.82-.63l0,0,0,0,.39-.68,0,0,0,0a2.17,2.17,0,0,0,1.36.49c.57,0,.89-.26.89-.73s-.38-.65-1.07-.92l-.08,0A1.69,1.69,0,0,1,9.15,5,1.48,1.48,0,0,1,10.8,3.51a2.58,2.58,0,0,1,1.45.37l0,0v0L12,4.65v0l0,0a2.19,2.19,0,0,0-1.08-.29c-.36,0-.79.11-.79.62s.34.62,1,.86,1.5.63,1.5,1.77a1.57,1.57,0,0,1-1.78,1.62" fill="#231f20"/><path d="M13.25,10.64a2,2,0,0,1-.53-.07h0v0l.09-.67v0h.1a1.12,1.12,0,0,0,.27,0,.72.72,0,0,0,.72-.47L12.57,5.16l0-.06h1v0l.76,3,.68-3v0h.92v.06L14.72,9.33c-.25.89-.72,1.31-1.47,1.31" fill="#231f20"/><path d="M21.24,9.18h-.93V6.45c0-.34-.07-.56-.38-.56a1.17,1.17,0,0,0-.73.4V9.18h-.93V6.45c0-.34-.07-.56-.38-.56a1.06,1.06,0,0,0-.73.42V9.18h-.94V5.1h.6v0l.17.56A1.61,1.61,0,0,1,18.19,5a.86.86,0,0,1,.87.61A1.64,1.64,0,0,1,20.23,5c.84,0,1,.78,1,1.44V9.18Z" fill="#231f20"/><path d="M22.87,9.25A1.12,1.12,0,0,1,21.7,8.07a1.12,1.12,0,0,1,.44-1,3.87,3.87,0,0,1,1.62-.53v-.1c0-.45-.14-.61-.54-.61a2.22,2.22,0,0,0-1,.32l0,0,0,0-.3-.62,0,0,0,0A2.4,2.4,0,0,1,23.29,5c.93,0,1.41.52,1.41,1.5V9.18h-.59v0L24,8.76a1.57,1.57,0,0,1-1.08.49m.89-2c-.61.13-.91.25-1,.42a.51.51,0,0,0-.09.34c0,.3.15.47.43.47a1.13,1.13,0,0,0,.7-.29Z" fill="#231f20"/><path d="M28.57,9.18h-.94V6.45c0-.39-.13-.56-.43-.56a1.11,1.11,0,0,0-.77.42V9.18H25.5V5.1h.59v0l.17.57A1.61,1.61,0,0,1,27.5,5c.71,0,1.07.48,1.07,1.44V9.18Z" fill="#231f20"/><path d="M30.52,9.25c-.73,0-1.09-.4-1.09-1.22V5.84h-.54V5.1h.56L29.62,4V4h.75V5.1h.79v.74h-.79V8c0,.35.05.47.36.47a1.63,1.63,0,0,0,.38-.07l.05,0v.05l.11.65v0h0a1.92,1.92,0,0,1-.73.14" fill="#231f20"/><path d="M33.12,9.25c-1,0-1.7-.8-1.7-2.08S32.06,5,33.05,5s1.58.78,1.58,2.15v.29H32.39c0,.66.3,1,.79,1a1.54,1.54,0,0,0,1-.36l0,0,0,0,.34.58,0,0,0,0a1.89,1.89,0,0,1-1.4.54M32.4,6.79h1.27c0-.68-.22-1-.62-1s-.6.32-.65,1" fill="#231f20"/><path d="M36.71,9.25C35.47,9.25,35,8.17,35,7.17S35.46,5,36.71,5a1.58,1.58,0,0,1,1.2.45l0,0,0,0-.4.62,0,0,0,0a1.1,1.1,0,0,0-.75-.28c-.49,0-.73.43-.73,1.29s.24,1.25.75,1.25a1.05,1.05,0,0,0,.77-.35l0,0,0,0,.41.57,0,0,0,0a1.58,1.58,0,0,1-1.26.55" fill="#231f20"/><path d="M4.1,10.8A4.42,4.42,0,0,1,0,6.12,4.42,4.42,0,0,1,4.1,1.45,4.42,4.42,0,0,1,8.21,6.12,4.43,4.43,0,0,1,4.1,10.8m0-7.87a2.62,2.62,0,0,0-2,.93A3.43,3.43,0,0,0,1.3,6.12a3.39,3.39,0,0,0,.82,2.26,2.6,2.6,0,0,0,2,.94,2.62,2.62,0,0,0,2-.94,3.39,3.39,0,0,0,.82-2.26,3.43,3.43,0,0,0-.82-2.26,2.64,2.64,0,0,0-2-.93" fill="#fcb525"/><path d="M35.11,8.18H35V8.09h.36v.09h-.13v.48h-.1Zm.33-.09h.15l.1.41.09-.41h.15v.57h-.1V8.22l-.1.44h-.09l-.11-.44v.44h-.09Z" fill="#231f20"/><rect x="8.57" y="0.73" width="0.32" height="0.36" fill="#fcb525"/><rect x="8.57" width="0.32" height="0.36" fill="#fcb525"/><rect x="7.67" y="1.09" width="0.3" height="0.36" fill="#fcb525"/><rect x="7.08" y="1.79" width="0.3" height="0.34" fill="#231f20"/><rect x="7.97" y="1.44" width="0.33" height="0.34" fill="#231f20"/><rect x="6.78" y="1.46" width="0.3" height="0.33" fill="#231f20"/><rect x="7.67" y="1.79" width="0.3" height="0.34" fill="#231f20"/><rect x="8.26" y="0.37" width="0.32" height="0.36" fill="#231f20"/><rect x="7.67" y="0.73" width="0.58" height="0.36" fill="#231f20"/><rect x="7.38" y="1.09" width="0.29" height="0.7" fill="#231f20"/><path d="M7.38,2.13v.34h-.3V2.13h-.5v.24H6.31v.31h.3V3h-.3V2.68H6v.53h-.3v.34h-.2v.34H5.27a22.38,22.38,0,0,0-1,2.25A3.7,3.7,0,0,0,2.62,4.5c-.22-.08-.49.2-.12.63A8.33,8.33,0,0,1,3.87,7.77c.13.37.74.43.87.05A12.11,12.11,0,0,1,5.82,5.4V5h.24V4.68h.25v-.4h.3V3.9h-.3V3.55h.3V3.9h.3V3.55h.24V3.14h.26V2.85h.26V2.13Z" fill="#231f20"/></svg>