<?xml version="1.0" encoding="utf-8"?>
<!-- Generator: Adobe Illustrator 23.0.1, SVG Export Plug-In . SVG Version: 6.00 Build 0)  -->
<svg version="1.1" id="Isolation_Mode" xmlns="http://www.w3.org/2000/svg" xmlns:xlink="http://www.w3.org/1999/xlink" x="0px"
	 y="0px" viewBox="0 0 44.51 6.54" enable-background="new 0 0 44.51 6.54" xml:space="preserve">
<g>
	<path fill-rule="evenodd" clip-rule="evenodd" fill="#231F20" d="M0,0.06c0.04,0,0.07,0.01,0.11,0.01c1.76,0,3.52,0,5.28,0h0.12
		v1.36H1.23v1.03h3.68v1.32H1.23v2.4c-0.03,0-0.05,0.01-0.07,0.01c-0.37,0-0.75,0-1.12,0c-0.01,0-0.03,0-0.04-0.01V0.06z"/>
	<path fill-rule="evenodd" clip-rule="evenodd" fill="#EE3025" d="M10.61,0c0,0.52,0,1.04,0,1.56c0,0.05-0.02,0.08-0.06,0.07
		c-0.01,0-0.02,0-0.03,0c-0.59,0-1.19,0-1.78,0c-0.08,0-0.11-0.03-0.11-0.13c0-0.5,0-1,0-1.51H10.61z"/>
	<path fill-rule="evenodd" clip-rule="evenodd" fill="#EE3025" d="M12.42,0c0.12,0.1,0.26,0.19,0.37,0.32
		c0.27,0.33,0.39,0.75,0.42,1.2c0.01,0.08-0.02,0.12-0.09,0.12c-0.62,0-1.23,0-1.85,0c-0.07,0-0.1-0.03-0.1-0.12
		c0-0.46,0-0.93,0-1.39c0-0.04,0-0.08-0.01-0.13H12.42z"/>
	<path fill-rule="evenodd" clip-rule="evenodd" fill="#EE3025" d="M8.08,0c0,0.5-0.01,1,0,1.5c0,0.11-0.02,0.14-0.11,0.14
		c-0.61,0-1.22,0-1.83,0c-0.04,0-0.08,0.01-0.09-0.07c-0.04-0.51,0.31-1.28,0.69-1.5C6.78,0.04,6.82,0.02,6.86,0H8.08z"/>
	<path fill-rule="evenodd" clip-rule="evenodd" fill="#231F20" d="M43.83,6.54c-0.15-0.04-0.29-0.11-0.39-0.26
		c-0.16-0.23-0.2-0.58-0.08-0.85c0.13-0.28,0.38-0.43,0.65-0.38c0.24,0.05,0.43,0.29,0.48,0.58c0,0.02,0.01,0.05,0.02,0.07v0.15
		c-0.01,0.03-0.01,0.05-0.02,0.08c-0.05,0.25-0.17,0.43-0.36,0.53C44.07,6.5,44,6.52,43.94,6.54H43.83z M43.9,5.14
		c-0.29,0-0.53,0.28-0.54,0.63c-0.01,0.37,0.23,0.67,0.53,0.67c0.29,0,0.53-0.3,0.54-0.65C44.43,5.44,44.2,5.15,43.9,5.14"/>
	<path fill-rule="evenodd" clip-rule="evenodd" fill="#231F20" d="M19.29,3.49c0.23,0.14,0.33,0.38,0.34,0.67
		c0.01,0.66,0.01,1.31,0.01,1.97c0,0.01,0,0.03-0.01,0.05h-1.18V6.06v-1.9c0-0.25-0.08-0.35-0.28-0.37
		c-0.09-0.01-0.18-0.01-0.27-0.01c-0.82,0-1.64,0-2.46,0h-0.11v2.4h-1.22V0.07h0.1c1.26,0,2.52,0,3.78,0c0.27,0,0.53,0.03,0.79,0.12
		c0.49,0.17,0.8,0.54,0.86,1.16c0.04,0.41,0.04,0.83,0.03,1.25c-0.01,0.31-0.14,0.58-0.32,0.81c-0.02,0.02-0.04,0.05-0.05,0.07
		C19.29,3.48,19.29,3.48,19.29,3.49 M15.33,2.46c0.03,0,0.06,0,0.08,0.01c0.84,0,1.67,0,2.51,0c0.11,0,0.22-0.01,0.33-0.02
		c0.13-0.02,0.21-0.14,0.22-0.29c0-0.14,0-0.27,0-0.41c0-0.15-0.08-0.26-0.2-0.29c-0.06-0.01-0.13-0.02-0.2-0.02
		c-0.88,0-1.76,0-2.65,0c-0.03,0-0.06,0-0.09,0.01V2.46z"/>
	<polygon fill-rule="evenodd" clip-rule="evenodd" fill="#231F20" points="34.08,6.18 34.08,0.08 38.99,0.08 38.99,1.43 35.3,1.43 
		35.3,2.47 37.86,2.47 37.86,3.78 35.3,3.78 35.3,4.82 39.01,4.82 39.01,6.18 	"/>
	<path fill-rule="evenodd" clip-rule="evenodd" fill="#231F20" d="M28.86,1.43v4.75h-1.22V0.07h0.09c1.28,0,2.57,0,3.85,0
		c0.3,0,0.58,0.07,0.85,0.24c0.42,0.26,0.64,0.71,0.73,1.26c0.04,0.24,0.06,0.5,0.06,0.74c0.01,1.26,0,2.51,0,3.77
		c0,0.03,0,0.07,0,0.11H32V6.02c0-1.3,0-2.6,0-3.9c0-0.13-0.01-0.26-0.04-0.39c-0.04-0.18-0.15-0.26-0.29-0.3
		c-0.03-0.01-0.06-0.01-0.1-0.01h-2.63C28.92,1.43,28.9,1.43,28.86,1.43"/>
	<polygon fill-rule="evenodd" clip-rule="evenodd" fill="#231F20" points="21.47,1.43 20.32,1.43 20.32,0.07 24.89,0.07 24.89,1.43 
		22.69,1.43 22.69,6.18 21.47,6.18 	"/>
	<polygon fill-rule="evenodd" clip-rule="evenodd" fill="#231F20" points="39.6,1.44 39.6,0.08 44.17,0.08 44.17,1.43 41.97,1.43 
		41.97,6.18 40.75,6.18 40.75,1.44 	"/>
	<rect x="25.51" y="0.08" fill-rule="evenodd" clip-rule="evenodd" fill="#231F20" width="1.21" height="6.1"/>
	<path fill-rule="evenodd" clip-rule="evenodd" fill="#EE3025" d="M12.19,3.94c-0.31,0-0.61,0-0.92,0c-0.07,0-0.1-0.02-0.09-0.11
		c0-0.48,0-0.95,0-1.42c0-0.08,0.02-0.1,0.08-0.1c0.63,0,1.25,0,1.88,0c0.06,0,0.08,0.02,0.08,0.09c0,0.48,0,0.97,0,1.45
		c0,0.08-0.03,0.09-0.08,0.09C12.81,3.94,12.5,3.94,12.19,3.94L12.19,3.94z"/>
	<path fill-rule="evenodd" clip-rule="evenodd" fill="#EE3025" d="M8.07,2.31v1.62c-0.03,0-0.06,0.01-0.09,0.01
		c-0.61,0-1.22,0-1.83,0c-0.08,0-0.1-0.03-0.1-0.13c0-0.47,0-0.94,0-1.4c0-0.08,0.02-0.11,0.09-0.11c0.62,0,1.24,0,1.86,0
		C8.02,2.3,8.04,2.31,8.07,2.31"/>
	<path fill-rule="evenodd" clip-rule="evenodd" fill="#EE3025" d="M8.64,6.23V4.63c0.03,0,0.06-0.01,0.09-0.01c0.6,0,1.2,0,1.79,0
		c0.08,0,0.1,0.03,0.1,0.12c0,0.46,0,0.93,0,1.39c0,0.06,0,0.11-0.07,0.11c-0.62,0-1.24,0-1.86,0C8.67,6.24,8.66,6.24,8.64,6.23"/>
	<path fill-rule="evenodd" clip-rule="evenodd" fill="#EE3025" d="M11.18,6.24V4.63c0.03,0,0.06-0.01,0.08-0.01
		c0.62,0,1.23,0,1.85,0c0.08,0,0.1,0.03,0.1,0.12C13.16,5.32,13,5.83,12.58,6.16c-0.07,0.06-0.15,0.08-0.24,0.08
		c-0.35-0.01-0.71,0-1.06,0H11.18z"/>
	<path fill-rule="evenodd" clip-rule="evenodd" fill="#EE3025" d="M8.07,4.63v1.61c-0.03,0-0.06,0-0.09,0
		c-0.33,0-0.65-0.01-0.97,0.01c-0.22,0.01-0.39-0.1-0.53-0.28C6.24,5.67,6.12,5.31,6.07,4.92C6.06,4.83,6.05,4.73,6.05,4.63H8.07z"
		/>
	<path fill-rule="evenodd" clip-rule="evenodd" fill="#231F20" d="M43.76,5.84v0.34c-0.03,0-0.05,0.01-0.08,0.01V5.36
		c0.12,0,0.23,0,0.34,0c0.07,0,0.13,0.03,0.15,0.12c0.02,0.09,0.02,0.18-0.04,0.25c-0.01,0.01-0.02,0.02,0,0.03
		c0.02,0.13,0.04,0.27,0.06,0.4c-0.07,0.03-0.1,0.01-0.11-0.08c-0.02-0.23,0.02-0.26-0.23-0.25C43.83,5.83,43.79,5.83,43.76,5.84
		 M43.76,5.73c0.08,0,0.16,0,0.23,0c0.06,0,0.09-0.06,0.1-0.13c0-0.07-0.02-0.12-0.08-0.13c-0.08-0.01-0.17,0-0.25,0V5.73z"/>
</g>
</svg>
