<?xml version="1.0" encoding="utf-8"?>
<!-- Generator: Adobe Illustrator 23.0.1, SVG Export Plug-In . SVG Version: 6.00 Build 0)  -->
<svg version="1.1" id="Isolation_Mode" xmlns="http://www.w3.org/2000/svg" xmlns:xlink="http://www.w3.org/1999/xlink" x="0px"
	 y="0px" viewBox="0 0 45.45 14.27" enable-background="new 0 0 45.45 14.27" xml:space="preserve">
<g>
	<path fill="#ED3228" d="M5.99,0c3.9,0,5.86,2.09,5.86,2.09s0.23,1.54,0.08,4.66c-0.22,4.7-5.94,7.52-5.94,7.52
		c0,0-5.73-2.83-5.95-7.52C-0.1,3.64,0.13,2.09,0.13,2.09S2.09,0,5.99,0"/>
	<path fill="#272626" d="M19.19,3.69c-1.89,0-3.43,1.54-3.43,3.43c0,1.14,0.48,2.17,1.39,2.95c0.86,0.74,2.08,1.24,3.49,1.48
		c0.2-0.11,0.58-0.49,0.7-0.74c-1.04-0.18-1.51-0.36-1.51-0.36c0.14-0.01,0.27-0.04,0.4-0.08c1.38-0.39,2.41-1.77,2.39-3.25
		C22.61,5.23,21.08,3.69,19.19,3.69 M19.19,9.57c-1.35,0-2.45-1.09-2.45-2.45c0-1.35,1.09-2.45,2.45-2.45
		c1.35,0,2.45,1.09,2.45,2.45C21.63,8.47,20.54,9.56,19.19,9.57 M44.56,9.24c0.21-0.2,0.54-0.2,0.75,0c0.2,0.21,0.2,0.55,0,0.76
		c-0.21,0.2-0.54,0.2-0.75,0C44.36,9.78,44.36,9.45,44.56,9.24 M44.63,9.92c0.17,0.16,0.43,0.16,0.6,0c0.15-0.17,0.15-0.44,0-0.61
		c-0.17-0.16-0.43-0.16-0.6,0C44.48,9.48,44.48,9.75,44.63,9.92 M45.16,9.48c0,0.08-0.05,0.15-0.13,0.17l0.15,0.23h-0.11l-0.14-0.23
		h-0.08v0.23h-0.1V9.32h0.21c0.05,0,0.1,0.01,0.14,0.04C45.14,9.38,45.16,9.43,45.16,9.48 M44.85,9.4v0.17h0.11
		c0.02,0,0.05-0.01,0.07-0.02c0.02-0.02,0.02-0.04,0.02-0.06c0-0.05-0.03-0.08-0.1-0.08H44.85z M38.16,8.7l-1.16-3.08h-1.03
		l1.69,4.29l-0.75,1.78c0.49,0,1.03-0.04,1.24-0.55c0.49-1.22,2.21-5.51,2.21-5.51h-1.03L38.16,8.7z M34.29,10.23
		c0,0,0.96-0.01,0.96-0.67V3.73h-0.96V10.23z M32.3,6.23c-0.27-0.37-0.79-0.73-1.55-0.73c-1.31,0-2.3,1.02-2.3,2.37
		c0,0.63,0.22,1.22,0.61,1.65c0.42,0.47,1.01,0.72,1.69,0.72c0.66,0,1.23-0.27,1.55-0.73v0.73c0,0,0.96-0.01,0.96-0.67V5.63H32.3
		V6.23z M30.87,9.33c-0.58,0-1.45-0.39-1.46-1.45V7.87c0-0.84,0.62-1.48,1.45-1.48c0.61,0,1.11,0.32,1.34,0.86
		c0.09,0.2,0.13,0.41,0.12,0.62c-0.01,0.22-0.05,0.43-0.14,0.63C31.94,9.02,31.45,9.33,30.87,9.33 M26.7,8.12
		c0,0.77-0.4,1.2-1.13,1.21c-0.74,0-1.1-0.42-1.1-1.28V5.63h-0.96v2.62c0,0.38,0.06,0.92,0.36,1.34c0.31,0.43,0.8,0.65,1.45,0.65
		h0.03c0.79,0,1.19-0.36,1.39-0.64v0.63c0,0,0.91-0.01,0.91-0.64V5.62H26.7L26.7,8.12z M42.67,7.45c-0.5-0.21-0.86-0.4-0.86-0.69
		c0.01-0.19,0.26-0.37,0.52-0.36c0.28,0.01,0.48,0.2,0.61,0.36c0,0,0.52-0.45,0.58-0.49c-0.27-0.44-0.74-0.71-1.25-0.71
		c-0.74-0.02-1.34,0.55-1.37,1.29C40.89,7.46,41.26,7.72,41.75,8l0.8,0.45c0.18,0.13,0.27,0.23,0.27,0.42
		c-0.01,0.31-0.27,0.51-0.6,0.53c-0.25,0.01-0.45-0.13-0.64-0.33c-0.37-0.39-0.95-0.2-1.12-0.14c0.37,0.84,1.05,1.33,1.74,1.34
		c0.87,0.02,1.56-0.62,1.58-1.46C43.78,8.39,43.6,7.89,42.67,7.45"/>
	<path fill="#FFFFFF" d="M3.07,6.17c0-1.66,1.31-3.01,2.93-3.01s2.93,1.31,2.93,2.93c0,1.29-1.1,2.35-1.96,2.89
		C7.3,9.17,8.03,9.37,8.74,9.44c1.04-0.8,1.64-2.04,1.64-3.35C10.39,3.67,8.43,1.7,6.02,1.7C3.6,1.69,1.63,3.64,1.62,6.06v0.03
		c0,1.46,0.61,2.75,1.76,3.74c1.08,0.92,2.64,1.55,4.43,1.84c0.39-0.21,1.05-0.85,1.3-1.22C7.61,10.26,6.2,9.9,5.25,9.4
		C3.8,8.65,3.07,7.56,3.07,6.17"/>
</g>
</svg>
