<svg id="Isolation_Mode" data-name="Isolation Mode" xmlns="http://www.w3.org/2000/svg" viewBox="0 0 27.86 15.07"><title>Vector Smart Object</title><path d="M10.75,13.79v1.14h.08a6.48,6.48,0,0,0,.77.1,5.15,5.15,0,0,0,.68,0,2.8,2.8,0,0,0,.64-.13,1.75,1.75,0,0,0,.67-.36A1.4,1.4,0,0,0,14,14a1.55,1.55,0,0,0,0-1.14,1.31,1.31,0,0,0-.34-.5,1.63,1.63,0,0,0-.51-.3l-.84-.32a.45.45,0,0,1-.23-.22.33.33,0,0,1,0-.26l.06-.08a.27.27,0,0,1,.08-.07l0,0a.86.86,0,0,1,.3-.09,1.63,1.63,0,0,1,.54,0,4.34,4.34,0,0,1,.61.11h.05V10.08l-.08,0A4.62,4.62,0,0,0,13,10a3.3,3.3,0,0,0-.83,0,1.74,1.74,0,0,0-1,.4,1.23,1.23,0,0,0-.4.57,1.64,1.64,0,0,0,0,1.07,1.24,1.24,0,0,0,.29.46,1.78,1.78,0,0,0,.38.28,2.27,2.27,0,0,0,.58.23l.19.06.1,0h0a.78.78,0,0,1,.26.17.44.44,0,0,1,.12.18.31.31,0,0,1,0,.19.41.41,0,0,1-.19.24.92.92,0,0,1-.32.1,2.74,2.74,0,0,1-.5,0c-.21,0-.43-.05-.64-.09l-.34-.08h0" fill="#c82027"/><path d="M6.2,14.88V13.56h0a2.18,2.18,0,0,1-.93.24,1.3,1.3,0,0,1-.93-.28,1.16,1.16,0,0,1-.41-.59,1.55,1.55,0,0,1,0-.8,1.22,1.22,0,0,1,.42-.67,1.21,1.21,0,0,1,.65-.29,2.11,2.11,0,0,1,1.23.23l0,0V10.1l-.06,0A3.36,3.36,0,0,0,5,9.93a2.51,2.51,0,0,0-1,.24,2.39,2.39,0,0,0-.86.68A2.69,2.69,0,0,0,3,14.07a2.42,2.42,0,0,0,1.36.9,3.18,3.18,0,0,0,1.73-.06l.1,0" fill="#c82027"/><rect x="7.88" y="10.01" width="1.22" height="4.96" fill="#c82027"/><polygon points="27.16 14.39 27.16 14.32 26.64 14.32 26.64 14.39 26.86 14.39 26.86 14.97 26.94 14.97 26.94 14.39 27.16 14.39" fill="#c82027"/><polygon points="27.21 14.97 27.29 14.97 27.29 14.45 27.3 14.45 27.49 14.97 27.57 14.97 27.77 14.43 27.77 14.97 27.86 14.97 27.86 14.32 27.72 14.32 27.54 14.86 27.34 14.32 27.21 14.32 27.21 14.97" fill="#c82027"/><path d="M0,6a.63.63,0,0,0,.19.41A.58.58,0,0,0,.6,6.6.57.57,0,0,0,1,6.43.64.64,0,0,0,1.21,6V4.65A.68.68,0,0,0,1,4.22.59.59,0,0,0,.6,4.05a.63.63,0,0,0-.42.17A.67.67,0,0,0,0,4.65V6" fill="#12393d"/><path d="M3.34,6a.63.63,0,0,0,.19.41.58.58,0,0,0,.41.17.61.61,0,0,0,.42-.17A.63.63,0,0,0,4.55,6V2.94a.65.65,0,0,0-.19-.42.57.57,0,0,0-.83,0,.61.61,0,0,0-.19.42V6" fill="#12393d"/><path d="M6.66,7.26a.62.62,0,0,0,.61.58.58.58,0,0,0,.41-.17.61.61,0,0,0,.19-.41V.59A.61.61,0,0,0,7.68.17.58.58,0,0,0,7.27,0a.59.59,0,0,0-.42.17.61.61,0,0,0-.19.42V7.26" fill="#12393d"/><path d="M10,6a.63.63,0,0,0,.19.41.61.61,0,0,0,.42.17A.58.58,0,0,0,11,6.43.63.63,0,0,0,11.21,6V2.94A.61.61,0,0,0,11,2.52a.57.57,0,0,0-.83,0,.61.61,0,0,0-.19.42V6" fill="#12393d"/><path d="M13.33,6a.63.63,0,0,0,.19.41.58.58,0,0,0,.82,0A.63.63,0,0,0,14.53,6V4.65a.62.62,0,0,0-.18-.43.6.6,0,0,0-.84,0,.62.62,0,0,0-.18.43V6" fill="#12393d"/><path d="M16.66,6a.64.64,0,0,0,.2.41.58.58,0,0,0,.82,0A.63.63,0,0,0,17.87,6V2.94a.6.6,0,0,0-.18-.42.64.64,0,0,0-.42-.18.6.6,0,0,0-.42.18.65.65,0,0,0-.19.42V6" fill="#12393d"/><path d="M20,7.26a.61.61,0,0,0,.19.41.58.58,0,0,0,.82,0,.62.62,0,0,0,.2-.41V.59A.65.65,0,0,0,21,.17.59.59,0,0,0,20.59,0a.63.63,0,0,0-.42.17A.6.6,0,0,0,20,.59V7.26" fill="#12393d"/><path d="M23.32,6a.63.63,0,0,0,.19.41.61.61,0,0,0,.42.17.58.58,0,0,0,.41-.17A.63.63,0,0,0,24.53,6V2.94a.61.61,0,0,0-.19-.42.57.57,0,0,0-.83,0,.65.65,0,0,0-.19.42V6" fill="#12393d"/><path d="M26.65,6a.63.63,0,0,0,.19.41.58.58,0,0,0,.41.17.57.57,0,0,0,.41-.17.6.6,0,0,0,.2-.41V4.65a.68.68,0,0,0-.19-.43.59.59,0,0,0-.42-.17.63.63,0,0,0-.42.17.67.67,0,0,0-.18.43V6" fill="#12393d"/><path d="M19,14.88V13.56h0a2.18,2.18,0,0,1-.93.24,1.33,1.33,0,0,1-.94-.28,1.2,1.2,0,0,1-.4-.59,1.36,1.36,0,0,1,0-.8,1.21,1.21,0,0,1,.41-.67,1.27,1.27,0,0,1,.66-.29,2.11,2.11,0,0,1,1.23.23l0,0V10.1l-.06,0a3.36,3.36,0,0,0-1.18-.15,2.56,2.56,0,0,0-1.05.24,2.44,2.44,0,0,0-.85.68,2.69,2.69,0,0,0-.05,3.22,2.42,2.42,0,0,0,1.36.9,3.18,3.18,0,0,0,1.73-.06l.1,0" fill="#c82027"/><path d="M20.23,12.49a2.63,2.63,0,0,0,1,2,2.48,2.48,0,0,0,2.13.5,2.51,2.51,0,0,0,2-2.06,2.56,2.56,0,0,0-1.17-2.63,2.52,2.52,0,0,0-2.57-.07,2.63,2.63,0,0,0-1.34,2.25m1.77-1a1.26,1.26,0,0,1,1.79.21,1.32,1.32,0,0,1-.2,1.83,1.23,1.23,0,0,1-.94.28,1.27,1.27,0,0,1-.85-.48,1.33,1.33,0,0,1-.27-1,1.35,1.35,0,0,1,.47-.88" fill="#c82027"/></svg>