<?xml version="1.0" encoding="utf-8"?>
<!-- Generator: Adobe Illustrator 23.0.1, SVG Export Plug-In . SVG Version: 6.00 Build 0)  -->
<svg version="1.1" id="Isolation_Mode" xmlns="http://www.w3.org/2000/svg" xmlns:xlink="http://www.w3.org/1999/xlink" x="0px"
	 y="0px" viewBox="0 0 24.05 20.9" enable-background="new 0 0 24.05 20.9" xml:space="preserve">
<g>
	<path fill-rule="evenodd" clip-rule="evenodd" fill="#C12038" d="M11.58,0c0.32,0.03,0.64,0.06,0.96,0.1
		c2.83,0.38,5.17,1.6,7.03,3.64c0.02,0.02,0.04,0.05,0.09,0.11c-0.27-0.04-0.5-0.05-0.73-0.1c-1.08-0.22-2.17-0.35-3.26-0.44
		c-0.65-0.05-1.29-0.08-1.94-0.13c-0.13-0.01-0.15,0.06-0.18,0.15c-0.47,1.34-0.95,2.68-1.43,4.03c-0.45,1.27-0.9,2.54-1.34,3.82
		c-0.02,0.05-0.04,0.11-0.06,0.19c0.33,0.03,0.64,0.06,0.94,0.1c1.43,0.17,2.84,0.39,4.18,0.92c0.7,0.28,1.34,0.63,1.81,1.2
		c0.87,1.07,0.6,2.49-0.62,3.24c-1.08,0.67-2.64,0.61-3.6-0.15c-0.23-0.19-0.43-0.43-0.6-0.67c-0.42-0.57-0.81-1.15-1.21-1.73
		c-0.11-0.16-0.21-0.18-0.37-0.06c-0.18,0.15-0.35,0.31-0.52,0.46c-0.19,0.17-0.38,0.34-0.56,0.51c-0.16,0.15-0.19,0.26-0.1,0.45
		c0.27,0.6,0.55,1.19,0.81,1.79c0.07,0.15,0.18,0.23,0.33,0.26c0.44,0.1,0.87,0.21,1.32,0.28c0.85,0.14,1.7,0.21,2.56,0.16
		c1.62-0.08,3.07-0.59,4.32-1.58c1.08-0.85,1.67-1.95,1.83-3.25c0.15-1.2-0.05-2.34-0.82-3.34c-0.49-0.65-1.14-1.14-1.89-1.51
		c-1.05-0.52-2.19-0.79-3.36-0.94c-0.49-0.06-0.98-0.1-1.47-0.14c-0.03,0-0.06-0.01-0.11-0.03c0.05-0.15,0.09-0.29,0.13-0.43
		c0.11-0.33,0.23-0.66,0.33-1c0.03-0.11,0.09-0.14,0.21-0.14C15.47,5.85,16.7,5.91,17.92,6c0.58,0.04,1.16,0.11,1.74,0.18
		C19.9,6.2,19.9,6.2,19.94,5.99c0.08-0.42,0.17-0.84,0.25-1.25c0.01-0.04,0.02-0.08,0.06-0.13c1.93,2.83,2.45,5.85,1.36,9.07
		c-1.31,3.88-4.86,6.62-9.01,7.12c-3.83,0.46-7.08-0.69-9.73-3.33c2.2,0.33,4.41,0.5,6.64,0.57c0-0.23,0.01-0.45-0.01-0.66
		c0-0.03-0.09-0.07-0.15-0.08c-0.5-0.07-0.99-0.13-1.49-0.2c-0.07-0.01-0.13-0.04-0.2-0.06c-0.38-0.09-0.55-0.34-0.57-0.69
		c-0.03-0.51-0.07-1.01-0.08-1.52c-0.04-1.58-0.06-3.15-0.08-4.73c-0.01-0.33,0.02-0.67,0.02-1c0-0.12,0.03-0.16,0.17-0.16
		c0.72,0,1.44-0.01,2.15-0.02c0.14,0,0.29-0.03,0.42-0.08C10,8.7,10.32,8.56,10.64,8.41c0.05-0.02,0.1-0.08,0.11-0.12
		c0.01-0.24,0.01-0.49,0.01-0.77C9.5,7.54,8.25,7.55,6.99,7.57c0-0.13-0.01-0.25,0-0.36c0.04-0.82,0.06-1.65,0.14-2.46
		C7.2,4.05,7.68,3.6,8.59,3.78c0.6,0.12,1.15,0.35,1.7,0.6c0.22,0.1,0.43,0.21,0.65,0.31c0.36,0.16,0.54,0.08,0.7-0.13
		c0.14-0.19,0.31-0.35,0.47-0.52c0.15-0.17,0.14-0.29-0.05-0.42c-0.28-0.2-0.57-0.39-0.83-0.61c-0.39-0.33-0.85-0.47-1.37-0.46
		C7.91,2.56,6.13,3.04,4.57,4.15c-0.72,0.51-1.3,1.16-1.55,2c-0.12,0.42-0.14,0.87-0.2,1.31C2.8,7.56,2.8,7.66,2.79,7.78
		c-0.3,0.02-0.58,0.05-0.87,0.07c-0.15,0.01-0.3,0.04-0.45,0.03c-0.17,0-0.24,0.05-0.24,0.21C1.22,8.44,1.2,8.77,1.18,9.13
		C1.7,9.11,2.2,9.08,2.7,9.06c0,0.32,0,0.61,0,0.9c0.01,0.97,0,1.94,0.05,2.91c0.05,1.03,0.16,2.07,0.24,3.1c0.01,0.06,0,0.13,0,0.2
		c-0.01,0.24-0.09,0.34-0.34,0.4c-0.03,0.01-0.06,0.01-0.08,0.02c-0.3,0.08-0.49,0-0.68-0.27c-0.68-0.99-1.21-2.04-1.53-3.17
		C0.12,12.32,0.01,11.48,0,10.61c-0.02-1.16,0.12-2.29,0.53-3.38C1.97,3.41,4.8,1.06,9.01,0.2c0.46-0.09,0.93-0.11,1.39-0.17
		c0.06-0.01,0.11-0.02,0.17-0.03H11.58z"/>
	<path fill-rule="evenodd" clip-rule="evenodd" fill="#231F20" d="M23.21,15.72c0.48,0,0.84,0.35,0.84,0.8
		c0,0.43-0.38,0.77-0.85,0.77c-0.47,0-0.83-0.35-0.82-0.79C22.37,16.06,22.74,15.72,23.21,15.72 M23.92,16.52
		c0-0.38-0.32-0.69-0.72-0.69c-0.39,0-0.71,0.31-0.71,0.68c0,0.37,0.32,0.68,0.71,0.68C23.6,17.19,23.92,16.89,23.92,16.52"/>
	<path fill-rule="evenodd" clip-rule="evenodd" fill="#FFFFFF" d="M23.92,16.52c0,0.38-0.32,0.67-0.72,0.67
		c-0.39,0-0.71-0.31-0.71-0.68c0-0.37,0.32-0.68,0.71-0.68C23.6,15.82,23.92,16.13,23.92,16.52 M23.47,16.51
		c0.09-0.05,0.15-0.16,0.09-0.29c-0.05-0.13-0.18-0.14-0.3-0.14c-0.13,0-0.25,0-0.39,0c0,0.27,0,0.52,0,0.77
		c0,0.03,0.05,0.06,0.08,0.09c0.03-0.03,0.07-0.07,0.07-0.1c0.01-0.08,0-0.16,0-0.23c0.32-0.02,0.33,0,0.39,0.26
		c0.01,0.03,0.07,0.06,0.1,0.09c0.02-0.01,0.04-0.03,0.06-0.04C23.55,16.78,23.52,16.66,23.47,16.51"/>
	<path fill-rule="evenodd" clip-rule="evenodd" fill="#231F20" d="M23.47,16.51c0.04,0.15,0.08,0.27,0.12,0.4
		c-0.02,0.01-0.04,0.03-0.07,0.04c-0.04-0.03-0.09-0.05-0.1-0.09c-0.06-0.26-0.08-0.28-0.4-0.26c0,0.08,0.01,0.16,0,0.23
		c-0.01,0.04-0.05,0.07-0.07,0.1c-0.03-0.03-0.08-0.06-0.08-0.09c-0.01-0.25,0-0.5,0-0.77c0.14,0,0.26,0,0.39,0
		c0.12,0,0.25,0.01,0.3,0.14C23.62,16.35,23.56,16.46,23.47,16.51 M23.04,16.13v0.39c0.14-0.05,0.25-0.08,0.35-0.13
		c0.02-0.01,0.02-0.13,0-0.14C23.3,16.21,23.18,16.18,23.04,16.13"/>
	<path fill-rule="evenodd" clip-rule="evenodd" fill="#FFFFFF" d="M23.04,16.13c0.14,0.05,0.25,0.07,0.35,0.12
		c0.02,0.01,0.02,0.13,0,0.14c-0.1,0.05-0.22,0.08-0.35,0.13V16.13z"/>
</g>
</svg>
