<?xml version="1.0" encoding="utf-8"?>
<!-- Generator: Adobe Illustrator 23.0.1, SVG Export Plug-In . SVG Version: 6.00 Build 0)  -->
<svg version="1.1" id="Isolation_Mode" xmlns="http://www.w3.org/2000/svg" xmlns:xlink="http://www.w3.org/1999/xlink" x="0px"
	 y="0px" viewBox="0 0 45.45 17.88" enable-background="new 0 0 45.45 17.88" xml:space="preserve">
<g>
	<path fill="#010101" d="M44.33,4.25c0.62,0,1.13,0.5,1.13,1.13c0,0.62-0.51,1.13-1.13,1.13c-0.63,0-1.13-0.5-1.13-1.13
		C43.19,4.75,43.7,4.25,44.33,4.25 M45.31,5.38c0-0.54-0.44-0.98-0.98-0.98c-0.54,0-0.98,0.44-0.98,0.98c0,0.54,0.44,0.98,0.98,0.98
		C44.87,6.36,45.31,5.92,45.31,5.38"/>
	<path fill="#010101" d="M44.83,5.99h-0.21c-0.01-0.04-0.02-0.09-0.02-0.16c0-0.27-0.08-0.34-0.31-0.34h-0.22v0.49h-0.2V4.75h0.42
		c0.26,0,0.53,0.06,0.53,0.36c0,0.21-0.16,0.28-0.31,0.3c0.19,0.04,0.28,0.15,0.28,0.37C44.81,5.87,44.82,5.96,44.83,5.99
		 M44.62,5.11c0-0.14-0.12-0.21-0.31-0.21h-0.22v0.45h0.22C44.5,5.35,44.62,5.27,44.62,5.11"/>
	<polygon fill="#010101" points="39.59,8.57 42.83,13.6 39.48,13.6 37.93,10.85 35.96,13.6 32.58,13.6 36.31,8.56 33.45,4.28 
		36.87,4.28 37.97,6.26 39.25,4.28 42.68,4.28 	"/>
	<path fill="#010101" d="M30.7,14.38c0.97,0,1.75,0.78,1.75,1.75c0,0.97-0.79,1.75-1.75,1.75c-0.97,0-1.75-0.78-1.75-1.75
		C28.94,15.16,29.73,14.38,30.7,14.38"/>
	<path fill="#010101" d="M25.83,9.89l2.85,3.71h-3.52l-1.78-2.78v2.78h-2.79V4.28h3.66c1.09,0,1.97,0.31,2.55,0.88
		c0.52,0.52,0.78,1.22,0.78,2.08C27.57,8.53,26.9,9.52,25.83,9.89 M25.07,7.39c0-0.31-0.08-0.55-0.25-0.72
		c-0.33-0.33-0.97-0.38-1.44-0.38v2.19C24.58,8.48,25.07,8.16,25.07,7.39"/>
	<polygon fill="#010101" points="19.83,4.28 19.83,6.72 17.71,6.72 17.71,13.6 14.92,13.6 14.92,6.72 12.8,6.72 12.8,4.28 	"/>
	<polygon fill="#010101" points="12.05,4.28 12.05,13.6 9.25,13.6 9.25,12.32 9.25,5.57 9.25,4.28 	"/>
	<path fill="#010101" d="M10.65,0c0.97,0,1.75,0.79,1.75,1.75c0,0.97-0.79,1.76-1.75,1.76c-0.97,0-1.75-0.79-1.75-1.76
		C8.9,0.79,9.68,0,10.65,0"/>
	<path fill="#010101" d="M8.4,5.57L6.93,7.94C6.52,7.26,5.7,6.82,4.88,6.82c-1.17,0-2.03,0.96-2.03,2.13s0.86,2.13,2.03,2.13
		c0.82,0,1.64-0.44,2.05-1.13l1.47,2.38c-0.89,0.93-2.14,1.5-3.52,1.5C2.19,13.82,0,11.64,0,8.94c0-2.69,2.19-4.89,4.88-4.89
		C6.27,4.06,7.51,4.64,8.4,5.57"/>
	<polygon fill="#010101" points="32.09,4.28 32.09,13.6 29.3,13.6 29.3,12.32 29.3,5.57 29.3,4.28 	"/>
</g>
</svg>
