<?xml version="1.0" encoding="utf-8"?>
<!-- Generator: Adobe Illustrator 23.0.1, SVG Export Plug-In . SVG Version: 6.00 Build 0)  -->
<svg version="1.1" id="Isolation_Mode" xmlns="http://www.w3.org/2000/svg" xmlns:xlink="http://www.w3.org/1999/xlink" x="0px"
	 y="0px" viewBox="0 0 41.33 22.88" enable-background="new 0 0 41.33 22.88" xml:space="preserve">
<g>
	<polygon fill="#008CC2" points="41.33,14.43 2.96,22.88 0,8.45 38.37,0 	"/>
	<path fill="#FFFFFF" d="M26.68,15.13l0.2-0.05c0,0-0.17-0.81-0.18-0.9c0.07,0.06,0.87,0.75,0.87,0.75l0.22-0.05l-0.25-1.22
		l-0.2,0.05c0,0,0.17,0.81,0.18,0.9c-0.07-0.06-0.88-0.75-0.88-0.75l-0.22,0.05L26.68,15.13z"/>
	<path fill="#FFFFFF" d="M28.07,14.83l0.95-0.21l-0.04-0.19c0,0-0.71,0.16-0.74,0.16l-0.07-0.34l0.71-0.16l-0.04-0.19l-0.71,0.16
		c-0.01-0.04-0.06-0.27-0.06-0.3c0.04-0.01,0.73-0.16,0.73-0.16l-0.04-0.19l-0.93,0.2L28.07,14.83z"/>
	<path fill="#FFFFFF" d="M29,13.55c0,0,0.38-0.08,0.42-0.09c0.01,0.04,0.21,1.03,0.21,1.03l0.21-0.04c0,0-0.2-0.99-0.21-1.03
		c0.04-0.01,0.42-0.09,0.42-0.09L30,13.12l-1.05,0.23L29,13.55z"/>
	<path fill="#FFFFFF" d="M30.8,14.23l0.21-0.05c0,0,0.09-0.9,0.1-1c0.05,0.09,0.49,0.87,0.49,0.87L31.81,14l0.14-1.31l-0.21,0.05
		c0,0-0.07,0.87-0.08,0.98c-0.05-0.09-0.48-0.85-0.48-0.85l-0.23,0.05c0,0-0.09,0.87-0.1,0.98c-0.05-0.1-0.46-0.86-0.46-0.86
		l-0.22,0.05L30.8,14.23z"/>
	<path fill="#FFFFFF" d="M32.64,12.51c-0.2,0.04-0.35,0.14-0.44,0.28c-0.08,0.14-0.11,0.31-0.07,0.5c0.04,0.18,0.13,0.33,0.26,0.42
		c0.14,0.1,0.31,0.12,0.51,0.08c0.47-0.1,0.57-0.49,0.51-0.78S33.11,12.41,32.64,12.51 M32.52,13.55c-0.09-0.06-0.15-0.16-0.18-0.3
		c-0.03-0.14-0.01-0.25,0.05-0.35c0.06-0.1,0.16-0.17,0.3-0.2c0.27-0.06,0.47,0.08,0.52,0.35c0.06,0.28-0.07,0.48-0.34,0.54
		C32.73,13.63,32.61,13.61,32.52,13.55"/>
	<path fill="#FFFFFF" d="M33.77,13.57l0.2-0.04c0,0-0.09-0.46-0.1-0.5l0.41-0.09c0.11-0.03,0.19,0,0.25,0.21l0.01,0.04
		c0.03,0.12,0.04,0.16,0.08,0.19l0.01,0.01l0.23-0.05l-0.04-0.03c-0.04-0.04-0.06-0.09-0.11-0.3c-0.03-0.13-0.1-0.21-0.19-0.22
		c0.09-0.07,0.13-0.19,0.1-0.33c-0.03-0.15-0.15-0.32-0.39-0.26l-0.71,0.16L33.77,13.57z M33.76,12.5c0.04-0.01,0.45-0.1,0.45-0.1
		c0.11-0.02,0.19,0.02,0.21,0.13c0.01,0.06,0.01,0.17-0.15,0.21c0,0-0.41,0.09-0.44,0.1C33.82,12.8,33.77,12.54,33.76,12.5"/>
	<path fill="#FFFFFF" d="M35.09,13.28l0.2-0.04c0,0-0.08-0.38-0.08-0.4c0.01-0.01,0.13-0.18,0.15-0.21
		c0.03,0.02,0.56,0.47,0.56,0.47l0.28-0.06c0,0-0.69-0.56-0.72-0.58c0.02-0.03,0.45-0.64,0.45-0.64l-0.29,0.07
		c0,0-0.43,0.63-0.48,0.7l-0.12-0.57l-0.2,0.04L35.09,13.28z"/>
	<path fill="#FFFFFF" d="M36.18,12.13c0.06,0.27,0.33,0.26,0.41,0.25l0.26-0.01c0.14,0,0.2,0.03,0.22,0.11
		c0.01,0.04,0,0.08-0.02,0.11c-0.04,0.06-0.12,0.11-0.23,0.13c-0.13,0.03-0.34,0.04-0.39-0.17l-0.01-0.02l-0.2,0.04l0,0.02
		c0.03,0.12,0.08,0.21,0.16,0.27c0.14,0.1,0.33,0.08,0.46,0.05c0.1-0.02,0.28-0.08,0.37-0.23c0.05-0.08,0.06-0.18,0.04-0.29
		c-0.05-0.26-0.33-0.25-0.42-0.25c0,0-0.29,0.01-0.29,0.01c-0.15,0.01-0.18-0.05-0.19-0.1c-0.01-0.04,0-0.08,0.02-0.11
		c0.03-0.05,0.1-0.1,0.18-0.11c0.25-0.06,0.32,0.05,0.35,0.13L36.95,12l0.2-0.04l-0.01-0.02c-0.06-0.25-0.27-0.35-0.57-0.28
		C36.28,11.71,36.13,11.9,36.18,12.13"/>
	<path fill="#FFFFFF" d="M15.83,10.94c-0.24-0.17-0.59-0.23-0.95-0.15c-0.39,0.09-0.66,0.26-0.86,0.66l-0.05-0.23
		c-0.11-0.1-0.25-0.14-0.4-0.11c-0.15,0.03-0.26,0.13-0.32,0.27l1.07,5.19l0.73-0.16l-0.4-1.94c0.33,0.27,0.65,0.31,1.04,0.23
		c0.36-0.08,0.65-0.28,0.8-0.53c0.28-0.47,0.19-1.13,0.07-1.71C16.44,11.89,16.27,11.25,15.83,10.94 M15.35,14.07
		c-0.66,0.14-0.88-0.43-1.02-1.11c-0.14-0.68-0.16-1.29,0.49-1.44c0.65-0.14,0.87,0.43,1.01,1.11
		C15.98,13.31,16.01,13.93,15.35,14.07"/>
	<path fill="#FFFFFF" d="M19.61,13.8l-0.07-0.35c-0.21,0.34-0.43,0.5-0.88,0.6c-0.45,0.1-0.77,0.05-1.04-0.13
		c-0.23-0.17-0.39-0.44-0.45-0.76c-0.13-0.64,0.19-1.19,1.02-1.38l0.95-0.21l-0.06-0.27c-0.1-0.48-0.37-0.67-0.94-0.54
		c-0.4,0.09-0.57,0.23-0.71,0.54l-0.57-0.37c0.26-0.5,0.58-0.71,1.18-0.84c0.99-0.22,1.58,0.12,1.76,0.99l0.52,2.56L19.61,13.8z
		 M19.25,12.12L18.4,12.3c-0.43,0.09-0.61,0.35-0.53,0.69c0.07,0.35,0.32,0.5,0.77,0.4c0.28-0.06,0.48-0.13,0.63-0.37
		c0.08-0.14,0.1-0.33,0.04-0.6L19.25,12.12z"/>
	<path fill="#FFFFFF" d="M22.02,12.59c-0.29,0.06-0.42-0.06-0.48-0.36l-0.88-4.27c-0.11-0.1-0.26-0.14-0.4-0.11
		c-0.15,0.03-0.26,0.14-0.32,0.27l0.89,4.32c0.12,0.57,0.51,0.99,1.21,0.84l0.45-0.1l-0.14-0.66L22.02,12.59z"/>
	<path fill="#FFFFFF" d="M25.22,12.14c-0.18,0.31-0.5,0.58-0.99,0.69c-0.49,0.11-0.88-0.01-1.17-0.22c-0.42-0.3-0.6-0.77-0.74-1.42
		c-0.13-0.64-0.15-1.14,0.12-1.6c0.18-0.31,0.49-0.58,0.98-0.69c0.49-0.11,0.89,0.01,1.17,0.22c0.42,0.3,0.6,0.77,0.73,1.41
		C25.47,11.19,25.49,11.69,25.22,12.14 M24.15,9.7c-0.17-0.11-0.37-0.15-0.58-0.1c-0.21,0.05-0.38,0.16-0.48,0.33
		c-0.17,0.28-0.12,0.69-0.03,1.11c0.08,0.42,0.2,0.81,0.46,0.99c0.17,0.11,0.36,0.16,0.57,0.11c0.21-0.05,0.38-0.17,0.49-0.34
		c0.17-0.28,0.12-0.69,0.03-1.11C24.53,10.28,24.42,9.89,24.15,9.7"/>
	<path fill="#FFFFFF" d="M30.89,10.63c-0.29,0.06-0.42-0.06-0.48-0.36L29.53,6c-0.11-0.1-0.26-0.14-0.4-0.11
		c-0.15,0.03-0.26,0.14-0.32,0.27l0.89,4.32c0.12,0.57,0.52,0.99,1.21,0.84l0.45-0.1l-0.14-0.66L30.89,10.63z"/>
	<path fill="#FFFFFF" d="M28.39,11.87l-0.07-0.35c-0.21,0.34-0.43,0.5-0.88,0.6c-0.45,0.1-0.77,0.05-1.04-0.13
		c-0.23-0.17-0.39-0.44-0.45-0.76c-0.13-0.64,0.19-1.19,1.02-1.38l0.95-0.21l-0.06-0.27c-0.1-0.48-0.37-0.67-0.94-0.54
		c-0.4,0.09-0.57,0.23-0.71,0.54L25.64,9c0.25-0.5,0.58-0.71,1.18-0.84c0.99-0.22,1.58,0.12,1.76,0.99l0.52,2.56L28.39,11.87z
		 M28.03,10.18l-0.85,0.19c-0.43,0.09-0.61,0.35-0.53,0.69c0.07,0.35,0.32,0.5,0.77,0.4c0.28-0.06,0.48-0.13,0.63-0.37
		c0.08-0.14,0.1-0.33,0.04-0.6L28.03,10.18z"/>
	<path fill="#FFFFFF" d="M32.71,7.6l-0.12-0.59l-0.7,0.15l-0.24-1.16c-0.11-0.1-0.25-0.14-0.4-0.11c-0.15,0.03-0.26,0.14-0.32,0.27
		l0.24,1.16l-0.41,0.09l0.12,0.59l0.41-0.09l0.43,2.11c0.11,0.55,0.53,0.99,1.21,0.85l0.43-0.1l-0.13-0.66l-0.3,0.07
		c-0.27,0.06-0.43-0.08-0.49-0.36l-0.43-2.07L32.71,7.6z"/>
	<path fill="#FFFFFF" d="M36.29,9.7c-0.18,0.31-0.5,0.58-0.99,0.69c-0.49,0.11-0.88-0.01-1.17-0.22c-0.42-0.3-0.6-0.77-0.74-1.42
		c-0.13-0.64-0.15-1.14,0.12-1.6c0.18-0.31,0.49-0.58,0.98-0.69c0.49-0.11,0.89,0.01,1.17,0.21c0.42,0.3,0.6,0.77,0.73,1.41
		C36.55,8.75,36.56,9.25,36.29,9.7 M35.22,7.26c-0.17-0.11-0.37-0.15-0.58-0.1c-0.21,0.05-0.38,0.16-0.48,0.33
		c-0.17,0.28-0.12,0.69-0.03,1.11c0.08,0.42,0.2,0.81,0.46,0.99c0.17,0.11,0.36,0.16,0.57,0.11c0.21-0.05,0.38-0.17,0.49-0.34
		c0.17-0.28,0.12-0.69,0.03-1.11S35.49,7.45,35.22,7.26"/>
	<path fill="#FFFFFF" d="M37.89,12.16c-0.19,0.04-0.38-0.09-0.42-0.29c-0.04-0.21,0.08-0.4,0.27-0.45c0.19-0.04,0.38,0.09,0.43,0.29
		C38.2,11.92,38.08,12.12,37.89,12.16 M37.75,11.48c-0.16,0.03-0.26,0.21-0.23,0.38c0.04,0.17,0.2,0.29,0.36,0.25
		c0.16-0.04,0.26-0.21,0.23-0.38C38.07,11.55,37.91,11.44,37.75,11.48 M37.94,11.98l-0.12-0.15l-0.06,0.01l0.03,0.17l-0.05,0.01
		l-0.08-0.4l0.13-0.03c0.07-0.01,0.13,0.03,0.15,0.1c0.01,0.06-0.02,0.1-0.06,0.13L38,11.96L37.94,11.98z M37.79,11.64l-0.07,0.02
		l0.03,0.14l0.07-0.01c0.04-0.01,0.07-0.05,0.06-0.09C37.87,11.65,37.83,11.63,37.79,11.64"/>
	<path fill="#FFFFFF" d="M11.51,13.71c-0.01-0.18,0.11-0.35,0.28-0.39l-0.5-2.42c-0.13-0.62-0.71-1.02-1.31-0.89l-4.74,1.04
		c-0.59,0.13-0.97,0.74-0.85,1.36l1.02,4.97c0.13,0.62,0.71,1.02,1.31,0.89l4.74-1.04c0.59-0.13,0.97-0.74,0.85-1.36l-0.32-1.57
		c-0.04,0.04-0.09,0.07-0.15,0.08c-0.17,0.04-0.31-0.08-0.31-0.26L11.51,13.71 M6.02,15.57l0.02,0.41c0.01,0.18-0.12,0.36-0.29,0.39
		c-0.17,0.04-0.3-0.08-0.31-0.26L5.42,15.7c-0.01-0.18,0.12-0.36,0.29-0.39C5.88,15.27,6.02,15.39,6.02,15.57 M7.04,15.35l0.06,1.44
		c0.01,0.18-0.12,0.35-0.29,0.39C6.64,17.22,6.5,17.1,6.5,16.92l-0.05-1.44c-0.01-0.18,0.12-0.35,0.29-0.39
		C6.9,15.05,7.04,15.17,7.04,15.35 M8.04,14.46l0.1,2.77c0.01,0.18-0.12,0.36-0.29,0.39c-0.17,0.04-0.31-0.08-0.31-0.26l-0.1-2.76
		c-0.01-0.18,0.12-0.36,0.29-0.39C7.89,14.17,8.03,14.28,8.04,14.46 M9.01,12.92l0.14,3.73c0.01,0.18-0.12,0.35-0.29,0.39
		c-0.17,0.04-0.31-0.08-0.31-0.26l-0.14-3.73C8.4,12.88,8.53,12.7,8.7,12.66C8.86,12.63,9,12.74,9.01,12.92 M10.01,12.34l0.1,2.76
		c0.01,0.18-0.12,0.36-0.29,0.39c-0.17,0.04-0.31-0.08-0.31-0.26l-0.1-2.77c-0.01-0.18,0.12-0.35,0.29-0.39
		C9.87,12.05,10.01,12.16,10.01,12.34 M11.06,12.78l0.05,1.44c0.01,0.18-0.12,0.36-0.29,0.39c-0.17,0.04-0.31-0.08-0.31-0.26
		l-0.05-1.44c-0.01-0.18,0.12-0.36,0.29-0.39C10.91,12.49,11.05,12.6,11.06,12.78"/>
</g>
</svg>
