<?xml version="1.0" encoding="utf-8"?>
<!-- Generator: Adobe Illustrator 23.0.1, SVG Export Plug-In . SVG Version: 6.00 Build 0)  -->
<svg version="1.1" id="Isolation_Mode" xmlns="http://www.w3.org/2000/svg" xmlns:xlink="http://www.w3.org/1999/xlink" x="0px"
	 y="0px" viewBox="0 0 54.63 11.2" enable-background="new 0 0 54.63 11.2" xml:space="preserve">
<path fill="#68666A" d="M44.6,10.29h-0.12V9.99h0.12V10.29z M49.48,11.08v-0.78c0-0.08-0.03-0.15-0.09-0.2
	c-0.06-0.05-0.14-0.08-0.22-0.08c-0.06,0-0.13,0.01-0.19,0.03c-0.06,0.02-0.11,0.05-0.14,0.08V9.74H48.3v1.34h0.53v-0.74h0.11v0.74
	H49.48z M45.16,10.1c0-0.1-0.03-0.18-0.1-0.25s-0.15-0.1-0.27-0.1h-0.88v1.34h0.56v-0.5h0.12v0.5h0.56v-0.42
	c0-0.08-0.02-0.13-0.04-0.17c-0.04-0.05-0.09-0.08-0.13-0.1c0.06-0.03,0.1-0.07,0.13-0.1C45.14,10.24,45.15,10.18,45.16,10.1
	 M51.98,10.54c0-0.23-0.06-0.38-0.18-0.46c-0.08-0.06-0.23-0.09-0.42-0.09s-0.34,0.03-0.42,0.09c-0.12,0.08-0.18,0.24-0.18,0.47
	c0,0.23,0.06,0.39,0.18,0.47c0.08,0.06,0.23,0.09,0.42,0.09c0.2,0,0.34-0.03,0.42-0.09C51.92,10.92,51.98,10.77,51.98,10.54
	 M50.73,10.54c0-0.18-0.04-0.31-0.12-0.39c-0.1-0.11-0.26-0.16-0.49-0.16c-0.2,0-0.34,0.03-0.42,0.08
	c-0.12,0.08-0.18,0.24-0.18,0.47c0,0.22,0.07,0.38,0.19,0.46c0.09,0.06,0.23,0.09,0.41,0.09c0.18,0,0.32-0.02,0.41-0.09
	c0.08-0.05,0.14-0.14,0.18-0.25c0.01-0.02,0.01-0.04,0.01-0.06h-0.54v0.15h-0.11V10.6h0.66C50.73,10.58,50.73,10.56,50.73,10.54
	 M46.37,11.08V10.4c0-0.13-0.06-0.24-0.16-0.31c-0.1-0.07-0.23-0.1-0.39-0.1c-0.19,0-0.33,0.04-0.43,0.11
	c-0.09,0.06-0.14,0.13-0.14,0.21v0.05h0.5v-0.13h0.11v0.2l-0.25,0.01c-0.26,0.01-0.39,0.11-0.39,0.3c0,0.24,0.11,0.37,0.35,0.37
	c0.14,0,0.25-0.05,0.32-0.15l0,0.14H46.37z M53.21,11.08v-0.76c0-0.08-0.04-0.16-0.11-0.22c-0.07-0.06-0.15-0.09-0.24-0.08
	c-0.14,0-0.25,0.04-0.32,0.11l0-0.1h-0.51v1.05h0.53v-0.74h0.11v0.74H53.21z M48.25,10.34v-0.29h-0.18V9.74h-0.53v0.31h-0.42
	l-0.16,0.54l-0.15-0.54H46.3l0.41,1.03l-0.15,0.38h0.52l0.46-1.16v0.78h0.53v-0.74H48.25z M50.18,10.43h-0.11v-0.2h0.11V10.43z
	 M51.43,10.85h-0.11v-0.62h0.11V10.85z M45.85,10.82h-0.12v-0.23h0.12V10.82z M34.46,10.03c-0.34,0-0.54,0.19-0.54,0.53
	c0,0.33,0.2,0.53,0.54,0.53c0.34,0,0.54-0.2,0.54-0.53C34.99,10.23,34.8,10.03,34.46,10.03 M34.46,10.84c-0.18,0-0.2-0.21-0.2-0.28
	c0-0.08,0.02-0.28,0.2-0.28c0.18,0,0.2,0.19,0.2,0.28C34.65,10.63,34.64,10.84,34.46,10.84 M36.14,10.65l-0.11-0.6h-0.4l-0.11,0.6
	l-0.11-0.6h-0.34l0.24,1.03h0.4l0.11-0.6l0.12,0.6h0.4l0.24-1.03h-0.33L36.14,10.65z M37.06,10.67h0.42v-0.24h-0.42v-0.14h0.44
	v-0.25h-0.78v1.03h0.79v-0.25h-0.46V10.67z M39.17,10.67h0.42v-0.24h-0.42v-0.14h0.44v-0.25h-0.78v1.03h0.79v-0.25h-0.46V10.67z
	 M40.25,10.05h-0.4v1.03h0.4c0.41,0,0.63-0.18,0.63-0.52C40.88,10.1,40.52,10.05,40.25,10.05 M40.26,10.82h-0.07V10.3h0.07
	c0.18,0,0.28,0.09,0.28,0.26C40.54,10.74,40.44,10.82,40.26,10.82 M42.95,10.05l-0.18,0.35l-0.18-0.35h-0.39l0.4,0.64v0.39h0.33
	v-0.39l0.39-0.64H42.95z M33.32,10.05h-0.35v1.03h0.33v-0.34h0.07c0.27,0,0.43-0.13,0.43-0.34C33.8,10.16,33.65,10.05,33.32,10.05
	 M33.34,10.51h-0.05v-0.23h0.05c0.1,0,0.15,0.04,0.15,0.11C33.49,10.47,33.44,10.51,33.34,10.51 M38.54,10.77
	c-0.01-0.02-0.02-0.05-0.03-0.07c-0.02-0.05-0.04-0.1-0.07-0.13c0.1-0.04,0.15-0.13,0.15-0.25c0-0.17-0.14-0.28-0.36-0.28h-0.51
	v1.03h0.33v-0.38h0.02c0.07,0,0.1,0.01,0.16,0.19l0.07,0.2h0.35L38.54,10.77z M38.09,10.46h-0.06v-0.19h0.06
	c0.13,0,0.18,0.03,0.18,0.09C38.27,10.46,38.19,10.46,38.09,10.46 M42.03,10.55c0.08-0.05,0.12-0.12,0.12-0.22
	c0-0.17-0.14-0.28-0.36-0.28h-0.5v1.03h0.46c0.27,0,0.42-0.11,0.42-0.31C42.18,10.69,42.15,10.6,42.03,10.55 M41.62,10.28h0.06
	c0.12,0,0.16,0.02,0.16,0.08c0,0.06-0.06,0.09-0.16,0.09h-0.06V10.28z M41.68,10.85h-0.06v-0.2h0.07c0.11,0,0.18,0.02,0.18,0.1
	C41.86,10.82,41.81,10.85,41.68,10.85"/>
<g>
	<path fill="#55AC47" d="M7.42,0c0.04,0,0.06,0.03,0.06,0.06v1.5c0,0.03-0.03,0.06-0.06,0.06H1.75c-0.03,0-0.06,0.03-0.06,0.06v6.59
		c0,0.03-0.03,0.06-0.06,0.06H0.06C0.03,8.33,0,8.3,0,8.27V0.06C0,0.03,0.03,0,0.06,0H7.42z M3.71,3.36c-0.06-0.05-0.09,0-0.09,0.04
		v4.61c0,0.08,0.05,0.09,0.11,0.03l2.47-2.21c0.03-0.03,0.03-0.07,0-0.1L3.71,3.36z"/>
	<path fill="#000100" d="M12.41,4.82H9.83v0.89h2.15c0.06,0,0.09,0.03,0.09,0.08c0,0.58,0,0.77,0,0.9c0,0.06-0.03,0.08-0.1,0.08
		H9.83v1.47c0,0.07-0.01,0.09-0.06,0.09H8.63c-0.04,0-0.06,0.01-0.06-0.09V3.87c0-0.08,0.01-0.09,0.06-0.09h3.78
		c0.06,0,0.06,0.07,0.06,0.07v0.91C12.47,4.76,12.47,4.82,12.41,4.82 M17.88,6.07c0-1.31-1.07-2.38-2.48-2.38
		c-1.41,0-2.48,1.07-2.48,2.38c0,1.31,1.07,2.37,2.48,2.37C16.81,8.44,17.88,7.39,17.88,6.07 M16.58,6.07
		c0,0.69-0.43,1.23-1.17,1.23c-0.76,0-1.17-0.54-1.17-1.23c0-0.69,0.42-1.23,1.17-1.23C16.14,4.84,16.58,5.38,16.58,6.07
		 M22.81,8.15c-0.4-0.63-0.8-1.31-0.98-1.58c0.43-0.19,0.65-0.63,0.65-1.25c0-0.82-0.57-1.53-1.65-1.53h-2.17
		c-0.02,0-0.06-0.01-0.06,0.06v4.42c0,0.07,0,0.06,0.06,0.06h1.15c0.05,0,0.06-0.01,0.06-0.06V7l0.8-0.01c0,0,0.51,0.77,0.75,1.21
		c0.06,0.12,0.09,0.13,0.15,0.13h1.24C22.87,8.33,22.89,8.28,22.81,8.15 M21.14,5.41c0,0.39-0.21,0.66-0.59,0.67l-0.7,0.02V4.78
		h0.69C20.96,4.78,21.14,5.05,21.14,5.41 M25.6,8.46c1.32,0,2.11-0.87,2.28-1.69c0.01-0.07,0.01-0.09-0.03-0.09h-1.14
		c-0.05,0-0.07,0.03-0.07,0.05c-0.2,0.4-0.53,0.6-1.01,0.6c-0.7,0-1.14-0.53-1.14-1.25v0.01c0-0.72,0.45-1.25,1.14-1.25
		c0.48,0,0.81,0.19,1.01,0.6c0,0.01,0.02,0.04,0.07,0.04h1.14c0.03,0,0.04-0.02,0.03-0.09c-0.17-0.82-0.96-1.7-2.28-1.7
		c-1.37,0-2.44,1.01-2.44,2.39S24.24,8.46,25.6,8.46 M31.95,8.24V7.37c0-0.07-0.01-0.09-0.09-0.09h-2.03V6.53h1.95
		c0.06,0,0.07-0.01,0.07-0.09V5.62c0-0.08-0.01-0.09-0.07-0.09h-1.95V4.76h2c0.06,0,0.08-0.01,0.08-0.07V3.87
		c0-0.08-0.01-0.09-0.08-0.09h-3.16c-0.07,0-0.06,0.01-0.06,0.07v4.38c0,0.08,0.01,0.09,0.08,0.09h3.19
		C31.94,8.33,31.95,8.32,31.95,8.24 M37.24,5.53c0-1.03-0.62-1.74-1.66-1.74h-2.55c-0.03,0-0.06-0.01-0.06,0.06v4.42
		c0,0.07,0,0.06,0.06,0.06h1.13c0.06,0,0.06-0.01,0.06-0.06V7.16c0,0,1.24,0.03,1.45,0.01C36.57,7.06,37.24,6.63,37.24,5.53
		 M35.95,5.49c0,0.38-0.2,0.68-0.68,0.7h-1.04v-1.4h1.03C35.68,4.78,35.95,5.04,35.95,5.49 M42.77,6.07c0-1.31-1.07-2.38-2.48-2.38
		c-1.41,0-2.48,1.07-2.48,2.38c0,1.31,1.07,2.37,2.48,2.37C41.7,8.44,42.77,7.39,42.77,6.07 M41.47,6.07c0,0.69-0.43,1.23-1.17,1.23
		c-0.75,0-1.17-0.54-1.17-1.23c0-0.69,0.42-1.23,1.17-1.23C41.03,4.84,41.47,5.38,41.47,6.07 M44.76,8.27V3.85
		c0-0.05-0.01-0.06-0.07-0.06h-1.16c-0.06,0-0.06-0.01-0.06,0.06v4.42c0,0.07,0,0.06,0.06,0.06h1.16
		C44.75,8.33,44.76,8.32,44.76,8.27 M54.63,4.93V3.85c0-0.05,0-0.07-0.05-0.07h-4.05c-0.05,0-0.05,0.01-0.05,0.07v1.08
		c0,0.04,0,0.05,0.05,0.05l1.41-0.01v3.31c0,0.07,0,0.06,0.07,0.06h1.15c0.06,0,0.06-0.01,0.06-0.06V4.97l1.37,0.01
		C54.63,4.98,54.63,4.97,54.63,4.93 M49.75,8.17l0-0.64V3.87c0-0.07,0-0.08-0.07-0.08h-1.06c-0.05,0-0.05,0.01-0.05,0.08v2.14
		c0,0-1.74-1.53-2.57-2.15c-0.2-0.17-0.22,0.02-0.22,0.08v0.01v0.64v0c0,1.32,0,2.23,0,3.68c0,0.03,0.02,0.07,0.07,0.07h1.05
		c0.06,0,0.06,0,0.06-0.06V6.29c0,0,1.43,1.15,2.48,1.92C49.72,8.44,49.75,8.29,49.75,8.17"/>
</g>
</svg>
